<svg xmlns="http://www.w3.org/2000/svg" viewBox="0 0 64 64"><defs><style>.cls-1{fill:#231f20;}</style></defs><title>Ambulance</title><g id="Ambulance"><path class="cls-1" d="M62.34,44.56l-4.49-2.25-3.49-13.1A3,3,0,0,0,51.46,27H42V23a1,1,0,0,0-1-1H1a1,1,0,0,0-1,1V58a1,1,0,0,0,1,1H6.09a6,6,0,0,0,11.82,0H43.09a6,6,0,0,0,11.82,0H63a1,1,0,0,0,1-1V47.24A3,3,0,0,0,62.34,44.56ZM55.7,42H46V33h7.3ZM2,46H40v2H2ZM40,24V44H2V24ZM2,50H40v7H17.91A6,6,0,0,0,6.09,57H2ZM12,62a4,4,0,1,1,4-4A4,4,0,0,1,12,62Zm37,0a4,4,0,1,1,4-4A4,4,0,0,1,49,62Zm5.91-5a6,6,0,0,0-11.82,0H42V29h9.46a1,1,0,0,1,1,.74L52.77,31H45a1,1,0,0,0-1,1V43a1,1,0,0,0,1,1H56.76l4.68,2.34a1,1,0,0,1,.56.9V48H61a3,3,0,0,0,0,6h1v3ZM62,52H61a1,1,0,0,1,0-2h1Z"/><path class="cls-1" d="M47,46H45a1,1,0,0,0,0,2h2a1,1,0,0,0,0-2Z"/><circle class="cls-1" cx="12" cy="58" r="2"/><circle class="cls-1" cx="49" cy="58" r="2"/><path class="cls-1" d="M21,42a8,8,0,1,0-8-8A8,8,0,0,0,21,42Zm0-14a6,6,0,1,1-6,6A6,6,0,0,1,21,28Z"/><path class="cls-1" d="M18,35h2v2a1,1,0,0,0,2,0V35h2a1,1,0,0,0,0-2H22V31a1,1,0,0,0-2,0v2H18a1,1,0,0,0,0,2Z"/><path class="cls-1" d="M23,11h1.06a8.13,8.13,0,0,0,1.62,3.9h0l-1.39,1.39a1,1,0,0,0,0,1.42,1,1,0,0,0,1.42,0l1.39-1.39h0A8.13,8.13,0,0,0,31,17.94V19a1,1,0,0,0,2,0V17.94a8.13,8.13,0,0,0,3.9-1.62h0l1.39,1.39a1,1,0,0,0,1.42,0,1,1,0,0,0,0-1.42L38.32,14.9h0A8.13,8.13,0,0,0,39.94,11H41a1,1,0,0,0,0-2H39.94a8.13,8.13,0,0,0-1.62-3.9h0l1.39-1.39a1,1,0,1,0-1.42-1.42L36.9,3.68h0A8.13,8.13,0,0,0,33,2.06V1a1,1,0,0,0-2,0V2.06a8.13,8.13,0,0,0-3.9,1.62h0L25.71,2.29a1,1,0,0,0-1.42,1.42L25.68,5.1h0A8.13,8.13,0,0,0,24.06,9H23a1,1,0,0,0,0,2ZM36.24,5.76A5.86,5.86,0,0,1,37.91,9h0a1,1,0,0,0,0,2h0A6,6,0,0,1,33,15.91h0a1,1,0,0,0-2,0h0A6,6,0,0,1,26.09,11h0a1,1,0,0,0,0-2h0A6,6,0,0,1,31,4.09h0a1,1,0,0,0,2,0h0A5.86,5.86,0,0,1,36.24,5.76Z"/><circle class="cls-1" cx="29.5" cy="8.5" r="1.5"/><circle class="cls-1" cx="35" cy="9" r="1"/><circle class="cls-1" cx="32" cy="12" r="1"/></g></svg>