<svg xmlns="http://www.w3.org/2000/svg" viewBox="0 0 64 64"><defs><style>.cls-1{fill:#231f20;}</style></defs><title>Apps Covid</title><g id="Apps_Covid" data-name="Apps Covid"><path class="cls-1" d="M48,0H16a5,5,0,0,0-5,5V59a5,5,0,0,0,5,5H48a5,5,0,0,0,5-5V5A5,5,0,0,0,48,0Zm3,59a3,3,0,0,1-3,3H16a3,3,0,0,1-3-3V5a3,3,0,0,1,3-3H48a3,3,0,0,1,3,3Z"/><path class="cls-1" d="M48,4H40a1,1,0,0,0-1,1,1,1,0,0,1-1,1H26a1,1,0,0,1-1-1,1,1,0,0,0-1-1H16a1,1,0,0,0-1,1V59a1,1,0,0,0,1,1H48a1,1,0,0,0,1-1V5A1,1,0,0,0,48,4ZM47,58H17V6h6.17A3,3,0,0,0,26,8H38a3,3,0,0,0,2.83-2H47Z"/><circle class="cls-1" cx="28" cy="4" r="1"/><circle class="cls-1" cx="36" cy="4" r="1"/><path class="cls-1" d="M29.88,29.88h0a2,2,0,0,0-2.83,0,2,2,0,0,0,0,2.83,2,2,0,0,0,2.83,0,2,2,0,0,0,0-2.83Z"/><circle class="cls-1" cx="34.83" cy="29.88" r="1.5"/><path class="cls-1" d="M31.29,35.54a1,1,0,0,0,0,1.41,1,1,0,0,0,1.42,0,1,1,0,0,0,0-1.41A1,1,0,0,0,31.29,35.54Z"/><path class="cls-1" d="M39.27,23.32l-.94.94A9.92,9.92,0,0,0,33,22.05V20a1,1,0,1,0-2,0v2.06a9.92,9.92,0,0,0-5.33,2.21l-.94-.94a2,2,0,1,0-3.34.9,2,2,0,0,0,1.42.59,1.81,1.81,0,0,0,.51-.08l.94.94A9.92,9.92,0,0,0,22.05,31H20a1,1,0,1,0,0,2h2.06a9.92,9.92,0,0,0,2.21,5.33l-.94.94a2,2,0,1,0,1.41,1.41l.94-.94A9.92,9.92,0,0,0,31,42V44a1,1,0,0,0,2,0V42a9.92,9.92,0,0,0,5.33-2.21l.94.94a2,2,0,1,0,1.41-1.41l-.94-.94A9.92,9.92,0,0,0,42,33H44a1,1,0,0,0,0-2H42a9.92,9.92,0,0,0-2.21-5.33l.94-.94a1.81,1.81,0,0,0,.51.08,2,2,0,1,0-1.41-3.42A2,2,0,0,0,39.27,23.32ZM40,32s0,0,0,0,0,0,0,0a7.94,7.94,0,0,1-1.69,4.88l-.65-.66a1,1,0,0,0-1.42,1.42l.66.65A7.94,7.94,0,0,1,32,40h0a7.94,7.94,0,0,1-4.88-1.69l.66-.65a1,1,0,0,0-1.42-1.42l-.65.66A7.94,7.94,0,0,1,24,32s0,0,0,0,0,0,0,0a7.94,7.94,0,0,1,1.69-4.88l.65.66a1,1,0,0,0,1.42,0,1,1,0,0,0,0-1.42l-.66-.65A7.94,7.94,0,0,1,32,24h0a7.94,7.94,0,0,1,4.88,1.69l-.66.65a1,1,0,0,0,0,1.42,1,1,0,0,0,1.42,0l.65-.66A7.94,7.94,0,0,1,40,32Z"/></g></svg>