<svg xmlns="http://www.w3.org/2000/svg" viewBox="0 0 64 64"><defs><style>.cls-1{fill:#231f20;}</style></defs><title>City Lockdown</title><g id="City_Lockdown" data-name="City Lockdown"><path class="cls-1" d="M41,15.41V9a1,1,0,0,0-1-1H38V6A6,6,0,0,0,26,6V8H24a1,1,0,0,0-1,1v6.41C9.42,19.75,0,33.44,0,49V63a1,1,0,0,0,1,1H63a1,1,0,0,0,1-1V49C64,33.44,54.58,19.75,41,15.41ZM28,6a4,4,0,0,1,8,0V8H28Zm-3,4H39V21H25ZM17,62V53a1,1,0,0,0-2,0v9H13V53a1,1,0,0,0-2,0v9H8V50H20V62Zm7,0H22V49a1,1,0,0,0-1-1H20V45a1,1,0,0,0-1-1H14V40H24ZM18,46v2H10V46Zm8-7V36H40V62H26Zm12-7v2H28V32Zm4,9h8v5H46a1,1,0,0,0-1,1V62H42Zm9,21H47V48h9V62Zm11,0H58V47a1,1,0,0,0-1-1H52V40a1,1,0,0,0-1-1H42V35a1,1,0,0,0-1-1H40V31a1,1,0,0,0-1-1H34V26a1,1,0,0,0-2,0v4H27a1,1,0,0,0-1,1v3H25a1,1,0,0,0-1,1v3H13a1,1,0,0,0-1,1v5H9a1,1,0,0,0-1,1v3H7a1,1,0,0,0-1,1V62H2V49c0-14.45,8.58-27.17,21-31.46V22a1,1,0,0,0,1,1H40a1,1,0,0,0,1-1V17.54c12.42,4.29,21,17,21,31.46Z"/><path class="cls-1" d="M32,12a2,2,0,0,0-1,3.72V18a1,1,0,0,0,2,0V15.72A2,2,0,0,0,32,12Z"/><path class="cls-1" d="M29,38a1,1,0,0,0-1,1v1a1,1,0,0,0,2,0V39A1,1,0,0,0,29,38Z"/><path class="cls-1" d="M33,38a1,1,0,0,0-1,1v1a1,1,0,0,0,2,0V39A1,1,0,0,0,33,38Z"/><path class="cls-1" d="M37,38a1,1,0,0,0-1,1v1a1,1,0,0,0,2,0V39A1,1,0,0,0,37,38Z"/><path class="cls-1" d="M29,43a1,1,0,0,0-1,1v1a1,1,0,0,0,2,0V44A1,1,0,0,0,29,43Z"/><path class="cls-1" d="M33,43a1,1,0,0,0-1,1v1a1,1,0,0,0,2,0V44A1,1,0,0,0,33,43Z"/><path class="cls-1" d="M37,43a1,1,0,0,0-1,1v1a1,1,0,0,0,2,0V44A1,1,0,0,0,37,43Z"/><path class="cls-1" d="M29,48a1,1,0,0,0-1,1v1a1,1,0,0,0,2,0V49A1,1,0,0,0,29,48Z"/><path class="cls-1" d="M33,48a1,1,0,0,0-1,1v1a1,1,0,0,0,2,0V49A1,1,0,0,0,33,48Z"/><path class="cls-1" d="M37,48a1,1,0,0,0-1,1v1a1,1,0,0,0,2,0V49A1,1,0,0,0,37,48Z"/><path class="cls-1" d="M29,53a1,1,0,0,0-1,1v1a1,1,0,0,0,2,0V54A1,1,0,0,0,29,53Z"/><path class="cls-1" d="M33,53a1,1,0,0,0-1,1v1a1,1,0,0,0,2,0V54A1,1,0,0,0,33,53Z"/><path class="cls-1" d="M37,53a1,1,0,0,0-1,1v1a1,1,0,0,0,2,0V54A1,1,0,0,0,37,53Z"/><path class="cls-1" d="M29,58a1,1,0,0,0-1,1v1a1,1,0,0,0,2,0V59A1,1,0,0,0,29,58Z"/><path class="cls-1" d="M33,58a1,1,0,0,0-1,1v1a1,1,0,0,0,2,0V59A1,1,0,0,0,33,58Z"/><path class="cls-1" d="M37,58a1,1,0,0,0-1,1v1a1,1,0,0,0,2,0V59A1,1,0,0,0,37,58Z"/><path class="cls-1" d="M53,50H50a1,1,0,0,0,0,2h3a1,1,0,0,0,0-2Z"/><path class="cls-1" d="M53,54H50a1,1,0,0,0,0,2h3a1,1,0,0,0,0-2Z"/><path class="cls-1" d="M53,58H50a1,1,0,0,0,0,2h3a1,1,0,0,0,0-2Z"/></g></svg>