<svg xmlns="http://www.w3.org/2000/svg" viewBox="0 0 64 64"><defs><style>.cls-1{fill:#231f20;}</style></defs><title>Corona Virus</title><g id="Corona_Virus" data-name="Corona Virus"><path class="cls-1" d="M60,28a4,4,0,0,0-3.86,3H53a20.91,20.91,0,0,0-2.3-8.62l2.8-1.61a3,3,0,0,0,1.94.73A3,3,0,0,0,58,17a3,3,0,0,0-5.5.72,3.1,3.1,0,0,0,0,1.32l-2.8,1.61a21,21,0,0,0-6.3-6.3L45,11.55a3.33,3.33,0,0,0,.54.07,3.47,3.47,0,0,0,.78-.1,3,3,0,1,0-3.05-1l-1.62,2.79A20.83,20.83,0,0,0,33,11.05V7.86a4,4,0,1,0-2,0v3.19a20.83,20.83,0,0,0-8.61,2.3l-1.62-2.79a3,3,0,1,0-3.05,1,3.47,3.47,0,0,0,.78.1,3.33,3.33,0,0,0,.54-.07l1.62,2.8a21,21,0,0,0-6.3,6.3L11.56,19a3.1,3.1,0,0,0,0-1.32,3,3,0,1,0-4.4,3.38,3,3,0,0,0,1.49.4,3,3,0,0,0,1.94-.73l2.8,1.61A20.91,20.91,0,0,0,11.05,31H7.86a4,4,0,1,0,0,2h3.19a20.91,20.91,0,0,0,2.3,8.62l-2.79,1.61a3,3,0,1,0,1,3.05,3.1,3.1,0,0,0,0-1.32l2.8-1.61a21,21,0,0,0,6.3,6.3L19,52.44a3.1,3.1,0,0,0-1.32,0,3,3,0,1,0,3.05,1l1.62-2.79A20.83,20.83,0,0,0,31,53v3.19a4,4,0,1,0,2,0V53a20.83,20.83,0,0,0,8.61-2.3l1.62,2.79a3,3,0,1,0,3.05-1,3.1,3.1,0,0,0-1.32,0l-1.62-2.79a21,21,0,0,0,6.3-6.3L52.44,45a3.1,3.1,0,0,0,0,1.32,3,3,0,1,0,1-3.05l-2.79-1.61A20.91,20.91,0,0,0,53,33h3.19A4,4,0,1,0,60,28Zm-5.58-9.76a1,1,0,1,1,1.46,1.13A1,1,0,0,1,54.52,19,1,1,0,0,1,54.42,18.24ZM44.63,8.12a1,1,0,1,1,1.13,1.46,1,1,0,0,1-.76-.1A1,1,0,0,1,44.63,8.12ZM18.24,9.58a1,1,0,1,1,1.13-1.46A1,1,0,0,1,19,9.48h0A1,1,0,0,1,18.24,9.58ZM8.12,19.37a1,1,0,1,1,1.46-1.13,1,1,0,0,1-.1.76A1,1,0,0,1,8.12,19.37ZM9.58,45.76a1,1,0,1,1-1.46-1.13A1,1,0,0,1,9.48,45,1,1,0,0,1,9.58,45.76Zm9.79,10.12a1,1,0,1,1-1.13-1.46.78.78,0,0,1,.26,0,1,1,0,0,1,.87,1.5Zm26.39-1.46a1,1,0,1,1-1.13,1.46A1,1,0,0,1,45,54.52h0a1,1,0,0,1,.5-.14A.78.78,0,0,1,45.76,54.42Zm9.62-9.92a1,1,0,0,1,.5.13,1,1,0,1,1-1.46,1.13,1,1,0,0,1,.1-.76A1,1,0,0,1,55.38,44.5ZM30,4a2,2,0,1,1,2,2A2,2,0,0,1,30,4ZM4,34a2,2,0,1,1,2-2A2,2,0,0,1,4,34ZM34,60a2,2,0,1,1-2-2A2,2,0,0,1,34,60Zm8.34-12.08-1-1.7a1,1,0,0,0-1.74,1l1,1.69a18.78,18.78,0,0,1-17.22,0l1-1.69a1,1,0,0,0-1.74-1l-1,1.7A19,19,0,0,1,13.05,33H15a1,1,0,0,0,0-2H13.05a19,19,0,0,1,8.61-14.92l1,1.7a1,1,0,0,0,1.37.36,1,1,0,0,0,.37-1.36l-1-1.69a18.78,18.78,0,0,1,17.22,0l-1,1.69A1,1,0,0,0,40,18.14a1,1,0,0,0,1.37-.36l1-1.7A19,19,0,0,1,51,31H49a1,1,0,0,0,0,2h2A19,19,0,0,1,42.34,47.92ZM60,34a2,2,0,1,1,2-2A2,2,0,0,1,60,34Z"/><path class="cls-1" d="M28.5,21A4.5,4.5,0,1,0,33,25.5,4.51,4.51,0,0,0,28.5,21Zm0,7A2.5,2.5,0,1,1,31,25.5,2.5,2.5,0,0,1,28.5,28Z"/><path class="cls-1" d="M36,36a4,4,0,1,0,4,4A4,4,0,0,0,36,36Zm0,6a2,2,0,1,1,2-2A2,2,0,0,1,36,42Z"/><path class="cls-1" d="M40.5,24A3.5,3.5,0,1,0,44,27.5,3.5,3.5,0,0,0,40.5,24Zm0,5A1.5,1.5,0,1,1,42,27.5,1.5,1.5,0,0,1,40.5,29Z"/><path class="cls-1" d="M23,33a3,3,0,1,0,3,3A3,3,0,0,0,23,33Zm0,4a1,1,0,1,1,1-1A1,1,0,0,1,23,37Z"/></g></svg>