<svg xmlns="http://www.w3.org/2000/svg" viewBox="0 0 64 64"><defs><style>.cls-1{fill:#231f20;}</style></defs><title>Death</title><g id="Death"><path class="cls-1" d="M38,22a1,1,0,0,0-1-1H31V15a1,1,0,0,0-1-1H26a1,1,0,0,0-1,1v6H19a1,1,0,0,0-1,1v4a1,1,0,0,0,1,1h6V41a1,1,0,0,0,1,1h4a1,1,0,0,0,1-1V27h6a1,1,0,0,0,1-1Zm-2,3H30a1,1,0,0,0-1,1V40H27V26a1,1,0,0,0-1-1H20V23h6a1,1,0,0,0,1-1V16h2v6a1,1,0,0,0,1,1h6Z"/><path class="cls-1" d="M58,48H56.94a8.13,8.13,0,0,0-1.62-3.9h0l1.39-1.39a1,1,0,0,0-1.42-1.42L53.9,42.68h0A8.13,8.13,0,0,0,50,41.06V40a1,1,0,0,0-2,0v1.06a8.13,8.13,0,0,0-3.9,1.62h0l-1.39-1.39a1,1,0,0,0-1.42,1.42l1.39,1.39h0A8.13,8.13,0,0,0,41.06,48H40a1,1,0,0,0,0,2h1.06a8.13,8.13,0,0,0,1.62,3.9h0l-1.39,1.39a1,1,0,0,0,0,1.42,1,1,0,0,0,1.42,0l1.39-1.39h0A8.13,8.13,0,0,0,48,56.94V58a1,1,0,0,0,2,0V56.94a8.13,8.13,0,0,0,3.9-1.62h0l1.39,1.39a1,1,0,0,0,1.42,0,1,1,0,0,0,0-1.42L55.32,53.9h0A8.13,8.13,0,0,0,56.94,50H58a1,1,0,0,0,0-2ZM44.76,53.24A5.86,5.86,0,0,1,43.09,50h0a1,1,0,0,0,0-2h0A6,6,0,0,1,48,43.09h0a1,1,0,0,0,2,0h0A6,6,0,0,1,54.91,48h0a1,1,0,0,0,0,2h0A6,6,0,0,1,50,54.91h0a1,1,0,0,0-2,0h0A5.86,5.86,0,0,1,44.76,53.24Z"/><circle class="cls-1" cx="52" cy="48" r="1"/><circle class="cls-1" cx="49" cy="51" r="1"/><path class="cls-1" d="M49,34c-.34,0-.67,0-1,0V20A20,20,0,0,0,8,20V52H6a1,1,0,0,0-1,1v5H4.12A4.13,4.13,0,0,0,0,62.12V63a1,1,0,0,0,1,1H49a15,15,0,0,0,0-30ZM10,20A18,18,0,0,1,28,2,18,18,0,0,1,46,20V34.3a14.8,14.8,0,0,0-4,1.44V20a14,14,0,0,0-28,0V47a1,1,0,0,0,1,1H34c0,.33,0,.66,0,1a14.82,14.82,0,0,0,.3,3H10ZM34.3,46H16V20a12,12,0,0,1,24,0V37A15.08,15.08,0,0,0,34.3,46ZM7,54H34.86A15.09,15.09,0,0,0,37,58H7ZM2,62a2.13,2.13,0,0,1,2.12-2h34.7a14.37,14.37,0,0,0,2.71,2Zm47,0a13,13,0,0,1-9.06-3.69l0-.05a13,13,0,0,1,1.64-19.89l.18-.14A13,13,0,1,1,49,62Z"/><circle class="cls-1" cx="46.5" cy="47.5" r="1.5"/></g></svg>