<svg xmlns="http://www.w3.org/2000/svg" viewBox="0 0 64 64"><defs><style>.cls-1{fill:#231f20;}</style></defs><title>Dizzy</title><g id="Dizzy"><path class="cls-1" d="M31,18H29.93a7.94,7.94,0,0,0-1.62-3.9l1.4-1.39a1,1,0,0,0-1.42-1.42l-1.39,1.4A7.94,7.94,0,0,0,23,11.07V10a1,1,0,0,0-2,0v1.07a7.94,7.94,0,0,0-3.9,1.62l-1.39-1.4a1,1,0,0,0-1.42,1.42l1.4,1.39A7.94,7.94,0,0,0,14.07,18H13a1,1,0,0,0,0,2h1.07a7.94,7.94,0,0,0,1.62,3.9l-1.4,1.39a1,1,0,0,0,0,1.42,1,1,0,0,0,1.42,0l1.39-1.4A7.94,7.94,0,0,0,21,26.93V28a1,1,0,0,0,2,0V26.93a7.94,7.94,0,0,0,3.9-1.62l1.39,1.4a1,1,0,0,0,1.42,0,1,1,0,0,0,0-1.42l-1.4-1.39A7.94,7.94,0,0,0,29.93,20H31a1,1,0,0,0,0-2Zm-3.09,2A6,6,0,0,1,23,24.91a1,1,0,0,0-2,0A6,6,0,0,1,16.09,20a1,1,0,0,0,0-2A6,6,0,0,1,21,13.09a1,1,0,0,0,2,0A6,6,0,0,1,27.91,18a1,1,0,0,0,0,2Z"/><circle class="cls-1" cx="19.5" cy="17.5" r="1.5"/><circle class="cls-1" cx="25" cy="18" r="1"/><circle class="cls-1" cx="22" cy="21" r="1"/><path class="cls-1" d="M44.84,28.73A1.67,1.67,0,0,1,44.71,27a3.73,3.73,0,0,0,.39-1.64V22.5A22.55,22.55,0,0,0,0,22.5v1A31.77,31.77,0,0,0,2.45,35.85l.06.15A29.72,29.72,0,0,1,4.79,49.15C4.47,55.17,4.1,63,4.1,63l2,.1s.37-7.78.69-13.79a31.91,31.91,0,0,0-2.43-14l-.06-.15A29.69,29.69,0,0,1,2,23.47v-1a20.55,20.55,0,0,1,41.1,0v2.87a1.63,1.63,0,0,1-.18.75,3.64,3.64,0,0,0,.3,3.77l3.57,5a1.63,1.63,0,0,1-1,2.55L42.9,38a1,1,0,0,0-.8,1v3a1,1,0,0,0,.17.56l.17.26a.75.75,0,0,1,0,.78.74.74,0,0,1-.67.4h-4.3a4.39,4.39,0,0,0-3.12,1.29,1,1,0,0,0,1.41,1.42A2.41,2.41,0,0,1,37.51,46h3.34a.76.76,0,0,1,.54,1.29,1,1,0,0,0-.29.71v2.86A5.15,5.15,0,0,1,36,56a5.24,5.24,0,0,1-1.42-.2L28.37,54a1,1,0,0,0-.88.16,1,1,0,0,0-.39.8v8a1,1,0,0,0,2,0V56.33L34,57.72A6.9,6.9,0,0,0,36,58a7.15,7.15,0,0,0,7.14-7.14V48.37a2.71,2.71,0,0,0,.3-2.67l-.07-.16a2.59,2.59,0,0,0,.91-1,2.77,2.77,0,0,0-.13-2.83V39.82l2.08-.42a3.63,3.63,0,0,0,2.24-5.67Z"/><path class="cls-1" d="M63,10H55a1,1,0,0,0-.89,1.45L55.38,14H49a1,1,0,0,0,0,2h8a1,1,0,0,0,.89-1.45L56.62,12H63a1,1,0,0,0,0-2Z"/><path class="cls-1" d="M62.56,22.9l-6.93-4a1,1,0,0,0-1,0,1,1,0,0,0-.52.82L54,22.56l-5.52-3.19a1,1,0,0,0-1.37.36,1,1,0,0,0,.37,1.37l6.93,4a1,1,0,0,0,.5.13,1,1,0,0,0,.47-.12,1,1,0,0,0,.52-.82L56,21.44l5.52,3.19a1,1,0,0,0,1.37-.36A1,1,0,0,0,62.56,22.9Z"/><path class="cls-1" d="M44.94,12.46a1,1,0,0,0,.5-.13l6.93-4a1,1,0,0,0,.05-1.7L50,5.06l5.52-3.19A1,1,0,0,0,55.93.5,1,1,0,0,0,54.56.13l-6.93,4a1,1,0,0,0-.5.84,1,1,0,0,0,.45.86L50,7.41,44.44,10.6a1,1,0,0,0,.5,1.86Z"/></g></svg>