<svg xmlns="http://www.w3.org/2000/svg" viewBox="0 0 64 64"><defs><style>.cls-1{fill:#231f20;}</style></defs><title>Droplet</title><g id="Droplet"><path class="cls-1" d="M32.75.34a1,1,0,0,0-1.5,0c-.87,1-21.25,24.6-21.25,42a22,22,0,0,0,44,0C54,24.94,33.62,1.34,32.75.34ZM32,62A19.86,19.86,0,0,1,12,42.33C12,27.52,28.27,7.05,32,2.55c3.73,4.5,20,25,20,39.78A19.86,19.86,0,0,1,32,62Z"/><path class="cls-1" d="M44,39H42a9.92,9.92,0,0,0-2.21-5.33l.94-.94a1.81,1.81,0,0,0,.51.08,2,2,0,1,0-1.41-3.42,2,2,0,0,0-.51,1.93l-.94.94A9.93,9.93,0,0,0,33,30.06V28a1,1,0,1,0-2,0v2.07a9.93,9.93,0,0,0-5.33,2.2l-.94-.94a2,2,0,1,0-3.34.9,2,2,0,0,0,1.42.59,1.81,1.81,0,0,0,.51-.08l.94.94A9.92,9.92,0,0,0,22.05,39H20a1,1,0,1,0,0,2h2.06a9.92,9.92,0,0,0,2.21,5.33l-.94.94a2,2,0,1,0,1.41,1.41l.94-.94A9.93,9.93,0,0,0,31,49.94V52a1,1,0,0,0,2,0V49.94a9.93,9.93,0,0,0,5.33-2.2l.94.94a2,2,0,1,0,1.41-1.41l-.94-.94A9.92,9.92,0,0,0,42,41H44a1,1,0,0,0,0-2Zm-6.35,5.24a1,1,0,0,0-1.42,1.42l.66.66A8,8,0,0,1,32,48h0a8,8,0,0,1-4.89-1.68l.66-.66a1,1,0,0,0-1.42-1.42l-.66.66A8,8,0,0,1,24,40s0,0,0,0,0,0,0,0a8,8,0,0,1,1.68-4.88l.66.66a1,1,0,0,0,1.42,0,1,1,0,0,0,0-1.42l-.66-.66A8,8,0,0,1,32,32h0a8,8,0,0,1,4.89,1.68l-.66.66a1,1,0,0,0,0,1.42,1,1,0,0,0,1.42,0l.66-.66A8,8,0,0,1,40,40s0,0,0,0,0,0,0,0a8,8,0,0,1-1.68,4.88Z"/><path class="cls-1" d="M29.88,37.88a2,2,0,0,0-2.83,0,2,2,0,1,0,2.83,0Z"/><circle class="cls-1" cx="34.83" cy="37.88" r="1.5"/><path class="cls-1" d="M31.29,43.54a1,1,0,0,0,0,1.41,1,1,0,0,0,1.42,0,1,1,0,0,0,0-1.41A1,1,0,0,0,31.29,43.54Z"/><path class="cls-1" d="M26,54a3,3,0,1,0,3,3A3,3,0,0,0,26,54Zm0,4a1,1,0,1,1,1-1A1,1,0,0,1,26,58Z"/><circle class="cls-1" cx="47" cy="46" r="2"/><path class="cls-1" d="M25,26a4,4,0,1,0-4-4A4,4,0,0,0,25,26Zm0-6a2,2,0,1,1-2,2A2,2,0,0,1,25,20Z"/><circle class="cls-1" cx="39" cy="22" r="2"/></g></svg>