<svg xmlns="http://www.w3.org/2000/svg" viewBox="0 0 64 64"><defs><style>.cls-1{fill:#231f20;}</style></defs><title>Hand Sanitizer</title><g id="Hand_Sanitizer" data-name="Hand Sanitizer"><path class="cls-1" d="M45.68,25.72,39,22.38V17a1,1,0,0,0-1-1H37V13a1,1,0,0,0-1-1H35V9h2a1,1,0,0,0,1-1,2,2,0,0,1,2-2h5a1,1,0,0,0,1-1V2a1,1,0,0,0-.88-1A130.65,130.65,0,0,0,28.94,0H27a1,1,0,0,0-1,1V8a1,1,0,0,0,1,1h2v3H28a1,1,0,0,0-1,1v3H26a1,1,0,0,0-1,1v5.38L17.76,26A5,5,0,0,0,15,30.47V59a5,5,0,0,0,5,5H43a6,6,0,0,0,6-6V31.09A6,6,0,0,0,45.68,25.72ZM28,2h.94A128.66,128.66,0,0,1,44,2.89V4H40a4,4,0,0,0-3.87,3H28Zm3,7h2v3H31Zm-2,5h6v2H29Zm-2,4H37v4H27Zm-8.34,9.79L26.24,24H37.76l7,3.51A4,4,0,0,1,47,31.09V33H17V30.47A3,3,0,0,1,18.66,27.79ZM47,55H17V35H47Zm-4,7H20a3,3,0,0,1-3-3V57H47v1A4,4,0,0,1,43,62Z"/><path class="cls-1" d="M32,53a8,8,0,1,0-8-8A8,8,0,0,0,32,53Zm0-14a6,6,0,1,1-6,6A6,6,0,0,1,32,39Z"/><path class="cls-1" d="M29,46h2v2a1,1,0,0,0,2,0V46h2a1,1,0,0,0,0-2H33V42a1,1,0,0,0-2,0v2H29a1,1,0,0,0,0,2Z"/></g></svg>