<svg xmlns="http://www.w3.org/2000/svg" viewBox="0 0 64 64"><defs><style>.cls-1{fill:#231f20;}</style></defs><title>Hand Infected</title><g id="Hand_Infected" data-name="Hand Infected"><path class="cls-1" d="M56,48H54.93a7.94,7.94,0,0,0-1.62-3.9l1.4-1.39a1,1,0,0,0-1.42-1.42l-1.39,1.4A7.94,7.94,0,0,0,48,41.07V40a1,1,0,0,0-2,0v1.07a7.94,7.94,0,0,0-3.9,1.62l-1.39-1.4a1,1,0,0,0-1.42,1.42l1.4,1.39A7.94,7.94,0,0,0,39.07,48H38a1,1,0,0,0,0,2h1.07a7.94,7.94,0,0,0,1.62,3.9l-1.4,1.39a1,1,0,0,0,0,1.42,1,1,0,0,0,1.42,0l1.39-1.4A7.94,7.94,0,0,0,46,56.93V58a1,1,0,0,0,2,0V56.93a7.94,7.94,0,0,0,3.9-1.62l1.39,1.4a1,1,0,0,0,1.42,0,1,1,0,0,0,0-1.42l-1.4-1.39A7.94,7.94,0,0,0,54.93,50H56a1,1,0,0,0,0-2Zm-3.09,2A6,6,0,0,1,48,54.91a1,1,0,0,0-2,0A6,6,0,0,1,41.09,50a1,1,0,0,0,0-2A6,6,0,0,1,46,43.09a1,1,0,0,0,2,0A6,6,0,0,1,52.91,48a1,1,0,0,0,0,2Z"/><circle class="cls-1" cx="49.5" cy="47.5" r="1.5"/><circle class="cls-1" cx="44" cy="48" r="1"/><circle class="cls-1" cx="47" cy="51" r="1"/><path class="cls-1" d="M47,34a15,15,0,0,0-7,1.75c0-.33,0-.67,0-1V11.6a4.55,4.55,0,0,0-3.57-4.5A4.5,4.5,0,0,0,33,7.76V6.6a4.55,4.55,0,0,0-3.57-4.5A4.47,4.47,0,0,0,25.71,3,4.46,4.46,0,0,0,22.43.1a4.52,4.52,0,0,0-3.77.9,4.62,4.62,0,0,0-1.39,2,4.49,4.49,0,0,0-3.7-.85A4.55,4.55,0,0,0,10,6.6V21.11A7,7,0,0,0,5.05,19a3,3,0,0,0-2.17.88A3,3,0,0,0,2,22V34.78A20,20,0,0,0,8.84,50.52a7,7,0,0,1,2.16,5V63a1,1,0,0,0,2,0V55.57a9,9,0,0,0-2.78-6.5A17.93,17.93,0,0,1,4,34.78V22a1,1,0,0,1,.29-.7A1.12,1.12,0,0,1,5,21a5,5,0,0,1,5,5v8a1,1,0,0,0,.78,1L11,35a10.16,10.16,0,0,1,8,10,1,1,0,0,0,2,0,12.14,12.14,0,0,0-9-11.79V6.6a2.55,2.55,0,0,1,2-2.54A2.5,2.5,0,0,1,17,6.5V28a1,1,0,0,0,2,0V4.5a2.5,2.5,0,0,1,3-2.44A2.55,2.55,0,0,1,24,4.6V28a1,1,0,0,0,2,0V6.5a2.5,2.5,0,0,1,3-2.44A2.55,2.55,0,0,1,31,6.6V28a1,1,0,0,0,2,0V11.5a2.5,2.5,0,0,1,3-2.44,2.55,2.55,0,0,1,2,2.54V34.78c0,.69,0,1.49,0,2.28A15,15,0,0,0,32,49a14.82,14.82,0,0,0,1,5.34V63a1,1,0,0,0,2,0V58A15,15,0,1,0,47,34Zm0,28A13,13,0,1,1,60,49,13,13,0,0,1,47,62Z"/></g></svg>