<svg xmlns="http://www.w3.org/2000/svg" viewBox="0 0 64 64"><defs><style>.cls-1{fill:#231f20;}</style></defs><title>Hospital</title><g id="Hospital"><path class="cls-1" d="M15,9h2v2a1,1,0,0,0,2,0V9h2a1,1,0,0,0,0-2H19V5a1,1,0,0,0-2,0V7H15a1,1,0,0,0,0,2Z"/><path class="cls-1" d="M49,32H48V29a1,1,0,0,0-1-1H36V10a1,1,0,0,0-1-1H33V6a1,1,0,0,0-1-1H26V1a1,1,0,0,0-1-1H11a1,1,0,0,0-1,1V5H4A1,1,0,0,0,3,6V9H1a1,1,0,0,0-1,1V63a1,1,0,0,0,1,1H49a1,1,0,0,0,1-1V33A1,1,0,0,0,49,32Zm-3-2v2H36V30ZM36,39h7v2H36Zm0,8h7v2H36Zm0,8h7v2H36ZM31,7V9H26V7ZM12,2H24V14H12V2ZM5,7h5V9H5ZM2,11h8v4a1,1,0,0,0,1,1H25a1,1,0,0,0,1-1V11h8V62H28V51a1,1,0,0,0-1-1H9a1,1,0,0,0-1,1V62H2Zm8,41h7V62H10Zm9,10V52h7V62Zm29,0H36V59h8a1,1,0,0,0,1-1V54a1,1,0,0,0-1-1H36V51h8a1,1,0,0,0,1-1V46a1,1,0,0,0-1-1H36V43h8a1,1,0,0,0,1-1V38a1,1,0,0,0-1-1H36V34H48Z"/><path class="cls-1" d="M15,27h6a1,1,0,0,0,1-1V20a1,1,0,0,0-1-1H15a1,1,0,0,0-1,1v6A1,1,0,0,0,15,27Zm1-6h4v4H16Z"/><path class="cls-1" d="M25,27h6a1,1,0,0,0,1-1V20a1,1,0,0,0-1-1H25a1,1,0,0,0-1,1v6A1,1,0,0,0,25,27Zm1-6h4v4H26Z"/><path class="cls-1" d="M5,27h6a1,1,0,0,0,1-1V20a1,1,0,0,0-1-1H5a1,1,0,0,0-1,1v6A1,1,0,0,0,5,27Zm1-6h4v4H6Z"/><path class="cls-1" d="M15,37h6a1,1,0,0,0,1-1V30a1,1,0,0,0-1-1H15a1,1,0,0,0-1,1v6A1,1,0,0,0,15,37Zm1-6h4v4H16Z"/><path class="cls-1" d="M25,37h6a1,1,0,0,0,1-1V30a1,1,0,0,0-1-1H25a1,1,0,0,0-1,1v6A1,1,0,0,0,25,37Zm1-6h4v4H26Z"/><path class="cls-1" d="M5,37h6a1,1,0,0,0,1-1V30a1,1,0,0,0-1-1H5a1,1,0,0,0-1,1v6A1,1,0,0,0,5,37Zm1-6h4v4H6Z"/><path class="cls-1" d="M15,47h6a1,1,0,0,0,1-1V40a1,1,0,0,0-1-1H15a1,1,0,0,0-1,1v6A1,1,0,0,0,15,47Zm1-6h4v4H16Z"/><path class="cls-1" d="M25,47h6a1,1,0,0,0,1-1V40a1,1,0,0,0-1-1H25a1,1,0,0,0-1,1v6A1,1,0,0,0,25,47Zm1-6h4v4H26Z"/><path class="cls-1" d="M11,47a1,1,0,0,0,1-1V40a1,1,0,0,0-1-1H5a1,1,0,0,0-1,1v6a1,1,0,0,0,1,1ZM6,41h4v4H6Z"/><path class="cls-1" d="M63,12H61a9.85,9.85,0,0,0-2.21-5.33l.94-.94a2.24,2.24,0,0,0,.51.07A2,2,0,0,0,61.61,2.4h0a2,2,0,0,0-2.83,0,2,2,0,0,0-.59,1.41,1.82,1.82,0,0,0,.08.52l-.94.93A10,10,0,0,0,52,3.06V1a1,1,0,0,0-2,0V3.06a10,10,0,0,0-5.33,2.2l-.94-.93a1.82,1.82,0,0,0,.08-.52,2,2,0,0,0-.59-1.41h0a2,2,0,1,0-1.41,3.41,2.24,2.24,0,0,0,.51-.07l.94.94A9.85,9.85,0,0,0,41.05,12H39a1,1,0,0,0,0,2h2.06a9.92,9.92,0,0,0,2.21,5.33l-.94.93a2,2,0,1,0-.51,3.93,2,2,0,0,0,1.41-.59,2,2,0,0,0,.59-1.41,1.7,1.7,0,0,0-.08-.51l.94-.94A9.93,9.93,0,0,0,50,23V25a1,1,0,1,0,2,0V23a9.93,9.93,0,0,0,5.33-2.2l.94.94a1.7,1.7,0,0,0-.08.51,2,2,0,0,0,.59,1.41,2,2,0,0,0,1.41.59,2,2,0,0,0,2-2,2,2,0,0,0-.58-1.41h0a2,2,0,0,0-1.93-.51l-.94-.93A9.92,9.92,0,0,0,61,14H63a1,1,0,1,0,0-2Zm-6.35,5.24a1,1,0,0,0-1.42,0,1,1,0,0,0,0,1.41l.66.66A7.92,7.92,0,0,1,51,21h0a7.92,7.92,0,0,1-4.89-1.68l.66-.66a1,1,0,0,0,0-1.41,1,1,0,0,0-1.42,0l-.65.66A7.94,7.94,0,0,1,43,13v0a8,8,0,0,1,1.68-4.88l.66.65a1,1,0,0,0,1.42-1.41l-.66-.66A8,8,0,0,1,51,5h0A8,8,0,0,1,55.9,6.69l-.66.66a1,1,0,1,0,1.42,1.41l.66-.65A8,8,0,0,1,59,13v0a7.94,7.94,0,0,1-1.69,4.88Z"/><path class="cls-1" d="M46.05,10.89a2,2,0,1,0,2.83,0A2,2,0,0,0,46.05,10.89Z"/><circle class="cls-1" cx="53.83" cy="10.89" r="1.5"/><circle class="cls-1" cx="51" cy="17.25" r="1"/></g></svg>