<svg xmlns="http://www.w3.org/2000/svg" viewBox="0 0 64 64"><defs><style>.cls-1{fill:#231f20;}</style></defs><title>Infected Crowd</title><g id="Infected_Crowd" data-name="Infected Crowd"><path class="cls-1" d="M20,14h2.07a9.93,9.93,0,0,0,2.2,5.32l-.94.94a2,2,0,1,0,1.41,1.42l.94-.94A9.93,9.93,0,0,0,31,23V25a1,1,0,1,0,2,0V23a9.93,9.93,0,0,0,5.33-2.2l.94.94a2,2,0,0,0,1.92,2.51,2,2,0,0,0,1.42-.59,2,2,0,0,0-1.93-3.34l-.94-.94A9.93,9.93,0,0,0,41.94,14H44a1,1,0,0,0,0-2H41.94a9.93,9.93,0,0,0-2.2-5.33l.94-.94a2.24,2.24,0,0,0,.51.07,2,2,0,1,0-1.92-1.48l-.94.93A10,10,0,0,0,33,3.06V1a1,1,0,0,0-2,0V3.06a10,10,0,0,0-5.33,2.2l-.94-.93a2,2,0,1,0-1.92,1.48,2.24,2.24,0,0,0,.51-.07l.94.94A9.93,9.93,0,0,0,22.06,12H20a1,1,0,0,0,0,2Zm6.35-5.25a1,1,0,1,0,1.42-1.41l-.66-.66A8,8,0,0,1,32,5h0A8,8,0,0,1,36.9,6.69l-.66.66a1,1,0,1,0,1.42,1.41l.66-.65A8,8,0,0,1,40,13h0a8.07,8.07,0,0,1-1.68,4.89l-.66-.66a1,1,0,0,0-1.42,0,1,1,0,0,0,0,1.41l.66.66A7.92,7.92,0,0,1,32,21h0a7.92,7.92,0,0,1-4.89-1.68l.66-.66a1,1,0,0,0,0-1.41,1,1,0,0,0-1.42,0l-.66.66A8.07,8.07,0,0,1,24,13h0a8,8,0,0,1,1.68-4.89Z"/><path class="cls-1" d="M28.46,14.3h0a2,2,0,1,0,0-4h0a2,2,0,0,0,0,4Z"/><circle class="cls-1" cx="34.83" cy="10.89" r="1.5"/><path class="cls-1" d="M32.71,18a1,1,0,1,0-1.42,0A1,1,0,0,0,32.71,18Z"/><path class="cls-1" d="M63,62h-.19A2.87,2.87,0,0,0,63,61V49a7,7,0,0,0-6.56-7A6,6,0,0,0,58,38V35a6,6,0,0,0-12,0v3a6,6,0,0,0,1.56,4A7,7,0,0,0,42,45.4,7,7,0,0,0,36.44,42,6,6,0,0,0,38,38V35a6,6,0,1,0-12,0v3a6,6,0,0,0,1.56,4A7,7,0,0,0,22,45.4,7,7,0,0,0,16.44,42,6,6,0,0,0,18,38V35A6,6,0,0,0,6,35v3a6,6,0,0,0,1.56,4A7,7,0,0,0,1,49V61a2.87,2.87,0,0,0,.19,1H1a1,1,0,0,0,0,2H63a1,1,0,0,0,0-2ZM48,35a4,4,0,1,1,8,0v3a4,4,0,1,1-8,0Zm0,9h8a5,5,0,0,1,5,5V61a1,1,0,0,1-1,1,1,1,0,0,1-.38-.08l-.08,0A1,1,0,0,1,59,61V48a1,1,0,0,0-2,0V62H47V48a1,1,0,0,0-2,0V61a1,1,0,0,1-.54.88l-.08,0A1,1,0,0,1,44,62a1,1,0,0,1-1-1V49A5,5,0,0,1,48,44ZM28,35a4,4,0,1,1,8,0v3a4,4,0,1,1-8,0Zm0,9h8a5,5,0,0,1,5,5V61a1,1,0,0,1-1,1,1,1,0,0,1-.38-.08l-.08,0A1,1,0,0,1,39,61V48a1,1,0,0,0-2,0V62H27V48a1,1,0,0,0-2,0V61a1,1,0,0,1-.54.88l-.08,0A1,1,0,0,1,24,62a1,1,0,0,1-1-1V49A5,5,0,0,1,28,44ZM8,35a4,4,0,1,1,8,0v3a4,4,0,0,1-8,0ZM7,61V48a1,1,0,0,0-2,0V61a1,1,0,0,1-.54.88l-.08,0A1,1,0,0,1,4,62a1,1,0,0,1-1-1V49a5,5,0,0,1,5-5h8a5,5,0,0,1,5,5V61a1,1,0,0,1-1,1,1,1,0,0,1-.38-.08l-.08,0A1,1,0,0,1,19,61V48a1,1,0,0,0-2,0V62H7Z"/></g></svg>