<svg xmlns="http://www.w3.org/2000/svg" viewBox="0 0 64 64"><defs><style>.cls-1{fill:#231f20;}</style></defs><title>Lockdown Area</title><g id="Lockdown_Area" data-name="Lockdown Area"><path class="cls-1" d="M60,29a1,1,0,0,0-.07-.33.2.2,0,0,0,0-.08.42.42,0,0,0,0-.1,1.58,1.58,0,0,0-.12-.15l0,0a1.07,1.07,0,0,0-.28-.19l-.08,0A.94.94,0,0,0,59,28H53V26.82a3,3,0,1,0-2,0V28H13V26.82a3,3,0,1,0-2,0V28H5a1,1,0,0,0-1,1V41a1.3,1.3,0,0,0,.07.33.3.3,0,0,0,0,.08.42.42,0,0,0,0,.1,1.58,1.58,0,0,0,.12.15l0,0a1.07,1.07,0,0,0,.28.19l.07,0A1,1,0,0,0,5,42H9V63a1,1,0,0,0,1,1h4a1,1,0,0,0,1-1V53H49V63a1,1,0,0,0,1,1h4a1,1,0,0,0,1-1V42h4a1,1,0,0,0,1-1V29Zm-8-6a1,1,0,1,1-1,1A1,1,0,0,1,52,23ZM12,23a1,1,0,1,1-1,1A1,1,0,0,1,12,23Zm45.38,7-5,10H48.62l5-10ZM49,47H15V42H49ZM23.38,30l-5,10H12.62l5-10Zm14,0-5,10H26.62l5-10Zm14,0-5,10H40.62l5-10Zm-8,0-5,10H34.62l5-10Zm-14,0-5,10H20.62l5-10Zm-20,0L6,36.76V30Zm2.24,0h3.76l-5,10H6.62ZM13,62H11V42h2V62Zm2-11V49H49v2ZM53,62H51V42h2Zm1.62-22L58,33.24V40Z"/><path class="cls-1" d="M20,14h2.06a9.92,9.92,0,0,0,2.21,5.33l-.94.93a2,2,0,1,0,1.41,1.42l.94-.94A9.93,9.93,0,0,0,31,23V25a1,1,0,1,0,2,0V23a9.93,9.93,0,0,0,5.33-2.2l.94.94a2,2,0,0,0,1.92,2.51,2,2,0,0,0,1.42-.59,2,2,0,0,0-1.93-3.34l-.94-.94A9.93,9.93,0,0,0,41.94,14H44a1,1,0,0,0,0-2H41.94a9.93,9.93,0,0,0-2.2-5.33l.94-.94a2.24,2.24,0,0,0,.51.07,2,2,0,1,0-1.92-1.48l-.94.93A10,10,0,0,0,33,3.06V1a1,1,0,0,0-2,0V3.06a10,10,0,0,0-5.33,2.2l-.94-.94a2,2,0,0,0-.51-1.92,2,2,0,1,0-1.41,3.41,2.24,2.24,0,0,0,.51-.07l.94.94A9.85,9.85,0,0,0,22.05,12H20a1,1,0,0,0,0,2Zm6.35-5.25a1,1,0,1,0,1.42-1.41l-.66-.66A8,8,0,0,1,32,5h0A8,8,0,0,1,36.9,6.69l-.66.66a1,1,0,1,0,1.42,1.41l.66-.65A8,8,0,0,1,40,13h0a8.07,8.07,0,0,1-1.68,4.89l-.66-.66a1,1,0,0,0-1.42,0,1,1,0,0,0,0,1.41l.66.66A7.92,7.92,0,0,1,32,21h0a7.92,7.92,0,0,1-4.89-1.68l.66-.66a1,1,0,0,0,0-1.41,1,1,0,0,0-1.42,0l-.66.66A8,8,0,0,1,24,13v0a8,8,0,0,1,1.68-4.88Z"/><path class="cls-1" d="M28.46,14.3a2,2,0,0,0,1.42-3.41h0a2,2,0,0,0-2.83,0,2,2,0,0,0,1.41,3.41Z"/><circle class="cls-1" cx="34.83" cy="10.89" r="1.5"/><circle class="cls-1" cx="32" cy="17.25" r="1"/></g></svg>