<svg xmlns="http://www.w3.org/2000/svg" viewBox="0 0 64 64"><defs><style>.cls-1{fill:#231f20;}</style></defs><title>Lung Infected</title><g id="Lung_Infected" data-name="Lung Infected"><path class="cls-1" d="M51,14.38A8.88,8.88,0,0,0,44.86,12,6.9,6.9,0,0,0,38,18.89V21.5l-2-1.16V1a1,1,0,0,0-2,0v.68A5.3,5.3,0,0,1,32,2a5.3,5.3,0,0,1-2-.32V1a1,1,0,0,0-2,0V20.32l-2,1.16V18.89A6.88,6.88,0,0,0,19.09,12,8.84,8.84,0,0,0,13,14.38a41.26,41.26,0,0,0-13,30V56.93A7.07,7.07,0,0,0,7.07,64a6.81,6.81,0,0,0,2.15-.34L20,59.83a9,9,0,0,0,6-8.48V28.72l6-3.46,6,3.47V51.35a9,9,0,0,0,6,8.48L54.8,63.67a6.88,6.88,0,0,0,2.13.33A7.07,7.07,0,0,0,64,56.93V44.41A41.26,41.26,0,0,0,51,14.38Zm-17-2.7A5.3,5.3,0,0,1,32,12a5.3,5.3,0,0,1-2-.32V8.78a9.2,9.2,0,0,0,4,0Zm-4,2.1a9.2,9.2,0,0,0,4,0v2.9A5.3,5.3,0,0,1,32,17a5.3,5.3,0,0,1-2-.32ZM32,4a8.7,8.7,0,0,0,2-.22v2.9A5.3,5.3,0,0,1,32,7a5.3,5.3,0,0,1-2-.32V3.78A8.7,8.7,0,0,0,32,4ZM62,56.93A5.09,5.09,0,0,1,56.93,62a4.94,4.94,0,0,1-1.48-.22L44.65,58A7,7,0,0,1,40,51.35V29.88l2.5,1.45a1,1,0,1,0,1-1.74l-11-6.35a1,1,0,0,0-1,0l-11,6.34a1,1,0,0,0,1,1.74L24,29.87V51.35A7,7,0,0,1,19.34,58L8.58,61.77A5,5,0,0,1,7.07,62,5.09,5.09,0,0,1,2,56.93V44.41A39.28,39.28,0,0,1,14.4,15.84,6.9,6.9,0,0,1,19.12,14,4.88,4.88,0,0,1,24,18.89v3.74l-3.5,2a1,1,0,0,0,1,1.74l8-4.62a1,1,0,0,0,.5-.87V18.78a9.2,9.2,0,0,0,4,0v2.14a1,1,0,0,0,.5.87l8,4.62a1,1,0,1,0,1-1.74l-3.5-2V18.89A4.9,4.9,0,0,1,44.91,14a6.88,6.88,0,0,1,4.69,1.85A39.28,39.28,0,0,1,62,44.41Z"/><path class="cls-1" d="M55.75,44.83A5,5,0,0,0,54,44.1V43a1,1,0,0,0-2,0v1.1a5,5,0,0,0-1.75.73l-.79-.78a1,1,0,1,0-1.41,1.41l.78.79A5,5,0,0,0,48.1,48H47a1,1,0,0,0,0,2h1.1a5,5,0,0,0,.73,1.75l-.78.79a1,1,0,0,0,0,1.41,1,1,0,0,0,.71.29,1,1,0,0,0,.7-.29l.79-.78A5,5,0,0,0,52,53.9V55a1,1,0,0,0,2,0V53.9a5,5,0,0,0,1.75-.73l.79.78a1,1,0,0,0,.7.29A1,1,0,0,0,58,54a1,1,0,0,0,0-1.41l-.78-.79A5,5,0,0,0,57.9,50H59a1,1,0,0,0,0-2H57.9a5,5,0,0,0-.73-1.75l.78-.79a1,1,0,1,0-1.41-1.41Zm-1.34,5.58a1,1,0,0,0-.09,1.27,2.88,2.88,0,0,1-2.64,0,1,1,0,0,0-1.36-1.36,2.88,2.88,0,0,1,0-2.64,1,1,0,0,0,.56.2,1,1,0,0,0,.71-.29,1,1,0,0,0,.09-1.27,2.88,2.88,0,0,1,2.64,0,1,1,0,0,0,.09,1.27,1,1,0,0,0,.71.29,1,1,0,0,0,.56-.2,2.88,2.88,0,0,1,0,2.64A1,1,0,0,0,54.41,50.41Z"/><path class="cls-1" d="M14.75,41.17l.79.78a1,1,0,0,0,.7.29A1,1,0,0,0,17,42a1,1,0,0,0,0-1.41l-.78-.79A5,5,0,0,0,16.9,38H18a1,1,0,0,0,0-2H16.9a5,5,0,0,0-.73-1.75l.78-.79a1,1,0,1,0-1.41-1.41l-.79.78A5,5,0,0,0,13,32.1V31a1,1,0,0,0-2,0v1.1a5,5,0,0,0-1.75.73l-.79-.78a1,1,0,1,0-1.41,1.41l.78.79A5,5,0,0,0,7.1,36H6a1,1,0,0,0,0,2H7.1a5,5,0,0,0,.73,1.75l-.78.79a1,1,0,0,0,0,1.41,1,1,0,0,0,.71.29,1,1,0,0,0,.7-.29l.79-.78A5,5,0,0,0,11,41.9V43a1,1,0,0,0,2,0V41.9A5,5,0,0,0,14.75,41.17Zm-4.07-1.49a1,1,0,0,0-1.36-1.36,2.88,2.88,0,0,1,0-2.64,1,1,0,0,0,.56.2,1,1,0,0,0,.71-.29,1,1,0,0,0,.09-1.27,2.88,2.88,0,0,1,2.64,0,1,1,0,0,0,.09,1.27,1,1,0,0,0,.71.29,1,1,0,0,0,.56-.2,2.88,2.88,0,0,1,0,2.64,1,1,0,0,0-1.36,1.36,2.88,2.88,0,0,1-2.64,0Z"/><path class="cls-1" d="M17.5,47A3.5,3.5,0,1,0,21,50.5,3.5,3.5,0,0,0,17.5,47Zm0,5A1.5,1.5,0,1,1,19,50.5,1.5,1.5,0,0,1,17.5,52Z"/><path class="cls-1" d="M50,35.5A3.5,3.5,0,1,0,53.5,32,3.5,3.5,0,0,0,50,35.5ZM53.5,34A1.5,1.5,0,1,1,52,35.5,1.5,1.5,0,0,1,53.5,34Z"/><circle class="cls-1" cx="45" cy="40" r="2"/><circle class="cls-1" cx="50" cy="23" r="2"/><circle class="cls-1" cx="8" cy="52" r="2"/><circle class="cls-1" cx="15" cy="24" r="2"/></g></svg>