<svg xmlns="http://www.w3.org/2000/svg" viewBox="0 0 64 64"><defs><style>.cls-1{fill:#231f20;}</style></defs><title>Medicine</title><g id="Medicine"><path class="cls-1" d="M17,11a1,1,0,0,0,1-1V4a1,1,0,0,0-2,0v6A1,1,0,0,0,17,11Z"/><path class="cls-1" d="M21,11a1,1,0,0,0,1-1V4a1,1,0,0,0-2,0v6A1,1,0,0,0,21,11Z"/><path class="cls-1" d="M25,11a1,1,0,0,0,1-1V4a1,1,0,0,0-2,0v6A1,1,0,0,0,25,11Z"/><path class="cls-1" d="M13,11a1,1,0,0,0,1-1V4a1,1,0,0,0-2,0v6A1,1,0,0,0,13,11Z"/><path class="cls-1" d="M19,35a8,8,0,1,0,8,8A8,8,0,0,0,19,35Zm0,14a6,6,0,1,1,6-6A6,6,0,0,1,19,49Z"/><path class="cls-1" d="M22,42H20V40a1,1,0,0,0-2,0v2H16a1,1,0,0,0,0,2h2v2a1,1,0,0,0,2,0V44h2a1,1,0,0,0,0-2Z"/><path class="cls-1" d="M54.76,46a5.31,5.31,0,0,0-3.71,1.53l-4.26,4.26A8,8,0,0,0,40,48a8.24,8.24,0,0,0-2,.26v-21A5,5,0,0,0,35.57,23L28,18.43V14h1a1,1,0,0,0,1-1V1a1,1,0,0,0-1-1H9A1,1,0,0,0,8,1V13a1,1,0,0,0,1,1h1v4.43L2.42,23A5,5,0,0,0,0,27.26V59a5,5,0,0,0,5,5H33a5.07,5.07,0,0,0,3-1,7.94,7.94,0,0,0,8-.05A5.25,5.25,0,0,0,51,62.47L58.47,55A5.31,5.31,0,0,0,60,51.24,5.24,5.24,0,0,0,54.76,46ZM32.59,53H2V33H36V49.08A8.06,8.06,0,0,0,32.59,53ZM10,2H28V12H10ZM3.45,24.69l8.06-4.83A1,1,0,0,0,12,19V14H26v5a1,1,0,0,0,.49.86l8.05,4.82A3.05,3.05,0,0,1,36,27.26V31H2V27.26A3,3,0,0,1,3.45,24.69ZM33,62H5a3,3,0,0,1-3-3V55H32.07A8.26,8.26,0,0,0,32,56a7.93,7.93,0,0,0,2.36,5.66A2.92,2.92,0,0,1,33,62Zm1-6a6,6,0,1,1,6,6A6,6,0,0,1,34,56Zm15.53,5a3.19,3.19,0,0,1-3.82.55,8,8,0,0,0,2-7.86l.33-.33L52.59,58Zm7.52-7.52-3,3.06L49.41,52l3.06-3a3.35,3.35,0,0,1,4.58,0,3.25,3.25,0,0,1,0,4.59Z"/><path class="cls-1" d="M42.29,52.29l-6,6a1,1,0,0,0,0,1.42,1,1,0,0,0,1.42,0l6-6a1,1,0,0,0-1.42-1.42Z"/><path class="cls-1" d="M63,12H60.94a9.93,9.93,0,0,0-2.2-5.33l.94-.94a2.24,2.24,0,0,0,.51.07,2,2,0,1,0-1.92-1.48l-.94.93A10,10,0,0,0,52,3.06V1a1,1,0,0,0-2,0V3.06a10,10,0,0,0-5.33,2.2l-.94-.93a2,2,0,1,0-1.92,1.48,2.24,2.24,0,0,0,.51-.07l.94.94A9.93,9.93,0,0,0,41.06,12H39a1,1,0,0,0,0,2h2.07a9.93,9.93,0,0,0,2.2,5.32l-.94.94a2,2,0,1,0,1.41,1.42l.94-.94A9.93,9.93,0,0,0,50,23V25a1,1,0,1,0,2,0V23a9.93,9.93,0,0,0,5.33-2.2l.94.94a2,2,0,0,0,1.92,2.51,2,2,0,0,0,1.42-.59,2,2,0,0,0-1.93-3.34l-.94-.94A9.93,9.93,0,0,0,60.94,14H63a1,1,0,1,0,0-2Zm-6.35,5.24a1,1,0,0,0-1.42,0,1,1,0,0,0,0,1.41l.66.66A7.92,7.92,0,0,1,51,21h0a7.92,7.92,0,0,1-4.89-1.68l.66-.66a1,1,0,0,0,0-1.41,1,1,0,0,0-1.42,0l-.66.66A8.07,8.07,0,0,1,43,13h0a8,8,0,0,1,1.68-4.89l.66.65a1,1,0,0,0,1.42-1.41l-.66-.66A8,8,0,0,1,51,5h0A8,8,0,0,1,55.9,6.69l-.66.66a1,1,0,1,0,1.42,1.41l.66-.65A8,8,0,0,1,59,13h0a8.07,8.07,0,0,1-1.68,4.89Z"/><path class="cls-1" d="M47.46,10.3h0a2,2,0,0,0,0,4h0a2,2,0,1,0,0-4Z"/><circle class="cls-1" cx="53.83" cy="10.89" r="1.5"/><path class="cls-1" d="M50.29,16.54a1,1,0,1,0,1.42,0A1,1,0,0,0,50.29,16.54Z"/></g></svg>