<svg xmlns="http://www.w3.org/2000/svg" viewBox="0 0 64 64"><defs><style>.cls-1{fill:#231f20;}</style></defs><title>Microscope</title><g id="Microscope"><path class="cls-1" d="M43,56H29a3,3,0,0,1-3-3V52H45a1,1,0,0,0,1-1V47a1,1,0,0,0-1-1H26V45a1,1,0,0,0-1-1H16a1,1,0,0,0-.86.5l-1,1.62A10,10,0,0,1,14,30a6,6,0,0,0,3.74-1.33l3,3a1,1,0,0,0,1.42,0l.79-.8,2.29,2.3a1,1,0,0,0,1.42,0l.79-.8,2.29,2.3a1,1,0,0,0,1.42,0l4-4a1,1,0,0,0,0-1.42L32.91,27l.8-.79a1,1,0,0,0,0-1.42l-2.3-2.29.8-.79a1,1,0,0,0,0-1.42L17.71,5.79a1,1,0,0,0-1.42,0L16,6.13a4.84,4.84,0,0,0-4.64-.72L7.37,1.46A1,1,0,0,0,7.21.29a1,1,0,0,0-1.42,0l-.5.5L.79,5.29l-.5.5a1,1,0,0,0,0,1.42A1,1,0,0,0,1,7.5a1,1,0,0,0,.46-.13l4.22,4.22a4.86,4.86,0,0,0,1,3.87l-.34.33a1,1,0,0,0,0,1.42l3,3a5.91,5.91,0,0,0-.86,1.43,20,20,0,0,0,.67,33.11l-1,1.72A1,1,0,0,0,8,57v6a1,1,0,0,0,1,1H47a1,1,0,0,0,1-1V61A5,5,0,0,0,43,56Zm1-8v2H26V48ZM14,20a4,4,0,1,1-4,4A4,4,0,0,1,14,20ZM33.09,30,30.5,32.59,28.91,31l2.59-2.59Zm-1.5-4.5-.8.79-4,4-.79.8L24.41,29.5,30,23.91ZM6.5,9.59,2.91,6,6,2.91,9.59,6.5h0L7,9.08Zm1.92.9L11,7.92a2.85,2.85,0,0,1,3.55-.38L8,14A2.85,2.85,0,0,1,8.42,10.49Zm.29,5.72,8-8,.29-.3L30.09,21l-.8.79-7,7-.79.8-2.42-2.42A5.94,5.94,0,0,0,20,24a6,6,0,0,0-6-6,5.94,5.94,0,0,0-3.17.92L8.41,16.5ZM2,38A18,18,0,0,1,8,24.56a6,6,0,0,0,3.55,4.92,11.94,11.94,0,0,0,1.6,18.37l-3,5.2A18,18,0,0,1,2,38ZM46,62H10V57.27l5.38-9.22h0l1.18-2H24v7a5,5,0,0,0,5,5H43a3,3,0,0,1,3,3Z"/><circle class="cls-1" cx="14" cy="24" r="2"/><path class="cls-1" d="M63,12H61a9.85,9.85,0,0,0-2.21-5.33l.94-.94a2.24,2.24,0,0,0,.51.07A2,2,0,0,0,61.61,2.4h0a2,2,0,0,0-2.83,0,2,2,0,0,0-.59,1.41,1.82,1.82,0,0,0,.08.52l-.94.93A10,10,0,0,0,52,3.06V1a1,1,0,0,0-2,0V3.06a10,10,0,0,0-5.33,2.2l-.94-.93a1.82,1.82,0,0,0,.08-.52,2,2,0,0,0-.59-1.41h0a2,2,0,1,0-1.41,3.41,2.24,2.24,0,0,0,.51-.07l.94.94A9.85,9.85,0,0,0,41.05,12H39a1,1,0,0,0,0,2h2.06a9.92,9.92,0,0,0,2.21,5.33l-.94.93a2,2,0,1,0-.51,3.93,2,2,0,0,0,1.41-.59,2,2,0,0,0,.59-1.41,1.7,1.7,0,0,0-.08-.51l.94-.94A9.93,9.93,0,0,0,50,23V25a1,1,0,1,0,2,0V23a9.93,9.93,0,0,0,5.33-2.2l.94.94a1.7,1.7,0,0,0-.08.51,2,2,0,0,0,.59,1.41,2,2,0,0,0,1.41.59,2,2,0,0,0,2-2,2,2,0,0,0-.58-1.41h0a2,2,0,0,0-1.93-.51l-.94-.93A9.92,9.92,0,0,0,61,14H63a1,1,0,1,0,0-2Zm-6.35,5.24a1,1,0,0,0-1.42,0,1,1,0,0,0,0,1.41l.66.66A7.92,7.92,0,0,1,51,21h0a7.92,7.92,0,0,1-4.89-1.68l.66-.66a1,1,0,0,0,0-1.41,1,1,0,0,0-1.42,0l-.65.66A7.94,7.94,0,0,1,43,13v0a8,8,0,0,1,1.68-4.88l.66.65a1,1,0,0,0,1.42-1.41l-.66-.66A8,8,0,0,1,51,5h0A8,8,0,0,1,55.9,6.69l-.66.66a1,1,0,1,0,1.42,1.41l.66-.65A8,8,0,0,1,59,13v0a7.94,7.94,0,0,1-1.69,4.88Z"/><path class="cls-1" d="M46.05,10.89a2,2,0,1,0,2.83,0A2,2,0,0,0,46.05,10.89Z"/><circle class="cls-1" cx="53.83" cy="10.89" r="1.5"/><path class="cls-1" d="M50.29,16.54a1,1,0,1,0,1.42,0A1,1,0,0,0,50.29,16.54Z"/></g></svg>