<svg xmlns="http://www.w3.org/2000/svg" viewBox="0 0 64 64"><defs><style>.cls-1{fill:#231f20;}</style></defs><title>Mutation</title><g id="Mutation"><path class="cls-1" d="M63,31H60.94a9.93,9.93,0,0,0-2.2-5.33l.94-.94a1.81,1.81,0,0,0,.51.08,2,2,0,1,0-1.41-3.42,2,2,0,0,0-.51,1.93l-.94.94A9.93,9.93,0,0,0,52,22.06V20a1,1,0,1,0-2,0v2.07a9.93,9.93,0,0,0-5.33,2.2l-.94-.94a2,2,0,1,0-3.34.9,2,2,0,0,0,1.42.59,1.81,1.81,0,0,0,.51-.08l.94.94A9.93,9.93,0,0,0,41.06,31H39a1,1,0,0,0,0,2h2.07a9.93,9.93,0,0,0,2.2,5.33l-.94.94a2,2,0,1,0,1.41,1.41l.94-.94A9.93,9.93,0,0,0,50,41.94V44a1,1,0,0,0,2,0V41.94a9.93,9.93,0,0,0,5.33-2.2l.94.94a2,2,0,1,0,1.41-1.41l-.94-.94A9.93,9.93,0,0,0,60.94,33H63a1,1,0,0,0,0-2Zm-6.35,5.24a1,1,0,0,0-1.42,1.42l.66.66A8,8,0,0,1,51,40h0a8,8,0,0,1-4.89-1.68l.66-.66a1,1,0,0,0-1.42-1.42l-.66.66A8,8,0,0,1,43,32h0a8,8,0,0,1,1.68-4.89l.66.66a1,1,0,0,0,1.42,0,1,1,0,0,0,0-1.42l-.66-.66A8,8,0,0,1,51,24h0a8,8,0,0,1,4.89,1.68l-.66.66a1,1,0,0,0,0,1.42,1,1,0,0,0,1.42,0l.66-.66A8,8,0,0,1,59,32h0a8,8,0,0,1-1.68,4.89Z"/><path class="cls-1" d="M47.46,29.29h0a2,2,0,0,0-1.41.59,2,2,0,0,0,1.41,3.41h0a2,2,0,0,0,1.42-3.41A2,2,0,0,0,47.46,29.29Z"/><circle class="cls-1" cx="53.83" cy="29.88" r="1.5"/><path class="cls-1" d="M50.29,35.54a1,1,0,0,0,0,1.41,1,1,0,0,0,1.42,0,1,1,0,0,0,0-1.41A1,1,0,0,0,50.29,35.54Z"/><path class="cls-1" d="M36,1a1,1,0,0,0-1-1H31a1,1,0,0,0-1,1V2H14.82A3,3,0,0,0,9.18,2H6V1A1,1,0,0,0,5,0H1A1,1,0,0,0,0,1C0,13.72,1,24.94,11.66,32,.93,39.17,0,50.75,0,63a1,1,0,0,0,1,1H5a1,1,0,0,0,1-1V62h9.18a3,3,0,0,0,5.64,0H30v1a1,1,0,0,0,1,1h4a1,1,0,0,0,1-1c0-12.72-1-23.94-11.66-31C35.07,24.83,36,13.25,36,1ZM18,28.7A18.63,18.63,0,0,1,8.74,20h6.44a3,3,0,0,0,5.64,0h6.37A18.68,18.68,0,0,1,18,28.7ZM17,19a1,1,0,1,1,1,1A1,1,0,0,1,17,19Zm11.05-1H20.82a3,3,0,0,0-5.64,0H7.9a28.64,28.64,0,0,1-1.38-6H21.18a3,3,0,0,0,5.64,0h2.64A28.94,28.94,0,0,1,28.05,18ZM23,11a1,1,0,1,1,1,1A1,1,0,0,1,23,11ZM12,2a1,1,0,1,1-1,1A1,1,0,0,1,12,2ZM9.18,4a3,3,0,0,0,5.64,0H30c0,2.1-.12,4.1-.29,6H26.82a3,3,0,0,0-5.64,0H6.3C6.13,8.11,6.05,6.11,6,4ZM2,62c0-12,1.17-22.44,11.57-28.84.68.38,1.38.74,2.13,1.09A19.92,19.92,0,0,0,6.41,44.48a1,1,0,0,0-.13.3A32.78,32.78,0,0,0,4.41,53v0h0C4.14,55.52,4,58.19,4,61v0s0,0,0,0c0,.33,0,.65,0,1ZM26.82,52a3,3,0,0,0-5.64,0H6.54A28.94,28.94,0,0,1,8,46h3.23a3,3,0,0,0,5.64,0H28.1a28.64,28.64,0,0,1,1.38,6ZM25,53a1,1,0,1,1-1-1A1,1,0,0,1,25,53ZM13,45a1,1,0,1,1,1,1A1,1,0,0,1,13,45Zm3.82-1a3,3,0,0,0-5.64,0H8.81A18.68,18.68,0,0,1,18,35.3,18.63,18.63,0,0,1,27.26,44ZM18,62a1,1,0,1,1,1-1A1,1,0,0,1,18,62Zm2.82-2a3,3,0,0,0-5.64,0H6c0-2.1.12-4.1.29-6H21.18a3,3,0,0,0,5.64,0H29.7c.17,1.89.25,3.89.28,6ZM34,62H32c0-.33,0-.65,0-1,0,0,0,0,0,0s0,0,0,0c-.12-13-1.67-22.61-14.38-28.06C3.52,26.88,2.06,15.38,2,2H4c0,.33,0,.65,0,1C4,3,4,3,4,3S4,3,4,3c.12,13,1.67,22.61,14.38,28.06C32.48,37.12,33.94,48.62,34,62ZM22.43,30.84c-.68-.38-1.38-.74-2.13-1.09a19.92,19.92,0,0,0,9.29-10.23,1,1,0,0,0,.13-.3A32.78,32.78,0,0,0,31.59,11v0h0c.27-2.51.37-5.18.4-8V3s0,0,0,0c0-.33,0-.65,0-1h2C34,14,32.83,24.44,22.43,30.84Z"/></g></svg>