<svg xmlns="http://www.w3.org/2000/svg" viewBox="0 0 64 64"><defs><style>.cls-1{fill:#231f20;}</style></defs><title>No Crowd</title><g id="No_Crowd" data-name="No Crowd"><path class="cls-1" d="M32,26A13,13,0,1,0,19,13,13,13,0,0,0,32,26ZM32,2A11,11,0,1,1,21,13,11,11,0,0,1,32,2Z"/><path class="cls-1" d="M25,18.05h.13a1,1,0,0,0,.71-.29l11-10.95a1,1,0,0,0-.2-1.57A9,9,0,0,0,24.25,17.57,1,1,0,0,0,25,18.05ZM32,6a7,7,0,0,1,2.35.41l-8.94,8.94A7,7,0,0,1,32,6Z"/><path class="cls-1" d="M27,20a1,1,0,0,0,.48.73A9,9,0,0,0,39.75,8.43a1,1,0,0,0-1.57-.2l-10.95,11A1,1,0,0,0,27,20Zm11.64-9.37a7,7,0,0,1-8.94,8.94Z"/><path class="cls-1" d="M63,62h-.19A2.87,2.87,0,0,0,63,61V49a7,7,0,0,0-6.56-7A6,6,0,0,0,58,38V35a6,6,0,0,0-12,0v3a6,6,0,0,0,1.56,4A7,7,0,0,0,42,45.4,7,7,0,0,0,36.44,42,6,6,0,0,0,38,38V35a6,6,0,1,0-12,0v3a6,6,0,0,0,1.56,4A7,7,0,0,0,22,45.4,7,7,0,0,0,16.44,42,6,6,0,0,0,18,38V35A6,6,0,0,0,6,35v3a6,6,0,0,0,1.56,4A7,7,0,0,0,1,49V61a2.87,2.87,0,0,0,.19,1H1a1,1,0,0,0,0,2H63a1,1,0,0,0,0-2ZM48,35a4,4,0,1,1,8,0v3a4,4,0,1,1-8,0Zm0,9h8a5,5,0,0,1,5,5V61a1,1,0,0,1-1,1,1,1,0,0,1-.38-.08l-.08,0A1,1,0,0,1,59,61V48a1,1,0,0,0-2,0V62H47V48a1,1,0,0,0-2,0V61a1,1,0,0,1-.54.88l-.08,0A1,1,0,0,1,44,62a1,1,0,0,1-1-1V49A5,5,0,0,1,48,44ZM28,35a4,4,0,1,1,8,0v3a4,4,0,1,1-8,0Zm0,9h8a5,5,0,0,1,5,5V61a1,1,0,0,1-1,1,1,1,0,0,1-.38-.08l-.08,0A1,1,0,0,1,39,61V48a1,1,0,0,0-2,0V62H27V48a1,1,0,0,0-2,0V61a1,1,0,0,1-.54.88l-.08,0A1,1,0,0,1,24,62a1,1,0,0,1-1-1V49A5,5,0,0,1,28,44ZM8,35a4,4,0,1,1,8,0v3a4,4,0,0,1-8,0ZM7,61V48a1,1,0,0,0-2,0V61a1,1,0,0,1-.54.88l-.08,0A1,1,0,0,1,4,62a1,1,0,0,1-1-1V49a5,5,0,0,1,5-5h8a5,5,0,0,1,5,5V61a1,1,0,0,1-1,1,1,1,0,0,1-.38-.08l-.08,0A1,1,0,0,1,19,61V48a1,1,0,0,0-2,0V62H7Z"/></g></svg>