<svg xmlns="http://www.w3.org/2000/svg" viewBox="0 0 64 64"><defs><style>.cls-1{fill:#231f20;}</style></defs><title>No Flight</title><g id="No_Flight" data-name="No Flight"><path class="cls-1" d="M37.71,22.76,47,13.45a1,1,0,0,0,.29-.78,1,1,0,0,0-.4-.73A24.9,24.9,0,0,0,35.49,7.25,13.88,13.88,0,0,0,34.42,6a3.51,3.51,0,0,0-4.84,0,13.06,13.06,0,0,0-1.09,1.27A25,25,0,0,0,7,32c0,.07,0,.13,0,.2l-1.54.95A1,1,0,0,0,5,34v5a1,1,0,0,0,.4.8A1,1,0,0,0,6,40a.9.9,0,0,0,.28,0l1.86-.55a24.92,24.92,0,0,0,3.8,7.5,1,1,0,0,0,.73.4h.07a1,1,0,0,0,.71-.29L37.71,22.76ZM38,19.64v-5a12.12,12.12,0,0,0-1.13-5.13,23,23,0,0,1,7.89,3.34ZM33,7.42a9.4,9.4,0,0,1,1.12,1.33.39.39,0,0,0,.08.1A10.31,10.31,0,0,1,36,14.66v7l-8,8v-15a10.13,10.13,0,0,1,3-7.24A1.44,1.44,0,0,1,33,7.42ZM27.13,9.53A12.27,12.27,0,0,0,26,14.66v5.78L9.05,30.94A23,23,0,0,1,27.13,9.53ZM7,34.56,26,22.79v8.85L24.64,33H23a.86.86,0,0,0-.28,0L7,37.67Zm5.87,10.2a22.92,22.92,0,0,1-2.81-5.91l12.36-3.64Z"/><path class="cls-1" d="M58.53,33.15,57,32.2c0-.07,0-.13,0-.2a24.79,24.79,0,0,0-4.94-14.91,1,1,0,0,0-.73-.4,1,1,0,0,0-.78.29L17,50.55a1,1,0,0,0-.29.78,1,1,0,0,0,.4.73A24,24,0,0,0,20,53.91V57a1,1,0,0,0,1,1l.22,0,6.28-1.4A22.38,22.38,0,0,0,31,57v1a1,1,0,0,0,2,0V57a24.3,24.3,0,0,0,3.5-.37L42.78,58,43,58a1,1,0,0,0,1-1V53.91A25,25,0,0,0,55.87,39.42l1.85.54A.9.9,0,0,0,58,40a1,1,0,0,0,.6-.2A1,1,0,0,0,59,39V34A1,1,0,0,0,58.53,33.15Zm-7.4-13.91A22.74,22.74,0,0,1,55,30.94L45.36,25ZM34.84,47.54s0,0,0,0a1,1,0,0,0-.09.9l-.49,4.46A2.12,2.12,0,0,1,33,54.75V52a1,1,0,0,0-2,0v2.75a2.36,2.36,0,0,1-.59-.4,2.26,2.26,0,0,1-.67-1.45l-.48-4.44a1,1,0,0,0-.09-.9s0,0,0,0l-.62-5.71L36,34.36V37Zm-8.12-3.9.44,4L20.68,52c-.49-.28-1-.57-1.45-.88ZM22,53.54l5.41-3.61.34,3.17a4.16,4.16,0,0,0,.34,1.3L22,55.75Zm20,2.21-5.25-1.17h0l-.82-.18a3.84,3.84,0,0,0,.33-1.28l.35-3.19L42,53.54ZM43.31,52l-6.47-4.32L38,37.11A.41.41,0,0,0,38,37V35h2.86L54,38.85A23,23,0,0,1,43.31,52ZM57,37.66l-1.54-.45h0L41.28,33A.86.86,0,0,0,41,33H38v-.64l5.91-5.9L57,34.56Z"/><path class="cls-1" d="M32,0A32,32,0,1,0,64,32,32,32,0,0,0,32,0Zm0,62A30,30,0,1,1,62,32,30,30,0,0,1,32,62Z"/></g></svg>