<svg xmlns="http://www.w3.org/2000/svg" viewBox="0 0 64 64"><defs><style>.cls-1{fill:#231f20;}</style></defs><title>Paramedic</title><g id="Paramedic"><path class="cls-1" d="M49,30.16V23.84A6.85,6.85,0,0,0,42.16,17H21.84A6.85,6.85,0,0,0,15,23.84V34A17,17,0,0,0,30.68,50.93c.44,0,.88.07,1.32.07s.88,0,1.32-.07A17,17,0,0,0,49,34ZM32,49c-.37,0-.73,0-1.1-.06C26.63,48.56,22,46.06,22,43s.78-5,2.46-6.2a7.06,7.06,0,0,1,1-.59,11.18,11.18,0,0,1,3.3-1A21.8,21.8,0,0,1,32,35a21.71,21.71,0,0,1,3.26.22,11.57,11.57,0,0,1,1.28.26,8.31,8.31,0,0,1,3,1.32C41.22,38.05,42,40,42,43s-4.63,5.56-8.9,5.94C32.73,49,32.37,49,32,49ZM30,33.07l.29-.85a1.77,1.77,0,0,1,3.36,0l.29.85A28.78,28.78,0,0,0,30,33.07ZM40.46,35c-.18-.12-.37-.22-.56-.33l-.28-.17A9.69,9.69,0,0,0,38.49,34l-.23-.08c-.33-.11-.67-.22-1-.32l-.46-.11-.59-.13-.59-1.77a3.77,3.77,0,0,0-7.16,0l-.59,1.77c-.2,0-.39.09-.58.13l-.48.11c-.36.1-.7.21-1,.33l-.23.07a9.69,9.69,0,0,0-1.13.51l-.27.16c-.2.11-.39.22-.57.34h-1.7A4.84,4.84,0,0,1,17,30.16V27.84A4.84,4.84,0,0,1,21.84,23H42.16A4.84,4.84,0,0,1,47,27.84v2.32A4.84,4.84,0,0,1,42.16,35ZM21.84,19H42.16a4.84,4.84,0,0,1,4.75,3.93A6.83,6.83,0,0,0,42.16,21H21.84a6.83,6.83,0,0,0-4.75,1.93A4.84,4.84,0,0,1,21.84,19ZM17.05,35a6.84,6.84,0,0,0,4.52,2A10.41,10.41,0,0,0,20,43,14.92,14.92,0,0,1,17.05,35ZM44,43a10.41,10.41,0,0,0-1.57-6A6.84,6.84,0,0,0,47,35,14.92,14.92,0,0,1,44,43Z"/><path class="cls-1" d="M36,40H28a1,1,0,0,0,0,2h8a1,1,0,0,0,0-2Z"/><path class="cls-1" d="M36,44H28a1,1,0,0,0,0,2h8a1,1,0,0,0,0-2Z"/><ellipse class="cls-1" cx="24.5" cy="30" rx="1.5" ry="2"/><ellipse class="cls-1" cx="39.5" cy="30" rx="1.5" ry="2"/><path class="cls-1" d="M63.94,62.65a13.4,13.4,0,0,0-11.36-8.6A9,9,0,0,0,56,47V21A21,21,0,0,0,35,0H29A21,21,0,0,0,8,21V47a9,9,0,0,0,3.42,7A13.4,13.4,0,0,0,.06,62.65a1,1,0,0,0,.59,1.29A1,1,0,0,0,1,64a1,1,0,0,0,.94-.65A11.37,11.37,0,0,1,12.54,56H31v7a1,1,0,0,0,2,0V56H51.46a11.36,11.36,0,0,1,10.6,7.35A1,1,0,0,0,63,64a1,1,0,0,0,.35-.06A1,1,0,0,0,63.94,62.65ZM43,54H17a7,7,0,0,1-7-7V21A19,19,0,0,1,29,2h6A19,19,0,0,1,54,21V47a7,7,0,0,1-7,7Z"/><path class="cls-1" d="M21.12,25.46a1,1,0,1,0,1.42,1.42,2.75,2.75,0,0,1,3.9,0,1,1,0,0,0,.7.29,1,1,0,0,0,.71-.29,1,1,0,0,0,0-1.42A4.77,4.77,0,0,0,21.12,25.46Z"/><path class="cls-1" d="M36.15,25.46a1,1,0,0,0,0,1.42,1,1,0,0,0,1.41,0,2.75,2.75,0,0,1,3.9,0,1,1,0,0,0,.71.29,1,1,0,0,0,.71-.29,1,1,0,0,0,0-1.42A4.77,4.77,0,0,0,36.15,25.46Z"/></g></svg>