<svg xmlns="http://www.w3.org/2000/svg" viewBox="0 0 64 64"><defs><style>.cls-1{fill:#231f20;}</style></defs><title>Protective Cloth</title><g id="Protective_Cloth" data-name="Protective Cloth"><path class="cls-1" d="M63.94,34.66,57.62,17.27a8,8,0,0,0-5-4.85A2.94,2.94,0,0,0,53,11V6A6,6,0,0,0,41,6v5a2.94,2.94,0,0,0,.37,1.42,8,8,0,0,0-5,4.85L30.06,34.66a1,1,0,0,0,.49,1.23l4,2a1,1,0,0,0,.8,0,1,1,0,0,0,.57-.56l2.94-7L38,63a1,1,0,0,0,.28.73A1,1,0,0,0,39,64h5a1,1,0,0,0,1-.88l2-16.06,2,16.06A1,1,0,0,0,50,64h5a1,1,0,0,0,.72-.3A1,1,0,0,0,56,63l-.86-32.63,2.94,7a1,1,0,0,0,.57.56,1,1,0,0,0,.8,0l4-2A1,1,0,0,0,63.94,34.66ZM43,6a4,4,0,0,1,8,0v5a1,1,0,0,1-1,1H44a1,1,0,0,1-1-1ZM59.51,35.63l-4.59-11a1,1,0,0,0-1.13-.6A1,1,0,0,0,53,25l1,37H50.88L48,38.88a1,1,0,0,0-2,0L43.12,62H40l1-37a1,1,0,0,0-1.92-.41l-4.59,11L32.24,34.5l6-16.55A6,6,0,0,1,43.9,14H46V32a1,1,0,0,0,2,0V14h2.1A6,6,0,0,1,55.74,18l6,16.55Z"/><path class="cls-1" d="M19,23h0c2.42,0,7-1.46,7-7a4.37,4.37,0,0,0-1.11-3.22A2.68,2.68,0,0,0,23,12h0c-1.91,0-4.14,1.85-5.16,2.78A5.36,5.36,0,0,0,14,13a5.36,5.36,0,0,0-3.83,1.78C9.15,13.85,6.92,12,5,12a2.75,2.75,0,0,0-1.9.78A4.37,4.37,0,0,0,2,16c0,5.54,4.58,7,7,7H9a6.22,6.22,0,0,0,5,2A6.22,6.22,0,0,0,19,23Zm4-9a.57.57,0,0,1,.47.21A2.58,2.58,0,0,1,24,16a4.6,4.6,0,0,1-4.09,4.91A5.3,5.3,0,0,0,20,20a7.57,7.57,0,0,0-1-3.59C20,15.48,21.88,14,23,14ZM4,16a2.58,2.58,0,0,1,.52-1.79A.57.57,0,0,1,5,14c1.1,0,2.91,1.38,4,2.41A7.57,7.57,0,0,0,8,20a5.3,5.3,0,0,0,.09.91A4.6,4.6,0,0,1,4,16Zm10,7c-1.2,0-4-.29-4-3,0-2.25,1.85-5,4-5s4,2.75,4,5C18,22.71,15.2,23,14,23Z"/><path class="cls-1" d="M27,2H23.82A3,3,0,0,0,21,0H7A3,3,0,0,0,4.18,2H1A1,1,0,0,0,0,3V8A1,1,0,0,0,1,9H4.18A3,3,0,0,0,7,11h5a1,1,0,0,0,.89-.55l.66-1.32a.5.5,0,0,1,.9,0l.66,1.32A1,1,0,0,0,16,11h5a3,3,0,0,0,2.82-2H27a1,1,0,0,0,1-1V3A1,1,0,0,0,27,2ZM2,4H4V7H2ZM21,9H16.62l-.38-.76a2.5,2.5,0,0,0-4.48,0L11.38,9H7A1,1,0,0,1,6,8V3A1,1,0,0,1,7,2H21a1,1,0,0,1,1,1V8A1,1,0,0,1,21,9Zm5-2H24V4h2Z"/><path class="cls-1" d="M12,49H5a1,1,0,0,0-1,1v6.1A5,5,0,0,0,0,61v2a1,1,0,0,0,1,1H12a1,1,0,0,0,1-1V50A1,1,0,0,0,12,49ZM11,62H2V61a3,3,0,0,1,3-3,1,1,0,0,0,1-1V51h5Z"/><path class="cls-1" d="M24,56.1V50a1,1,0,0,0-1-1H16a1,1,0,0,0-1,1V63a1,1,0,0,0,1,1H27a1,1,0,0,0,1-1V61A5,5,0,0,0,24,56.1ZM26,62H17V51h5v6a1,1,0,0,0,1,1,3,3,0,0,1,3,3Z"/><path class="cls-1" d="M13.24,33a1,1,0,0,0-1.21.73l-.74,3A1,1,0,0,1,11,36V30a1,1,0,0,0-2,0v4H8V28a1,1,0,0,0-2,0v6H5V29a1,1,0,0,0-2,0v5H2V31a1,1,0,0,0-2,0v7.76a4.58,4.58,0,0,0,2,3.81V45a1,1,0,0,0,1,1H9a1,1,0,0,0,1-1V42.58a6.39,6.39,0,0,0,2.66-3.38l.29-.88a.07.07,0,0,1,0,0s0,0,0,0l1-4A1,1,0,0,0,13.24,33ZM8.55,41.11A1,1,0,0,0,8,42v2H4V42a1,1,0,0,0-.55-.89A2.61,2.61,0,0,1,2,38.76V36H9a3,3,0,0,0,1.71,2.71A4.38,4.38,0,0,1,8.55,41.11Z"/><path class="cls-1" d="M26,30.43V28a1,1,0,0,0-1-1H19a1,1,0,0,0-1,1v2.42a6.39,6.39,0,0,0-2.66,3.38l-.29.88a.07.07,0,0,1,0,0s0,0,0,0l-1,4A1,1,0,0,0,14.76,40,1,1,0,0,0,16,39.24l.74-3A1,1,0,0,1,17,37v6a1,1,0,0,0,2,0V39h1v6a1,1,0,0,0,2,0V39h1v5a1,1,0,0,0,2,0V39h1v3a1,1,0,0,0,2,0V34.24A4.58,4.58,0,0,0,26,30.43Zm-8.71,3.86a4.38,4.38,0,0,1,2.16-2.4A1,1,0,0,0,20,31V29h4v2a1,1,0,0,0,.55.89A2.61,2.61,0,0,1,26,34.24V37H19A3,3,0,0,0,17.29,34.29Z"/></g></svg>