<svg xmlns="http://www.w3.org/2000/svg" viewBox="0 0 64 64"><defs><style>.cls-1{fill:#231f20;}</style></defs><title>Protection</title><g id="Protection"><path class="cls-1" d="M58,4H56.65A76.77,76.77,0,0,1,32.32.05a1,1,0,0,0-.64,0A76.77,76.77,0,0,1,7.35,4H6A1,1,0,0,0,5,5V27.8A37.65,37.65,0,0,0,31.71,64a1.07,1.07,0,0,0,.58,0A37.65,37.65,0,0,0,59,27.8V5A1,1,0,0,0,58,4ZM57,27.8A35.64,35.64,0,0,1,32,62,35.64,35.64,0,0,1,7,27.8V6h.35A78.79,78.79,0,0,0,32,2.05,78.79,78.79,0,0,0,56.65,6H57Z"/><path class="cls-1" d="M53,8.92A82.19,82.19,0,0,1,32.3,5.3a1,1,0,0,0-.6,0A82.19,82.19,0,0,1,11,8.92a1,1,0,0,0-1,1V27.8A32.47,32.47,0,0,0,31.66,58.67a1,1,0,0,0,.68,0A32.47,32.47,0,0,0,54,27.8V9.92A1,1,0,0,0,53,8.92ZM52,27.8A30.5,30.5,0,0,1,32,56.67,30.5,30.5,0,0,1,12,27.8V10.87A83.5,83.5,0,0,0,32,7.3a83.5,83.5,0,0,0,20,3.57Z"/><path class="cls-1" d="M31,17v2.06a10,10,0,0,0-5.33,2.2l-.94-.93a2,2,0,1,0-1.92,1.48,2.24,2.24,0,0,0,.51-.07l.94.94A9.93,9.93,0,0,0,22.06,28H20a1,1,0,0,0,0,2h2.07a9.93,9.93,0,0,0,2.2,5.32l-.94.94a2,2,0,1,0,1.41,1.42l.94-.94A9.93,9.93,0,0,0,31,39V41a1,1,0,0,0,2,0V39a9.93,9.93,0,0,0,5.33-2.2l.94.94a2,2,0,0,0,1.92,2.51,2,2,0,0,0,1.42-.59,2,2,0,0,0-1.93-3.34l-.94-.94A9.93,9.93,0,0,0,41.94,30H44a1,1,0,0,0,0-2H41.94a9.93,9.93,0,0,0-2.2-5.33l.94-.94a2.24,2.24,0,0,0,.51.07,2,2,0,1,0-1.92-1.48l-.94.93A10,10,0,0,0,33,19.06V17a1,1,0,0,0-2,0Zm5.24,7.76a1,1,0,0,0,1.42,0l.66-.65A8,8,0,0,1,40,29h0a8.07,8.07,0,0,1-1.68,4.89l-.66-.66a1,1,0,0,0-1.42,0,1,1,0,0,0,0,1.41l.66.66A7.92,7.92,0,0,1,32,37h0a7.92,7.92,0,0,1-4.89-1.68l.66-.66a1,1,0,0,0,0-1.41,1,1,0,0,0-1.42,0l-.66.66A8.07,8.07,0,0,1,24,29h0a8,8,0,0,1,1.68-4.89l.66.65a1,1,0,0,0,1.42-1.41l-.66-.66A8,8,0,0,1,32,21h0a8,8,0,0,1,4.89,1.68l-.66.66A1,1,0,0,0,36.24,24.76Z"/><path class="cls-1" d="M28.46,26.3h0a2,2,0,0,0,0,4h0a2,2,0,1,0,0-4Z"/><path class="cls-1" d="M33.77,25.82A1.5,1.5,0,1,0,35.89,28a1.5,1.5,0,0,0-2.12-2.13Z"/><path class="cls-1" d="M31.29,32.54a1,1,0,1,0,1.42,0A1,1,0,0,0,31.29,32.54Z"/></g></svg>