<svg xmlns="http://www.w3.org/2000/svg" viewBox="0 0 64 64"><defs><style>.cls-1{fill:#231f20;}</style></defs><title>Searching</title><g id="Searching"><path class="cls-1" d="M23,5A18,18,0,1,0,41,23,18,18,0,0,0,23,5Zm0,34A16,16,0,1,1,39,23,16,16,0,0,1,23,39Z"/><path class="cls-1" d="M62.67,56.26,47.21,40.79a4.53,4.53,0,0,0-3.32-1.31L41.32,36.9a23,23,0,1,0-4.42,4.42l2.58,2.57a4.53,4.53,0,0,0,1.31,3.32L56.26,62.67A4.47,4.47,0,0,0,59.46,64,4.54,4.54,0,0,0,64,59.46,4.47,4.47,0,0,0,62.67,56.26Zm-25-17a1,1,0,0,0-1.35-.06,21,21,0,1,1,2.87-2.87,1,1,0,0,0,.06,1.35l2.43,2.42a4,4,0,0,0-1.59,1.59ZM59.46,62a2.52,2.52,0,0,1-1.79-.74L42.21,45.79a2.53,2.53,0,0,1,0-3.58,2.53,2.53,0,0,1,3.58,0L61.26,57.67A2.54,2.54,0,0,1,59.46,62Z"/><path class="cls-1" d="M32,22H30.94a8.13,8.13,0,0,0-1.62-3.9h0l1.39-1.39a1,1,0,0,0-1.42-1.42L27.9,16.68h0A8.13,8.13,0,0,0,24,15.06V14a1,1,0,0,0-2,0v1.06a8.13,8.13,0,0,0-3.9,1.62h0l-1.39-1.39a1,1,0,0,0-1.42,1.42l1.39,1.39h0A8.13,8.13,0,0,0,15.06,22H14a1,1,0,0,0,0,2h1.06a8.13,8.13,0,0,0,1.62,3.9h0l-1.39,1.39a1,1,0,0,0,0,1.42,1,1,0,0,0,1.42,0l1.39-1.39h0A8.13,8.13,0,0,0,22,30.94V32a1,1,0,0,0,2,0V30.94a8.13,8.13,0,0,0,3.9-1.62h0l1.39,1.39a1,1,0,0,0,1.42,0,1,1,0,0,0,0-1.42L29.32,27.9h0A8.13,8.13,0,0,0,30.94,24H32a1,1,0,0,0,0-2ZM18.76,27.24A5.86,5.86,0,0,1,17.09,24h0a1,1,0,0,0,0-2h0A6,6,0,0,1,22,17.09h0a1,1,0,0,0,2,0h0A6,6,0,0,1,28.91,22h0a1,1,0,0,0,0,2h0A6,6,0,0,1,24,28.91h0a1,1,0,0,0-2,0h0A5.86,5.86,0,0,1,18.76,27.24Z"/><circle class="cls-1" cx="25.5" cy="21.5" r="1.5"/><circle class="cls-1" cx="20" cy="22" r="1"/><circle class="cls-1" cx="23" cy="25" r="1"/></g></svg>