<svg xmlns="http://www.w3.org/2000/svg" viewBox="0 0 64 64"><defs><style>.cls-1{fill:#231f20;}</style></defs><title>Sneeze</title><g id="Sneeze"><path class="cls-1" d="M51.24,43.35c-.4.47-3.91,4.65-3.91,8a4.67,4.67,0,0,0,9.34,0c0-3.33-3.51-7.51-3.91-8A1,1,0,0,0,51.24,43.35ZM52,54a2.68,2.68,0,0,1-2.67-2.67c0-1.73,1.55-4.21,2.67-5.72,1.12,1.51,2.67,4,2.67,5.72A2.68,2.68,0,0,1,52,54Z"/><path class="cls-1" d="M46.08,39.4A3.63,3.63,0,0,0,49,35.84a3.56,3.56,0,0,0-.68-2.11l-3.57-5A1.69,1.69,0,0,1,44.61,27,3.6,3.6,0,0,0,45,25.37V22.5a22.55,22.55,0,0,0-45.09,0v1A31.91,31.91,0,0,0,2.35,35.85l.07.15A29.85,29.85,0,0,1,4.69,49.15C4.37,55.17,4,63,4,63l2,.1s.37-7.78.69-13.79a31.76,31.76,0,0,0-2.43-14l-.06-.15A29.84,29.84,0,0,1,1.9,23.47v-1A20.55,20.55,0,0,1,43,22.5v2.87a1.63,1.63,0,0,1-.18.75,3.66,3.66,0,0,0,.3,3.77l3.58,5a1.57,1.57,0,0,1,.3.94,1.63,1.63,0,0,1-1.31,1.6L42.8,38a1,1,0,0,0-.8,1v2a1,1,0,0,0,.55.89l1,.52a.75.75,0,0,1,.41.67v.18a.74.74,0,0,1-.74.74H41a1,1,0,0,0,0,2h2.26a.74.74,0,0,1,.23,1.45l-1.81.6A1,1,0,0,0,41,49v1.86a5.13,5.13,0,0,1-6.55,4.94L28.27,54a1,1,0,0,0-.87.16,1,1,0,0,0-.4.8v8a1,1,0,0,0,2,0V56.33l4.9,1.4a7.24,7.24,0,0,0,2,.27A7.14,7.14,0,0,0,43,50.86V49.72l1.12-.37A2.74,2.74,0,0,0,45.37,45,2.73,2.73,0,0,0,46,43.26v-.18a2.73,2.73,0,0,0-1.52-2.46L44,40.38v-.56Z"/><path class="cls-1" d="M51,29a1,1,0,0,0,1-1V24a1,1,0,0,0-2,0v4A1,1,0,0,0,51,29Z"/><path class="cls-1" d="M63,35H59a1,1,0,0,0,0,2h4a1,1,0,0,0,0-2Z"/><path class="cls-1" d="M56.66,31.34a1,1,0,0,0,.7-.29l2.83-2.83a1,1,0,0,0-1.41-1.41L56,29.64a1,1,0,0,0,0,1.41A1,1,0,0,0,56.66,31.34Z"/><path class="cls-1" d="M57.36,41A1,1,0,0,0,56,42.36l2.83,2.83a1,1,0,0,0,1.41,0,1,1,0,0,0,0-1.41Z"/></g></svg>