<svg xmlns="http://www.w3.org/2000/svg" viewBox="0 0 64 64"><defs><style>.cls-1{fill:#231f20;}</style></defs><title>Sore Troath</title><g id="Sore_Troath" data-name="Sore Troath"><path class="cls-1" d="M55.87,33.73l-3.57-5A1.67,1.67,0,0,1,52.16,27a3.6,3.6,0,0,0,.39-1.64V22.5a22.55,22.55,0,0,0-45.09,0v1A31.77,31.77,0,0,0,9.9,35.85L10,36a29.85,29.85,0,0,1,2.27,13.15c-.32,6-.69,13.8-.69,13.8l2,.1s.37-7.78.69-13.79a31.71,31.71,0,0,0-2.43-14l-.06-.15a29.66,29.66,0,0,1-2.3-11.61v-1a20.55,20.55,0,0,1,41.09,0v2.87a1.63,1.63,0,0,1-.18.75,3.66,3.66,0,0,0,.3,3.77l3.57,5a1.63,1.63,0,0,1-1,2.55L50.35,38a1,1,0,0,0-.8,1v3a1,1,0,0,0,.17.55l.17.27a.73.73,0,0,1,0,.78.74.74,0,0,1-.67.4H45a4.39,4.39,0,0,0-3.12,1.29,1,1,0,0,0,0,1.42,1,1,0,0,0,.71.29,1,1,0,0,0,.71-.29A2.37,2.37,0,0,1,45,46h3.35a.76.76,0,0,1,.53,1.29,1,1,0,0,0-.29.71v2.86A5.13,5.13,0,0,1,42,55.8L35.82,54a1,1,0,0,0-.87.16,1,1,0,0,0-.4.8v8a1,1,0,0,0,2,0V56.33l4.9,1.4a7.24,7.24,0,0,0,2,.27,7.14,7.14,0,0,0,7.14-7.14v-2.5a2.69,2.69,0,0,0,.3-2.66,1,1,0,0,0-.07-.15,2.72,2.72,0,0,0,.92-1,2.75,2.75,0,0,0-.14-2.82v-1.9l2.08-.42a3.63,3.63,0,0,0,2.92-3.56A3.56,3.56,0,0,0,55.87,33.73Z"/><path class="cls-1" d="M31.55,55H30.46a6,6,0,0,0-1-2.47l.78-.77a1,1,0,1,0-1.42-1.42l-.77.77a6,6,0,0,0-2.47-1V49a1,1,0,0,0-2,0v1.09a6,6,0,0,0-2.47,1l-.77-.77a1,1,0,1,0-1.42,1.42l.77.77a6,6,0,0,0-1,2.47H17.55a1,1,0,1,0,0,2h1.09a6,6,0,0,0,1,2.47l-.77.77a1,1,0,0,0,0,1.42,1,1,0,0,0,.71.29,1,1,0,0,0,.71-.29l.77-.77a6,6,0,0,0,2.47,1V63a1,1,0,0,0,2,0V61.91a6,6,0,0,0,2.47-1l.77.77a1,1,0,0,0,.71.29,1,1,0,0,0,.71-.29,1,1,0,0,0,0-1.42l-.78-.77a6,6,0,0,0,1-2.47h1.09a1,1,0,0,0,0-2Zm-3.13,2a4,4,0,0,1-2.9,2.9,1,1,0,0,0-1-.87,1,1,0,0,0-1,.87,4,4,0,0,1-2.9-2.9,1,1,0,0,0,0-1.94,4,4,0,0,1,2.9-2.9,1,1,0,0,0,1,.87,1,1,0,0,0,1-.87,4,4,0,0,1,2.9,2.9,1,1,0,0,0,0,1.94Z"/></g></svg>