<svg xmlns="http://www.w3.org/2000/svg" viewBox="0 0 64 64"><defs><style>.cls-1{fill:#231f20;}</style></defs><title>Virus Transmission</title><g id="Virus_Transmission" data-name="Virus Transmission"><path class="cls-1" d="M43.92,24.38a1,1,0,0,0,0-.76,1,1,0,0,0-.21-.33l-3-3a1,1,0,0,0-1.42,1.42L40.59,23H21a1,1,0,0,0,0,2H40.59l-1.3,1.29a1,1,0,0,0,0,1.42,1,1,0,0,0,1.42,0l3-3A1,1,0,0,0,43.92,24.38Z"/><path class="cls-1" d="M41,9H39.93a7.94,7.94,0,0,0-1.62-3.9l1.4-1.39a1,1,0,1,0-1.42-1.42L36.9,3.69A7.94,7.94,0,0,0,33,2.07V1a1,1,0,0,0-2,0V2.07a7.94,7.94,0,0,0-3.9,1.62l-1.39-1.4a1,1,0,0,0-1.42,1.42l1.4,1.39A7.94,7.94,0,0,0,24.07,9H23a1,1,0,0,0,0,2h1.07a7.94,7.94,0,0,0,1.62,3.9l-1.4,1.39a1,1,0,0,0,0,1.42,1,1,0,0,0,1.42,0l1.39-1.4A7.94,7.94,0,0,0,31,17.93V19a1,1,0,0,0,2,0V17.93a7.94,7.94,0,0,0,3.9-1.62l1.39,1.4a1,1,0,0,0,1.42,0,1,1,0,0,0,0-1.42l-1.4-1.39A7.94,7.94,0,0,0,39.93,11H41a1,1,0,0,0,0-2Zm-3.09,2A6,6,0,0,1,33,15.91a1,1,0,0,0-2,0A6,6,0,0,1,26.09,11a1,1,0,0,0,0-2A6,6,0,0,1,31,4.09a1,1,0,0,0,2,0A6,6,0,0,1,37.91,9a1,1,0,0,0,0,2Z"/><circle class="cls-1" cx="29.5" cy="8.5" r="1.5"/><circle class="cls-1" cx="35" cy="9" r="1"/><circle class="cls-1" cx="32" cy="12" r="1"/><path class="cls-1" d="M15.44,25A5.93,5.93,0,0,0,17,21V18A6,6,0,0,0,5,18v3a5.93,5.93,0,0,0,1.56,4A7,7,0,0,0,0,32V44a3,3,0,0,0,3,3,2.81,2.81,0,0,0,1-.18V59.4A4.21,4.21,0,0,0,2,63a1,1,0,0,0,1,1h7a1,1,0,0,0,1-1v0a1,1,0,0,0,1,1h7a1,1,0,0,0,1-1,4.17,4.17,0,0,0-2-3.6V46.82A2.81,2.81,0,0,0,19,47a3,3,0,0,0,3-3V32A7,7,0,0,0,15.44,25ZM7,18a4,4,0,0,1,8,0v3a4,4,0,0,1-8,0ZM20,44a1,1,0,0,1-1,1,1,1,0,0,1-.38-.08l-.08,0A1,1,0,0,1,18,44V31a1,1,0,0,0-2,0V60a1,1,0,0,0,.54.89l.23.12a2.23,2.23,0,0,1,1,1H13L12,44a1,1,0,0,0-2,0L9.05,62H4.23a2.25,2.25,0,0,1,1-1l.21-.11A1,1,0,0,0,6,60V31a1,1,0,0,0-2,0V44a1,1,0,0,1-.54.88l-.08,0A1,1,0,0,1,3,45a1,1,0,0,1-1-1V32a5,5,0,0,1,5-5h8a5,5,0,0,1,5,5Z"/><path class="cls-1" d="M57.44,25A5.93,5.93,0,0,0,59,21V18a6,6,0,0,0-12,0v3a5.93,5.93,0,0,0,1.56,4A7,7,0,0,0,42,32V44a3,3,0,0,0,3,3,2.81,2.81,0,0,0,1-.18V59.4A4.21,4.21,0,0,0,44,63a1,1,0,0,0,1,1h7a1,1,0,0,0,1-1v0a1,1,0,0,0,1,1h7a1,1,0,0,0,1-1,4.17,4.17,0,0,0-2-3.6V46.82A2.81,2.81,0,0,0,61,47a3,3,0,0,0,3-3V32A7,7,0,0,0,57.44,25ZM49,18a4,4,0,0,1,8,0v3a4,4,0,0,1-8,0ZM62,44a1,1,0,0,1-1,1,1,1,0,0,1-.38-.08l-.08,0A1,1,0,0,1,60,44V31a1,1,0,0,0-2,0V60a1,1,0,0,0,.54.89l.23.12a2.23,2.23,0,0,1,1,1H55L54,44a1,1,0,0,0-2,0l-1,18H46.23a2.25,2.25,0,0,1,1-1l.21-.11A1,1,0,0,0,48,60V31a1,1,0,0,0-2,0V44a1,1,0,0,1-.54.88l-.08,0A1,1,0,0,1,45,45a1,1,0,0,1-1-1V32a5,5,0,0,1,5-5h8a5,5,0,0,1,5,5Z"/></g></svg>