<svg xmlns="http://www.w3.org/2000/svg" viewBox="0 0 64 64"><defs><style>.cls-1{fill:#231f20;}</style></defs><title>Virus Quarantine</title><g id="Virus_Quarantine" data-name="Virus Quarantine"><path class="cls-1" d="M55,56H53V21a21,21,0,0,0-42,0V56H9a1,1,0,0,0-1,1v6a1,1,0,0,0,1,1H55a1,1,0,0,0,1-1V57A1,1,0,0,0,55,56ZM13,21a19,19,0,0,1,38,0V56H13ZM54,62H10V58H54Z"/><path class="cls-1" d="M29.88,29.88h0a2,2,0,0,0-2.83,0,2,2,0,0,0,0,2.83,2,2,0,0,0,2.83,0,2,2,0,0,0,0-2.83Z"/><circle class="cls-1" cx="34.83" cy="29.88" r="1.5"/><path class="cls-1" d="M31.29,35.54a1,1,0,0,0,0,1.41,1,1,0,0,0,1.42,0,1,1,0,0,0,0-1.41A1,1,0,0,0,31.29,35.54Z"/><path class="cls-1" d="M42.61,39.78a2,2,0,0,0-1.93-.51l-.94-.94A9.92,9.92,0,0,0,42,33H44a1,1,0,0,0,0-2H42a9.92,9.92,0,0,0-2.21-5.33l.94-.94a1.81,1.81,0,0,0,.51.08,2,2,0,1,0-1.41-3.42,2,2,0,0,0-.51,1.93l-.94.94A9.92,9.92,0,0,0,33,22.05V20a1,1,0,1,0-2,0v2.06a9.92,9.92,0,0,0-5.33,2.21l-.94-.94a2,2,0,1,0-3.34.9,2,2,0,0,0,1.42.59,1.81,1.81,0,0,0,.51-.08l.94.94A9.92,9.92,0,0,0,22.05,31H20a1,1,0,1,0,0,2h2.06a9.92,9.92,0,0,0,2.21,5.33l-.94.94a2,2,0,1,0,1.41,1.41l.94-.94A9.93,9.93,0,0,0,31,41.94V44a1,1,0,0,0,2,0V41.94a9.93,9.93,0,0,0,5.33-2.2l.94.94a2,2,0,1,0,3.34-.9ZM32,40h0a8,8,0,0,1-4.89-1.68l.66-.66a1,1,0,0,0-1.42-1.42l-.66.66A8,8,0,0,1,24,32s0,0,0,0,0,0,0,0a7.94,7.94,0,0,1,1.69-4.88l.65.66a1,1,0,0,0,1.42,0,1,1,0,0,0,0-1.42l-.66-.65A7.94,7.94,0,0,1,32,24h0a7.94,7.94,0,0,1,4.88,1.69l-.66.65a1,1,0,0,0,0,1.42,1,1,0,0,0,1.42,0l.65-.66A7.94,7.94,0,0,1,40,32s0,0,0,0,0,0,0,0a8,8,0,0,1-1.68,4.88l-.66-.66a1,1,0,0,0-1.42,1.42l.66.66A8,8,0,0,1,32,40Z"/><path class="cls-1" d="M20,47a3,3,0,1,0,3,3A3,3,0,0,0,20,47Zm0,4a1,1,0,1,1,1-1A1,1,0,0,1,20,51Z"/><circle class="cls-1" cx="45" cy="48" r="2"/><path class="cls-1" d="M25,16a4,4,0,1,0-4-4A4,4,0,0,0,25,16Zm0-6a2,2,0,1,1-2,2A2,2,0,0,1,25,10Z"/><circle class="cls-1" cx="42" cy="16" r="2"/></g></svg>