<svg xmlns="http://www.w3.org/2000/svg" viewBox="0 0 64 64"><defs><style>.cls-1{fill:#231f20;}</style></defs><title>Work From home</title><g id="Work_From_home" data-name="Work From home"><path class="cls-1" d="M62.42,29.82A1,1,0,0,0,63,30a1.07,1.07,0,0,0,.46-.11A1,1,0,0,0,64,29V23a1,1,0,0,0-.42-.82l-31-22a1,1,0,0,0-1.16,0l-31,22A1,1,0,0,0,0,23v6a1,1,0,0,0,.54.89,1,1,0,0,0,1-.07L7,26V56H1a1,1,0,0,0-1,1v6a1,1,0,0,0,1,1H63a1,1,0,0,0,1-1V57a1,1,0,0,0-1-1H57V26ZM2,23.52,32,2.23,62,23.52v3.54l-5.41-3.84h0l-24-17a1,1,0,0,0-1.16,0l-24,17h0L2,27.06ZM62,62H2V58H62ZM18,35V32a4,4,0,0,1,8,0v3a4,4,0,0,1-8,0ZM32,56H27a1,1,0,0,1,0-2H48a1,1,0,0,1,0,2Zm17.38-5.52A1.79,1.79,0,0,1,47.61,52H30.79A1.79,1.79,0,0,1,29,50.21a2.45,2.45,0,0,1,0-.27l1.6-10.42A1.79,1.79,0,0,1,32.39,38H49.21A1.79,1.79,0,0,1,51,39.79a2.45,2.45,0,0,1,0,.27ZM27.47,52H27a3,3,0,0,0-2.82,4h-11l.93-7.93a8,8,0,0,1,13.25-5,5.78,5.78,0,0,1,.65.66l-.92,6a3.64,3.64,0,0,0,0,.57A3.73,3.73,0,0,0,27.47,52ZM55,56H50.82a2.94,2.94,0,0,0-.62-3,3.77,3.77,0,0,0,1.15-2.18L53,40.36a3.64,3.64,0,0,0,0-.57A3.79,3.79,0,0,0,49.21,36H32.39a3.76,3.76,0,0,0-3.74,3.21l-.32,2.06a10.15,10.15,0,0,0-2.63-1.56A6,6,0,0,0,28,35V32a6,6,0,0,0-12,0v3a6,6,0,0,0,2.3,4.71,10,10,0,0,0-6.22,8.12l-1,8.17H9V24.55L32,8.23,55,24.55Z"/><path class="cls-1" d="M40,42a3,3,0,1,0,3,3A3,3,0,0,0,40,42Zm0,4a1,1,0,1,1,1-1A1,1,0,0,1,40,46Z"/></g></svg>