<svg xmlns="http://www.w3.org/2000/svg" viewBox="0 0 64 64"><defs><style>.cls-1{fill:#231f20;}</style></defs><title>Ambulance</title><g id="Ambulance"><path class="cls-1" d="M21,40a6,6,0,1,0-6-6A6,6,0,0,0,21,40Zm-3-7h2V31a1,1,0,0,1,2,0v2h2a1,1,0,0,1,0,2H22v2a1,1,0,0,1-2,0V35H18A1,1,0,0,1,18,33Z"/><rect class="cls-1" x="1" y="46" width="39" height="2"/><path class="cls-1" d="M1,58H5a7,7,0,0,1,14,0H40V50H1Z"/><path class="cls-1" d="M1,44H40V23H1ZM21,26a8,8,0,1,1-8,8A8,8,0,0,1,21,26Z"/><path class="cls-1" d="M46,42H56.73l-2.4-9c-.15.06.51,0-8.33,0Z"/><path class="cls-1" d="M61,52h2V50H61A1,1,0,0,0,61,52Z"/><path class="cls-1" d="M57.89,43.45c-.37.77-.14.55-12.89.55a1,1,0,0,1-1-1V32a1,1,0,0,1,1-1h8.8c-.33-1.25-.52-3-2.34-3H42V58h1a7,7,0,0,1,14,0h6V54H61a3,3,0,0,1,0-6h2C63,45.52,62.78,45.9,57.89,43.45ZM47,48H45a1,1,0,0,1,0-2h2A1,1,0,0,1,47,48Z"/><path class="cls-1" d="M50,53a5,5,0,1,0,5,5A5,5,0,0,0,50,53Zm0,7a2,2,0,1,1,2-2A2,2,0,0,1,50,60Z"/><path class="cls-1" d="M12,53a5,5,0,1,0,5,5A5,5,0,0,0,12,53Zm0,7a2,2,0,1,1,2-2A2,2,0,0,1,12,60Z"/><path class="cls-1" d="M41,10H38a1,1,0,0,1,0-2h.32a7.14,7.14,0,0,0-.73-1.2c.2-.2-.71.74,2.12-2.09a1,1,0,0,0-1.42-1.42A21.41,21.41,0,0,0,36.21,5.4,6.93,6.93,0,0,0,33,4.08V2a1,1,0,0,0-2,0V5a1,1,0,0,1-2,0V4.68a6.89,6.89,0,0,0-1.2.73c-.2-.2.74.71-2.09-2.12a1,1,0,0,0-1.42,1.42A21.41,21.41,0,0,0,26.4,6.79,6.94,6.94,0,0,0,25.08,10H26a1,1,0,0,1,0,2H23a1,1,0,0,0,0,2h2.69a6.47,6.47,0,0,0,.72,1.2c-.2.2.71-.74-2.12,2.09A1,1,0,0,0,25,19c.64,0,.79-.4,2.8-2.41A6.78,6.78,0,0,0,31,17.92V20a1,1,0,0,0,2,0V17a1,1,0,0,1,2,0v.32a6.89,6.89,0,0,0,1.2-.73s0,.05,0,.07l2,2.05a1,1,0,0,0,1.42-1.42,21.41,21.41,0,0,0-2.11-2.08A6.89,6.89,0,0,0,38.92,12H41A1,1,0,0,0,41,10ZM29.5,11a1.5,1.5,0,0,1,0-3A1.5,1.5,0,0,1,29.5,11ZM32,14a1,1,0,0,1,0-2A1,1,0,0,1,32,14Zm3-3a1,1,0,0,1,0-2A1,1,0,0,1,35,11Z"/></g></svg>