<svg xmlns="http://www.w3.org/2000/svg" viewBox="0 0 64 64"><defs><style>.cls-1{fill:#231f20;}</style></defs><title>Apps Covid</title><g id="Apps_Covid" data-name="Apps Covid"><path class="cls-1" d="M37.66,27.76a1,1,0,0,1-1.42-1.42l.66-.66a8,8,0,0,0-9.8,0l.66.66a1,1,0,0,1-.71,1.71c-.46,0-.6-.18-1.37-.95a8,8,0,0,0,0,9.8l.66-.66a1,1,0,0,1,1.42,1.42l-.66.66a8,8,0,0,0,9.8,0l-.66-.66a1,1,0,0,1,1.42-1.42l.66.66a8,8,0,0,0,0-9.8Zm-7.78,4.95a2,2,0,1,1,.58-1.42A2,2,0,0,1,29.88,32.71ZM32.71,37a1,1,0,0,1-1.42-1.41A1,1,0,0,1,32.71,37Zm3.18-6a1.5,1.5,0,0,1-2.12-2.12A1.5,1.5,0,0,1,35.89,30.94Z"/><path class="cls-1" d="M38,8H26a3,3,0,0,1-2.83-2H17V58H47V6H40.83A3,3,0,0,1,38,8Zm4.61,13.39a2,2,0,0,1-1.42,3.42c-.74,0-.19-.4-1.45.86A9.9,9.9,0,0,1,42,31H44a1,1,0,0,1,0,2H42a9.92,9.92,0,0,1-2.21,5.33l.94.94h0a2,2,0,1,1-1.42,1.42h0l-.94-.94A9.92,9.92,0,0,1,33,42V44a1,1,0,0,1-2,0V42a9.92,9.92,0,0,1-5.33-2.21l-.94.94h0a2,2,0,1,1-1.42-1.42h0l.94-.94A9.92,9.92,0,0,1,22.05,33H20a1,1,0,0,1,0-2h2.06a9.92,9.92,0,0,1,2.21-5.33l-.94-.94a2,2,0,1,1,1.41-1.42h0l.94.94A9.92,9.92,0,0,1,31,22.05V20a1,1,0,0,1,2,0v2.06a9.92,9.92,0,0,1,5.33,2.21l.94-.94h0A2,2,0,0,1,42.61,21.39Z"/><path class="cls-1" d="M48,1H16a4,4,0,0,0-4,4V59a4,4,0,0,0,4,4H48a4,4,0,0,0,4-4V5A4,4,0,0,0,48,1ZM36,3a1,1,0,0,1,0,2A1,1,0,0,1,36,3ZM28,3a1,1,0,0,1,0,2A1,1,0,0,1,28,3ZM49,59a1,1,0,0,1-1,1H16a1,1,0,0,1-1-1V5a1,1,0,0,1,1-1h8a1,1,0,0,1,1,1,1,1,0,0,0,1,1H38a1,1,0,0,0,1-1,1,1,0,0,1,1-1h8a1,1,0,0,1,1,1Z"/></g></svg>