<svg xmlns="http://www.w3.org/2000/svg" viewBox="0 0 64 64"><defs><style>.cls-1{fill:#231f20;}</style></defs><title>Bat Virus</title><g id="Bat_Virus" data-name="Bat Virus"><path class="cls-1" d="M23.79,17.45a10.11,10.11,0,0,1,5.06-5.31c.19-.08.56-.24.68-.27A7.9,7.9,0,0,0,29,10.21C28,8.11,24,6,24,6a59.43,59.43,0,0,0-1,8.42A6.7,6.7,0,0,0,23.79,17.45Z"/><path class="cls-1" d="M35.05,12.1a9.7,9.7,0,0,1,5.16,5.34.06.06,0,0,1,0,0A7.18,7.18,0,0,0,41,14.42,59.43,59.43,0,0,0,40,6s-4,2.11-5,4.21a7.9,7.9,0,0,0-.53,1.66C34.55,11.89,35,12.06,35.05,12.1Z"/><path class="cls-1" d="M37.14,27.63a10.07,10.07,0,0,1-10.28,0A19.38,19.38,0,0,0,26,33.37C26,37.78,29.17,43,32,46c0,0,.43-.45,1-1.23a15.91,15.91,0,0,1,4.89-10.34A18.55,18.55,0,0,0,37.14,27.63Z"/><path class="cls-1" d="M25,21.79c0,2.35,2.2,4.08,4.49,4.83,4.36,1.5,9.51-1.4,9.51-4.83a8.14,8.14,0,0,0-5-8,4.69,4.69,0,0,0-4,0A8.13,8.13,0,0,0,25,21.79Zm4-1h6a1,1,0,0,1,0,2,1,1,0,1,1-2,.05c0-.1.16-.05-2-.05a1,1,0,1,1-2,0A1,1,0,0,1,29,20.79Z"/><path class="cls-1" d="M54.91,45A6,6,0,0,0,50,40.09a1,1,0,0,1-2,0A6,6,0,0,0,43.09,45a1,1,0,0,1,0,2A6,6,0,0,0,48,51.91a1,1,0,0,1,2,0A6,6,0,0,0,54.91,47,1,1,0,0,1,54.91,45ZM46.5,46a1.5,1.5,0,0,1,0-3A1.5,1.5,0,0,1,46.5,46ZM49,49a1,1,0,0,1,0-2A1,1,0,0,1,49,49Zm3-3a1,1,0,0,1,0-2A1,1,0,0,1,52,46Z"/><path class="cls-1" d="M49,32A14,14,0,1,0,63,46,14,14,0,0,0,49,32Zm9,15H56.94a8.13,8.13,0,0,1-1.62,3.9l1.39,1.39a1,1,0,0,1-1.42,1.42L53.9,52.32A8.13,8.13,0,0,1,50,53.94V55a1,1,0,0,1-2,0V53.94a8.13,8.13,0,0,1-3.9-1.62l-1.39,1.39a1,1,0,0,1-1.42-1.42l1.39-1.39A8.13,8.13,0,0,1,41.06,47H40a1,1,0,0,1,0-2h1.06a8.13,8.13,0,0,1,1.62-3.9l-1.39-1.39a1,1,0,0,1,1.42-1.42l1.39,1.39A8.13,8.13,0,0,1,48,38.06V37a1,1,0,0,1,2,0v1.06a8.13,8.13,0,0,1,3.9,1.62l1.39-1.39a1,1,0,0,1,1.42,1.42L55.32,41.1A8.13,8.13,0,0,1,56.94,45H58A1,1,0,0,1,58,47Z"/><path class="cls-1" d="M18.92,13.62A41.72,41.72,0,0,0,18,21.79a26,26,0,0,0,1.9,10.1,1,1,0,0,1-1.8.86C15.39,27,15.67,19.45,17,13.17c-5.52,6.77-6.18,8.61-7,12A1,1,0,0,1,8,24.72c1.31-5.53,3.69-8.36,9-14.73,0-1.77.14-3.19-1.27-4.68a1,1,0,0,0-1.46,1.38A3.17,3.17,0,0,1,15,9.16H10c-4,0-9,3.16-9,3.16s3.23,4.31,4,7.36.28,10.44,0,10.53c0,0,4.1-.66,6,0a14.29,14.29,0,0,1,7,6.32,14.26,14.26,0,0,1,6.22-.79,19.91,19.91,0,0,1,.93-9.35,6.42,6.42,0,0,1-2.11-4A25.43,25.43,0,0,1,18.92,13.62Z"/><path class="cls-1" d="M40.9,22.85a6.59,6.59,0,0,1-2,3.54A21.81,21.81,0,0,1,40,32.77a16.26,16.26,0,0,1,5-2.27c1.93-5.54,1.7-11.27.51-17C43.63,20.3,40.79,22.85,40.9,22.85Z"/><path class="cls-1" d="M52.59,30.4c.28-.13.56-.25.84-.35,1.9-.66,6,0,6,0-.28-.09-.74-7.61,0-10.53s4-7.36,4-7.36-5-3.16-9-3.16h-5V8.38a2.66,2.66,0,0,1,.73-1.85,1,1,0,0,0,0-1.42c-1.29-1.19-2.69,1.48-2.69,3.27V9.83c5.34,6.45,7.7,9.38,9,14.73a1,1,0,0,1-1.94.46c-.81-3.4-1.47-5.24-7-12,1.19,5.81,1.44,11.43-.24,17.09A16.26,16.26,0,0,1,52.59,30.4Z"/></g></svg>