<svg xmlns="http://www.w3.org/2000/svg" viewBox="0 0 64 64"><defs><style>.cls-1{fill:#231f20;}</style></defs><title>Chart</title><g id="Chart"><path class="cls-1" d="M63,62H1a1,1,0,0,0,0,2H63A1,1,0,0,0,63,62Z"/><rect class="cls-1" x="4" y="41" width="8" height="19"/><rect class="cls-1" x="36" y="49" width="8" height="11"/><rect class="cls-1" x="20" y="35" width="8" height="25"/><rect class="cls-1" x="52" y="21" width="8" height="39"/><path class="cls-1" d="M20,15h2.06a9.55,9.55,0,0,1,0-2H20A1,1,0,0,0,20,15Z"/><path class="cls-1" d="M42,15H44a1,1,0,0,0,0-2H42A9.55,9.55,0,0,1,42,15Z"/><path class="cls-1" d="M33,4.05V2a1,1,0,0,0-2,0V4.05A9.55,9.55,0,0,1,33,4.05Z"/><path class="cls-1" d="M31,24V26a1,1,0,0,0,2,0V24A9.55,9.55,0,0,1,31,24Z"/><path class="cls-1" d="M22.81,6.81c.78,0,.07-.51,2.16,1.58a9,9,0,0,0-1.14,9.38l1-1a1,1,0,0,1,1.42,1.41s-1,1.19-2.94,3.12a2,2,0,1,0,1.42,1.4L26.38,21a9,9,0,0,0,9.38,1.14l-1-1a1,1,0,0,1,1.42-1.41c1.53,1.53,2.87,2.7,3.1,2.93a2,2,0,1,0,1.42-1.4L39,19.62a8.94,8.94,0,0,0,1.14-9.37c-1.11,1.11-1.21,1.31-1.72,1.31a1,1,0,0,1-.71-1.71c1.55-1.55,1.93-2.1,2.94-3.11a2,2,0,1,0-1.49-1.93c0,.79.51.08-1.57,2.16a9,9,0,0,0-9.38-1.14l1,1a1,1,0,0,1-1.42,1.41c-1.53-1.53-2.06-1.9-3.1-2.93a2,2,0,0,0-.52-1.93,2,2,0,1,0-1.41,3.41Zm13.08,4A1.5,1.5,0,0,1,33.77,13,1.5,1.5,0,0,1,35.89,10.82Zm-4.6,6.72A1,1,0,0,1,32.71,19,1,1,0,0,1,31.29,17.54Zm-4.24-5.65a2.05,2.05,0,0,1,2.83,0h0a2,2,0,1,1-2.83,0Z"/></g></svg>