<svg xmlns="http://www.w3.org/2000/svg" viewBox="0 0 64 64"><defs><style>.cls-1{fill:#231f20;}</style></defs><title>Chemical</title><g id="Chemical"><path class="cls-1" d="M31.47,40.38c-6.39,3-8-3.64-14.45-.75-.1.1.05-.09-10.83,16.57a1.16,1.16,0,0,0,1,1.8H40.84A1.16,1.16,0,0,0,42,56.84C42,56.3,42.67,57.52,31.47,40.38Z"/><path class="cls-1" d="M30,29V7H18V29L2,53.46A6.17,6.17,0,0,0,7.16,63H40.84A6.17,6.17,0,0,0,46,53.46ZM40.84,60H7.16A3.17,3.17,0,0,1,4,56.84c0-1.37-.31-.49,11.49-18.53a1,1,0,0,1,.42-.38c5.65-2.64,8.2.25,11,1,3,.82,4.69-1.63,5.52-.63.1-.1,2.77,4.15,11,16.76A3.17,3.17,0,0,1,40.84,60Z"/><path class="cls-1" d="M18,5H30a2,2,0,0,0,0-4H18a2,2,0,0,0,0,4Z"/><path class="cls-1" d="M38,15h2.06a9.55,9.55,0,0,1,0-2H38A1,1,0,0,0,38,15Z"/><path class="cls-1" d="M62,13H60a11.13,11.13,0,0,1,0,2H62A1,1,0,0,0,62,13Z"/><path class="cls-1" d="M51,4V2a1,1,0,0,0-2,0V4A11.13,11.13,0,0,1,51,4Z"/><path class="cls-1" d="M49,23.94V26a1,1,0,0,0,2,0V23.94A9.55,9.55,0,0,1,49,23.94Z"/><path class="cls-1" d="M58.68,21.27,57,19.61a8.93,8.93,0,0,0,1.14-9.37c-1.12,1.12-1.22,1.31-1.72,1.31a1,1,0,0,1-.71-1.71c1.55-1.55,1.93-2.09,2.94-3.11A2,2,0,1,0,57.19,4.8c0,.8.51.08-1.57,2.16a9.07,9.07,0,0,0-9.38-1.14l1,1a1,1,0,0,1-1.42,1.41c-1.53-1.52-2.07-1.89-3.1-2.93A2,2,0,1,0,40.81,6.8c.78,0,.07-.51,2.16,1.58a9,9,0,0,0-1.14,9.38l1-1a1,1,0,0,1,1.42,1.41s-1,1.19-2.94,3.12a2,2,0,1,0,1.42,1.4L44.38,21a9,9,0,0,0,9.38,1.14l-1-1a1,1,0,0,1,1.42-1.41c1.53,1.53,2.86,2.7,3.1,2.93a2,2,0,1,0,1.42-1.4ZM47.88,14.7a2,2,0,0,1-2.83-2.82,2.05,2.05,0,0,1,2.83,0h0A2,2,0,0,1,47.88,14.7ZM50.71,19a1,1,0,0,1-1.42-1.42A1,1,0,0,1,50.71,19Zm1.06-6a1.5,1.5,0,0,1,2.12-2.13A1.5,1.5,0,0,1,51.77,12.94Z"/></g></svg>