<svg xmlns="http://www.w3.org/2000/svg" viewBox="0 0 64 64"><defs><style>.cls-1{fill:#231f20;}</style></defs><title>City Lockdown</title><g id="City_Lockdown" data-name="City Lockdown"><path class="cls-1" d="M8,63h3V53a1,1,0,0,1,2,0V63h2V53a1,1,0,0,1,2,0V63h3V50H8Z"/><rect class="cls-1" x="10" y="46" width="8" height="2"/><path class="cls-1" d="M14,44h5a1,1,0,0,1,1,1v3h1a1,1,0,0,1,1,1V63h2V40H14Z"/><path class="cls-1" d="M47,63h9V48H47Zm3-13h3a1,1,0,0,1,0,2H50A1,1,0,0,1,50,50Zm0,4h3a1,1,0,0,1,0,2H50A1,1,0,0,1,50,54Zm0,4h3a1,1,0,0,1,0,2H50A1,1,0,0,1,50,58Z"/><path class="cls-1" d="M50,41H42V63h3V47a1,1,0,0,1,1-1h4Z"/><rect class="cls-1" x="28" y="32" width="10" height="2"/><path class="cls-1" d="M26,63H40V36H26ZM36,39a1,1,0,0,1,2,0v1a1,1,0,0,1-2,0Zm0,5a1,1,0,0,1,2,0v1a1,1,0,0,1-2,0Zm0,5a1,1,0,0,1,2,0v1a1,1,0,0,1-2,0Zm0,5a1,1,0,0,1,2,0v1a1,1,0,0,1-2,0Zm0,5a1,1,0,0,1,2,0v1a1,1,0,0,1-2,0ZM32,39a1,1,0,0,1,2,0v1a1,1,0,0,1-2,0Zm0,5a1,1,0,0,1,2,0v1a1,1,0,0,1-2,0Zm0,5a1,1,0,0,1,2,0v1a1,1,0,0,1-2,0Zm0,5a1,1,0,0,1,2,0v1a1,1,0,0,1-2,0Zm0,5a1,1,0,0,1,2,0v1a1,1,0,0,1-2,0ZM28,39a1,1,0,0,1,2,0v1a1,1,0,0,1-2,0Zm0,5a1,1,0,0,1,2,0v1a1,1,0,0,1-2,0Zm0,5a1,1,0,0,1,2,0v1a1,1,0,0,1-2,0Zm0,5a1,1,0,0,1,2,0v1a1,1,0,0,1-2,0Zm0,5a1,1,0,0,1,2,0v1a1,1,0,0,1-2,0Z"/><path class="cls-1" d="M41,16.46V22a1,1,0,0,1-1,1H24a1,1,0,0,1-1-1V16.46C10.27,20.68,1,33.65,1,49V63H6V49a1,1,0,0,1,1-1H8V45a1,1,0,0,1,1-1h3V39a1,1,0,0,1,1-1H24V35a1,1,0,0,1,1-1h1V31a1,1,0,0,1,1-1h5V26a1,1,0,0,1,2,0v4h5a1,1,0,0,1,1,1v3h1a1,1,0,0,1,1,1v4h9a1,1,0,0,1,1,1v6h5a1,1,0,0,1,1,1V63h5V49C63,33.65,53.73,20.68,41,16.46Z"/><path class="cls-1" d="M39,10H25V21H39Zm-6,5.73V18a1,1,0,0,1-2,0V15.73a2,2,0,1,1,2,0Z"/><path class="cls-1" d="M28,7a4,4,0,0,1,8,0V8h2V7A6,6,0,0,0,26,7V8h2Z"/></g></svg>