<svg xmlns="http://www.w3.org/2000/svg" viewBox="0 0 64 64"><defs><style>.cls-1{fill:#231f20;}</style></defs><title>Cough</title><g id="Cough"><path class="cls-1" d="M43,39l2.89-.58A2.63,2.63,0,0,0,48,35.84c0-1.12-.24-1.17-4.07-6.53a2.69,2.69,0,0,1-.21-2.75c.37-.74.28-1.09.28-4.06A21.51,21.51,0,0,0,22.5,1C6,1-4,17.94,3.34,35.62,6.74,43.79,5.66,49.14,5,63H28V55c6,1.72,6.63,2,7.86,2A6.14,6.14,0,0,0,42,50.86c0-1.08-.16-.62.79-2a1.17,1.17,0,0,0-1-1.82H40a2,2,0,0,1,0-4h2.17A1.17,1.17,0,0,0,43,41Z"/><path class="cls-1" d="M48.34,42.94l11-4a1,1,0,0,0-.68-1.88l-11,4A1,1,0,0,0,48.34,42.94Z"/><path class="cls-1" d="M59.34,53.06l-11-4a1,1,0,0,0-.68,1.88l11,4A1,1,0,0,0,59.34,53.06Z"/><path class="cls-1" d="M62,45H46a1,1,0,0,0,0,2H62A1,1,0,0,0,62,45Z"/></g></svg>