<svg xmlns="http://www.w3.org/2000/svg" viewBox="0 0 64 64"><defs><style>.cls-1{fill:#231f20;}</style></defs><title>Earth Corona</title><g id="Earth_Corona" data-name="Earth Corona"><path class="cls-1" d="M31,44c0-3.27.82-3.47-.45-4.11-2.31-1.15-4.06-4.87-2.65-7.12.1,0-.39-.73-4.09-2.58-3.16-1.58-3.69-1.81-2.54-5.57.49-1.63,1-3.42.49-4.91A16,16,0,0,0,16.13,34a8.24,8.24,0,0,1,4.58,2.32c2.16,2.18,5,4.46,3,6.42a4.32,4.32,0,0,1-2.75.85A15.88,15.88,0,0,0,33,48,5.28,5.28,0,0,1,31,44Z"/><path class="cls-1" d="M27.58,30c-.7-1-2.64-2.3-1.29-3.66,1.59-1.57,2.79.54,4.26-.18C31.65,25.54,30.16,21,34,21c2.32,0,2.38,0,3-1.33-1-.21-3-.08-3-1.67a2.13,2.13,0,0,1,1.06-1.7,16.62,16.62,0,0,0-8.61.69,16.85,16.85,0,0,0-3,1.52c1.66,3.54-1.05,8-.68,8.82C23.11,27.68,25.85,28.88,27.58,30Z"/><path class="cls-1" d="M40,36c-.36-.67-3.82-.4-5.71-2.29-1.14-1.15-3.66-.36-4.67.1-.76,1,.44,3.6,1.83,4.3,3.77,1.88.11,5,2.28,7.76.11-1.92,2.11-2.91,3.82-3.76C39,41.4,40,38,40,36Z"/><path class="cls-1" d="M19.29,37.71a6.14,6.14,0,0,0-2.74-1.6,15.72,15.72,0,0,0,2.75,5.61C23.08,41.26,23.62,42,19.29,37.71Z"/><path class="cls-1" d="M45.53,31.89c-2.29-.62-6.54-2-6.82-4.32-.19-1.76,1.7-2.65,2.4-4,.56-1.13,1.8-1.5,3.71-1.09a15.88,15.88,0,0,0-7.43-5.52,5.78,5.78,0,0,1-.72.65A2.75,2.75,0,0,1,39,18.68a1.82,1.82,0,0,1-.08,1.77C37.67,22.91,37.21,23,34,23c-.63,0-.77.05-.92,1.61-.11,1.09-.25,2.59-1.63,3.28a3.44,3.44,0,0,1-2.83.17,5.47,5.47,0,0,1,1.52,3.44c1.58-.47,4-.79,5.57.79C37.49,34.07,42,32.91,42,36c0,2.13-1,6.64-3.55,7.89C34.37,46,36,46,36.16,47.44A16,16,0,0,0,47.85,34.12C46.43,32.09,47.92,32.51,45.53,31.89Z"/><path class="cls-1" d="M46.42,25.06a10.24,10.24,0,0,0-3-.76c-.88,0-.12,0-1.95,2-.32.33-.84.89-.82,1.08,0,0,0,.29.85.83A15.53,15.53,0,0,0,46.06,30a7.78,7.78,0,0,1,1.88.61A16,16,0,0,0,46.42,25.06Z"/><path class="cls-1" d="M57.17,31c-.26,0,.49,0-3.19,0,0-.1.08-.05-2-.05a1,1,0,0,1,0-2h1.79a21.71,21.71,0,0,0-2.26-7.07c.1-.06,2.59-1.46,2.81-1.68a2,2,0,1,0-1-1.65c-.32.09-2.76,1.54-2.86,1.6-1.69-2.25-2.91-4.27-6.67-6.68,1.75-3,1.51-2.59,1.58-2.85a2,2,0,0,0,1.79-1,2,2,0,0,0-3.46-2,2,2,0,0,0,0,2c-.44.45-1.58,2.85-1.68,2.81l0,0c-.91,1.58-1,2.05-1.76,2.05a1,1,0,0,1-.87-1.5l.8-1.39A21.85,21.85,0,0,0,33,10c0-.17,0-2.89,0-3.19a3,3,0,1,0-1.94,0c0,.26,0,2.73,0,3.19a21.74,21.74,0,0,0-9.12,2.45,21.79,21.79,0,0,0-1.67-2.82,2,2,0,0,0,0-2,2,2,0,0,0-3.46,2,2,2,0,0,0,1.66,1c.14,0,2.68,4.58,2.7,4.58a1,1,0,0,1-1.74,1l-.89-1.55a22.57,22.57,0,0,0-5,5.52c-.1-.06-2.54-1.51-2.86-1.6a2,2,0,1,0-.95,1.65c.23.23,2.71,1.62,2.81,1.68A21.88,21.88,0,0,0,10,31a30.83,30.83,0,0,0-3.19,0,3,3,0,1,0,0,2c.1-.1-.6,0,5.19,0a1,1,0,0,1,0,2H10.21a21.64,21.64,0,0,0,2.26,7.13c-.53.29-2.59,1.46-2.81,1.67a2,2,0,1,0,.95,1.67c.22-.06,2.74-1.55,2.86-1.62h0a21.76,21.76,0,0,0,6.67,6.68c-1.75,3-1.51,2.59-1.58,2.85a2,2,0,0,0-1.79,1,2,2,0,0,0,3.46,2,2,2,0,0,0,.06-1.87c-.09-.21-.31.35,2.62-4.74a1,1,0,0,1,1.73,1l-.93,1.61A21.62,21.62,0,0,0,31,54c0,.17,0,2.85,0,3.19a3,3,0,1,0,1.94,0c0-.26,0-2.73,0-3.19a21.74,21.74,0,0,0,9.12-2.45,21.79,21.79,0,0,0,1.67,2.82,2,2,0,0,0,0,2,2,2,0,0,0,3.46-2,2,2,0,0,0-1.77-1c-.05-.2-2.56-4.51-2.62-4.61a1,1,0,0,1,1.74-1l.92,1.6a22.57,22.57,0,0,0,5-5.52c.1.06,2.64,1.56,2.86,1.62a2,2,0,1,0,1-1.67c-.24-.23-2.71-1.62-2.81-1.67A22,22,0,0,0,54,33c3.68,0,2.93,0,3.19,0a3,3,0,1,0,0-1.94ZM49.9,34c-2.38,16.64-22.15,21.26-31.8,9.48h0c-8.76-10.51-2.62-27,11-29.18A18,18,0,0,1,49.9,34Z"/></g></svg>