<svg xmlns="http://www.w3.org/2000/svg" viewBox="0 0 64 64"><defs><style>.cls-1{fill:#231f20;}</style></defs><title>Eye Infected</title><g id="Eye_Infected" data-name="Eye Infected"><circle class="cls-1" cx="32" cy="16" r="3"/><path class="cls-1" d="M32,24a8,8,0,1,0-8-8A8,8,0,0,0,32,24Zm0-13a5,5,0,1,1-5,5A5,5,0,0,1,32,11Z"/><path class="cls-1" d="M32,32C45.64,32,52.9,16,44.27,5.73a1,1,0,0,1-.18-.93,41.5,41.5,0,0,0-24.18,0,1,1,0,0,1-.18.93C11.1,16,18.37,32,32,32ZM32,6A10,10,0,1,1,22,16,10,10,0,0,1,32,6Z"/><path class="cls-1" d="M52.53,31.39A27.09,27.09,0,0,0,63,20C60.13,13.79,54.28,8.68,46.8,5.74,55,17.6,46.56,34,32,34A18,18,0,0,1,17.2,5.74C9.72,8.68,3.87,13.79,1,20,6.64,32.24,22.36,38.41,36.72,36.73A16,16,0,0,1,52.53,31.39Z"/><path class="cls-1" d="M54.91,46A6,6,0,0,0,50,41.09a1,1,0,0,1-2,0A6,6,0,0,0,43.09,46a1,1,0,0,1,0,2A6,6,0,0,0,48,52.91a1,1,0,0,1,2,0A6,6,0,0,0,54.91,48,1,1,0,0,1,54.91,46ZM46.5,47a1.5,1.5,0,0,1,0-3A1.5,1.5,0,0,1,46.5,47ZM49,50a1,1,0,0,1,0-2A1,1,0,0,1,49,50Zm3-3a1,1,0,0,1,0-2A1,1,0,0,1,52,47Z"/><path class="cls-1" d="M49,33A14,14,0,1,0,63,47,14,14,0,0,0,49,33Zm9,15H56.94a8.13,8.13,0,0,1-1.62,3.9l1.39,1.39a1,1,0,0,1-1.42,1.42L53.9,53.32A8.13,8.13,0,0,1,50,54.94V56a1,1,0,0,1-2,0V54.94a8.13,8.13,0,0,1-3.9-1.62l-1.39,1.39a1,1,0,0,1-1.42-1.42l1.39-1.39A8.13,8.13,0,0,1,41.06,48H40a1,1,0,0,1,0-2h1.06a8.13,8.13,0,0,1,1.62-3.9l-1.39-1.39a1,1,0,0,1,1.42-1.42l1.39,1.39A8.13,8.13,0,0,1,48,39.06V38a1,1,0,0,1,2,0v1.06a8.13,8.13,0,0,1,3.9,1.62l1.39-1.39a1,1,0,0,1,1.42,1.42L55.32,42.1A8.13,8.13,0,0,1,56.94,46H58A1,1,0,0,1,58,48Z"/></g></svg>