<svg xmlns="http://www.w3.org/2000/svg" viewBox="0 0 64 64"><defs><style>.cls-1{fill:#231f20;}</style></defs><title>Fever</title><g id="Fever"><path class="cls-1" d="M44,29.31a2.67,2.67,0,0,1-.21-2.75c.37-.77.28-1.1.28-4.06A21.55,21.55,0,0,0,1,22.5a31.36,31.36,0,0,0,2.37,13C6.93,43.59,5.72,50,5.1,63h23V55l6.17,1.76a6.11,6.11,0,0,0,6-1.56c2.12-2.12,1.8-4.28,1.8-7.2a1.73,1.73,0,0,0,.33-2c-5.09,0-5.69-.23-6.63.71a1,1,0,0,1-1.41,0C33.16,45.48,35.74,44,37.51,44h5.88a1.72,1.72,0,0,0-.11-1.73c-.25-.38-.18.18-.18-3.27L46,38.42a2.63,2.63,0,0,0,2.12-2.58C48.1,34.72,47.91,34.73,44,29.31ZM31,20H29.94a8.13,8.13,0,0,1-1.62,3.9l1.39,1.39a1,1,0,0,1-1.42,1.42L26.9,25.32A8.13,8.13,0,0,1,23,26.94V28a1,1,0,0,1-2,0V26.94a8.13,8.13,0,0,1-3.9-1.62l-1.39,1.39a1,1,0,0,1-1.42-1.42l1.39-1.39A8.13,8.13,0,0,1,14.06,20H13a1,1,0,0,1,0-2h1.06a8.13,8.13,0,0,1,1.62-3.9l-1.39-1.39a1,1,0,0,1,1.42-1.42l1.39,1.39A8.13,8.13,0,0,1,21,11.06V10a1,1,0,0,1,2,0v1.06a8.13,8.13,0,0,1,3.9,1.62l1.39-1.39a1,1,0,0,1,1.42,1.42L28.32,14.1A8.13,8.13,0,0,1,29.94,18H31A1,1,0,0,1,31,20Z"/><path class="cls-1" d="M27.91,18A6,6,0,0,0,23,13.09a1,1,0,0,1-2,0A6,6,0,0,0,16.09,18a1,1,0,0,1,0,2A6,6,0,0,0,21,24.91a1,1,0,0,1,2,0A6,6,0,0,0,27.91,20,1,1,0,0,1,27.91,18ZM19.5,19a1.5,1.5,0,0,1,0-3A1.5,1.5,0,0,1,19.5,19ZM22,22a1,1,0,0,1,0-2A1,1,0,0,1,22,22Zm3-3a1,1,0,0,1,0-2A1,1,0,0,1,25,19Z"/><path class="cls-1" d="M61,25.54V5a4,4,0,0,0-8,0V25.54a6,6,0,1,0,8,0ZM57,32a2,2,0,0,1-1-3.73V11a1,1,0,0,1,2,0V28.27A2,2,0,0,1,57,32Z"/></g></svg>