<svg xmlns="http://www.w3.org/2000/svg" viewBox="0 0 64 64"><defs><style>.cls-1{fill:#231f20;}</style></defs><title>Flu</title><g id="Flu"><path class="cls-1" d="M40,19c-2.09-2.09-3.91-10.48-5.17-18H15.17C13.91,8.52,12.09,16.91,10,19c-3.54,3.54-9,8-9,14,0,10.74,11.56,11.74,15.87,8.12C15.53,40,14.35,39,13,39c-2.44,0-3.31.72-3.32.73a1,1,0,0,1-1.39-1.44C8.51,38.08,9.75,37,13,37c4.51,0,6.47,6,12,6s7.45-6,12-6c3.25,0,4.49,1.08,4.71,1.29a1,1,0,0,1-1.39,1.44c-.06,0-1-.73-3.32-.73-1.35,0-2.53,1-3.87,2.12C37.48,44.77,49,43.72,49,33,49,27,43.54,22.54,40,19Z"/><path class="cls-1" d="M11,57a6,6,0,0,0,12,0c0-5-6-12-6-12S11,52,11,57Z"/><path class="cls-1" d="M63,9H60a1,1,0,0,1,0-2h.32a6.72,6.72,0,0,0-.73-1.2,23.44,23.44,0,0,0,2.12-2.09,1,1,0,0,0-1.42-1.42c-2.57,2.57-2,2-2.08,2.11A6.88,6.88,0,0,0,55,3.08V1a1,1,0,0,0-2,0V4a1,1,0,0,1-2,0V3.68a6.82,6.82,0,0,0-1.2.73c-.15-.18.3.28-2.09-2.12a1,1,0,0,0-1.42,1.42c2.57,2.57,2,2,2.11,2.08A7.07,7.07,0,0,0,47.08,9H48a1,1,0,0,1,0,2H45a1,1,0,0,0,0,2h2.69a6.36,6.36,0,0,0,.72,1.2c-.18.15.28-.3-2.12,2.09a1,1,0,0,0,1.42,1.42c2.56-2.57,2-2,2.09-2.12A6.67,6.67,0,0,0,53,16.92V19a1,1,0,0,0,2,0V16a1,1,0,0,1,2,0v.32a6.72,6.72,0,0,0,1.2-.73,23.44,23.44,0,0,0,2.09,2.12,1,1,0,0,0,1.42-1.42c-2.57-2.57-2-2-2.11-2.08A6.93,6.93,0,0,0,60.92,11H63A1,1,0,0,0,63,9ZM51.5,10a1.5,1.5,0,0,1,0-3A1.5,1.5,0,0,1,51.5,10ZM54,13a1,1,0,0,1,0-2A1,1,0,0,1,54,13Zm3-3a1,1,0,0,1,0-2A1,1,0,0,1,57,10Z"/></g></svg>