<svg xmlns="http://www.w3.org/2000/svg" viewBox="0 0 64 64"><defs><style>.cls-1{fill:#231f20;}</style></defs><title>Frog Quarantine</title><g id="Frog_Quarantine" data-name="Frog Quarantine"><path class="cls-1" d="M43.81,14.49a24.5,24.5,0,0,0-5.55-3.8c.73,3.13-.33,3.24,2.09,8.69,6.93,3.54,8.56-7.11,8.61-7.21s.18-.2,3-2.86a1.85,1.85,0,0,0,2.29-1.76,1.87,1.87,0,0,0-3.74,0c0,.5.38,0-1.49,1.78V6.62a1.82,1.82,0,1,0-2,0v2.7c-1.86-1.75-1.48-1.27-1.48-1.77a1.87,1.87,0,0,0-3.74,0,1.85,1.85,0,0,0,2.28,1.76l2.8,2.63A11.58,11.58,0,0,1,43.81,14.49Z"/><path class="cls-1" d="M12.1,33.78a43.86,43.86,0,0,0,5.81,3.93c.35.12,5.1,3.2,10.09,3.2a20.44,20.44,0,0,0,9.19-2.7,15.92,15.92,0,0,1,6.59-4.33,1.08,1.08,0,0,1,1-.31A15.81,15.81,0,0,1,49.89,33c0-1.74-.4-4.25-3.3-5.16-1.08-.34-2.57-.07-4.63.86a9.19,9.19,0,0,1-.63,2.53c-1.85,4.56-8.34,7.56-9,7.56a1,1,0,0,1-.43-1.91c8.06-3.79,10.13-8,6.35-17.31-2.61-6.49-1.15-5.21-2.05-8.81-4.36,2.1-8-4.1-4.45-7.41a5.85,5.85,0,0,0-7.56,0c3.56,3.32-.1,9.5-4.45,7.41-.87,3.46.47,2.71-2.05,8.81C14,28.84,16,33.11,24.07,36.91a1,1,0,0,1-.43,1.91c-.61,0-8.87-3.48-9.6-10.09-2-.91-3.57-1.2-4.63-.87C6.1,28.9,6.1,32,6.1,33.73c0,1.4,2.81,4,5.85,6.36H10l-3.72-2.8a1.83,1.83,0,0,0-1.84-2.11,1.82,1.82,0,1,0,0,3.64c.71,0,0-.42,2.23,1.27H3.43a1.86,1.86,0,1,0,0,2H6.71c-2.26,1.69-1.52,1.27-2.23,1.27a1.82,1.82,0,1,0,0,3.64,1.83,1.83,0,0,0,1.84-2.11l2.8-2.11c4.15,1.18,10.79,2.37,10.53-1.94a42.94,42.94,0,0,1-8.84-5.53A1,1,0,0,1,12.1,33.78Z"/><path class="cls-1" d="M49.42,35a14,14,0,0,0-10.94,4.77C30.66,48.6,36.83,63,49,63a14,14,0,0,0,.42-28ZM58,50H56.94a8.13,8.13,0,0,1-1.62,3.9l1.39,1.39a1,1,0,0,1-1.42,1.42L53.9,55.32A8.13,8.13,0,0,1,50,56.94V58a1,1,0,0,1-2,0V56.94a8.13,8.13,0,0,1-3.9-1.62l-1.39,1.39a1,1,0,0,1-1.42-1.42l1.39-1.39A8.13,8.13,0,0,1,41.06,50H40a1,1,0,0,1,0-2h1.06a8.13,8.13,0,0,1,1.62-3.9l-1.39-1.39a1,1,0,0,1,1.42-1.42l1.39,1.39A8.13,8.13,0,0,1,48,41.06V40a1,1,0,0,1,2,0v1.06a8.13,8.13,0,0,1,3.9,1.62l1.39-1.39a1,1,0,0,1,1.42,1.42L55.32,44.1A8.13,8.13,0,0,1,56.94,48H58A1,1,0,0,1,58,50Z"/><path class="cls-1" d="M54.91,48A6,6,0,0,0,50,43.09a1,1,0,0,1-2,0A6,6,0,0,0,43.09,48a1,1,0,0,1,0,2A6,6,0,0,0,48,54.91a1,1,0,0,1,2,0A6,6,0,0,0,54.91,50,1,1,0,0,1,54.91,48ZM46.5,49a1.5,1.5,0,0,1,0-3A1.5,1.5,0,0,1,46.5,49ZM49,52a1,1,0,0,1,0-2A1,1,0,0,1,49,52Zm3-3a1,1,0,0,1,0-2A1,1,0,0,1,52,49Z"/><path class="cls-1" d="M21.47,9.18a2.33,2.33,0,0,0,2.18-2.45,2.33,2.33,0,0,0-2.18-2.46,2.33,2.33,0,0,0-2.18,2.46A2.33,2.33,0,0,0,21.47,9.18Z"/><path class="cls-1" d="M34.53,9.18a2.33,2.33,0,0,0,2.18-2.45,2.2,2.2,0,1,0-4.36,0A2.33,2.33,0,0,0,34.53,9.18Z"/><path class="cls-1" d="M3.61,9.36c.66,0-.15-.58,3.42,2.77H7v0s0,0,0,0,1.55,10.71,8.6,7.19h0c2.64-5.94,1.27-5.16,2.09-8.69a24.5,24.5,0,0,0-5.55,3.8,11.72,11.72,0,0,1-3.08-2.55c3.35-3.14,2.57-2.58,3.21-2.58a1.82,1.82,0,1,0-1.83-1.47L9,9.32V6.62A1.81,1.81,0,0,0,8,3.27,1.81,1.81,0,0,0,7,6.62v2.7L5.44,7.89A1.83,1.83,0,0,0,3.61,5.73,1.82,1.82,0,1,0,3.61,9.36Z"/></g></svg>