<svg xmlns="http://www.w3.org/2000/svg" viewBox="0 0 64 64"><defs><style>.cls-1{fill:#231f20;}</style></defs><title>Hand Infected</title><g id="Hand_Infected" data-name="Hand Infected"><path class="cls-1" d="M52.91,48A6,6,0,0,0,48,43.09a1,1,0,0,1-2,0A6,6,0,0,0,41.09,48a1,1,0,0,1,0,2A6,6,0,0,0,46,54.91a1,1,0,0,1,2,0A6,6,0,0,0,52.91,50,1,1,0,0,1,52.91,48ZM44,49a1,1,0,0,1,0-2A1,1,0,0,1,44,49Zm3,3a1,1,0,0,1,0-2A1,1,0,0,1,47,52Zm2.5-3a1.5,1.5,0,0,1,0-3A1.5,1.5,0,0,1,49.5,49Z"/><path class="cls-1" d="M47,35A14,14,0,1,0,61,49,14,14,0,0,0,47,35Zm9,15H54.94a8.13,8.13,0,0,1-1.62,3.9l1.39,1.39a1,1,0,0,1-1.42,1.42L51.9,55.32A8.13,8.13,0,0,1,48,56.94V58a1,1,0,0,1-2,0V56.94a8.13,8.13,0,0,1-3.9-1.62l-1.39,1.39a1,1,0,0,1-1.42-1.42l1.39-1.39A8.13,8.13,0,0,1,39.06,50H38a1,1,0,0,1,0-2h1.06a8.13,8.13,0,0,1,1.62-3.9l-1.39-1.39a1,1,0,0,1,1.42-1.42l1.39,1.39A8.13,8.13,0,0,1,46,41.06V40a1,1,0,0,1,2,0v1.06a8.13,8.13,0,0,1,3.9,1.62l1.39-1.39a1,1,0,0,1,1.42,1.42L53.32,44.1A8.13,8.13,0,0,1,54.94,48H56A1,1,0,0,1,56,50Z"/><path class="cls-1" d="M36.89,36.61c.16-.11.11,1.46.11-26a2.5,2.5,0,1,0-5-.1V28a1,1,0,0,1-2,0V5.6a2.55,2.55,0,0,0-2-2.54A2.5,2.5,0,0,0,25,5.5V28a1,1,0,0,1-2,0V3.6a2.5,2.5,0,1,0-5-.1V28a1,1,0,0,1-2,0V5.5a2.5,2.5,0,1,0-5,.1V33.21A12.14,12.14,0,0,1,20,45a1,1,0,0,1-2,0A10.15,10.15,0,0,0,9.78,35,1,1,0,0,1,9,34V25c0-4-4.59-5.82-5.71-4.7-.41.39-.29-.47-.29,14.48,0,13.52,9,12.69,9,20.79V63H32c0-9.71.1-8.08-.25-9.14A16,16,0,0,1,36.89,36.61Z"/></g></svg>