<svg xmlns="http://www.w3.org/2000/svg" viewBox="0 0 64 64"><defs><style>.cls-1{fill:#231f20;}</style></defs><title>Hand Wash</title><g id="Hand_Wash" data-name="Hand Wash"><path class="cls-1" d="M57.93,46a9.09,9.09,0,0,0-6-6.69L51,39c-7.3-7-7.13-7.14-8.22-7.14-2.15,0-3.78,3.88-1.41,6.25L45.26,42H25a2,2,0,0,0,0,4H37a1,1,0,0,1,0,2c-16.43,0-15.62-.23-16.41.59A2,2,0,0,0,22,52H38a1,1,0,0,1,0,2H25a2,2,0,1,0,0,4H39a1,1,0,0,1,0,2H27.5a1.5,1.5,0,0,0,0,3H48.88a14.59,14.59,0,0,0,8.85-3H63V46Z"/><rect class="cls-1" x="1" y="11" width="5" height="12"/><path class="cls-1" d="M23.74,21A4,4,0,0,1,28,25v1h7c0-3.21-.06-6.46-3.3-9.7a11.22,11.22,0,0,0-8-3.3,7,7,0,0,0-10.63-1H8V22h5.11A7,7,0,0,0,23.74,21Z"/><path class="cls-1" d="M11,3h6V5H15V8.51a9,9,0,0,1,6,0V5H19V3h6a1,1,0,0,0,0-2H11A1,1,0,0,0,11,3Z"/><path class="cls-1" d="M31,39a3.67,3.67,0,0,0,3.67-3.67C34.67,32.28,31,28,31,28s-3.67,4.28-3.67,7.33A3.67,3.67,0,0,0,31,39Z"/></g></svg>