<svg xmlns="http://www.w3.org/2000/svg" viewBox="0 0 64 64"><defs><style>.cls-1{fill:#231f20;}</style></defs><title>Hand Sanitizer</title><g id="Hand_Sanitizer" data-name="Hand Sanitizer"><path class="cls-1" d="M45.24,27.62,38,25H26l-7.79,2.89C15.64,29.18,16,31.63,16,34H48V32.09A5,5,0,0,0,45.24,27.62Z"/><path class="cls-1" d="M32,52a6,6,0,1,0-6-6A6,6,0,0,0,32,52Zm-3-7h2V43a1,1,0,0,1,2,0v2h2a1,1,0,0,1,0,2H33v2a1,1,0,0,1-2,0V47H29A1,1,0,0,1,29,45Z"/><path class="cls-1" d="M16,56H48V36H16ZM32,38a8,8,0,1,1-8,8A8,8,0,0,1,32,38Z"/><path class="cls-1" d="M16,60a4,4,0,0,0,4,4H43a5,5,0,0,0,5-5V58H16Z"/><polygon class="cls-1" points="38 18 36 18 36 15 28 15 28 18 26 18 26 23 38 23 38 18"/><path class="cls-1" d="M40,4h5V1A133.29,133.29,0,0,0,27,0V7H37A3,3,0,0,1,40,4Z"/><rect class="cls-1" x="30" y="9" width="4" height="4"/></g></svg>