<svg xmlns="http://www.w3.org/2000/svg" viewBox="0 0 64 64"><defs><style>.cls-1{fill:#231f20;}</style></defs><title>Hospital</title><g id="Hospital"><rect class="cls-1" x="10" y="52" width="7" height="11"/><rect class="cls-1" x="19" y="52" width="7" height="11"/><rect class="cls-1" x="6" y="41" width="4" height="4"/><rect class="cls-1" x="6" y="21" width="4" height="4"/><rect class="cls-1" x="16" y="21" width="4" height="4"/><rect class="cls-1" x="6" y="31" width="4" height="4"/><rect class="cls-1" x="16" y="31" width="4" height="4"/><rect class="cls-1" x="16" y="41" width="4" height="4"/><rect class="cls-1" x="26" y="21" width="4" height="4"/><path class="cls-1" d="M27,16a1,1,0,0,1-1,1H10a1,1,0,0,1-1-1V11H1V63H8V51a1,1,0,0,1,1-1H27a1,1,0,0,1,1,1V63h7V11H27ZM12,46a1,1,0,0,1-1,1H5a1,1,0,0,1-1-1V40a1,1,0,0,1,1-1h6a1,1,0,0,1,1,1Zm0-10a1,1,0,0,1-1,1H5a1,1,0,0,1-1-1V30a1,1,0,0,1,1-1h6a1,1,0,0,1,1,1Zm0-10a1,1,0,0,1-1,1H5a1,1,0,0,1-1-1V20a1,1,0,0,1,1-1h6a1,1,0,0,1,1,1ZM22,46a1,1,0,0,1-1,1H15a1,1,0,0,1-1-1V40a1,1,0,0,1,1-1h6a1,1,0,0,1,1,1Zm0-10a1,1,0,0,1-1,1H15a1,1,0,0,1-1-1V30a1,1,0,0,1,1-1h6a1,1,0,0,1,1,1Zm0-10a1,1,0,0,1-1,1H15a1,1,0,0,1-1-1V20a1,1,0,0,1,1-1h6a1,1,0,0,1,1,1ZM32,46a1,1,0,0,1-1,1H25a1,1,0,0,1-1-1V40a1,1,0,0,1,1-1h6a1,1,0,0,1,1,1Zm0-10a1,1,0,0,1-1,1H25a1,1,0,0,1-1-1V30a1,1,0,0,1,1-1h6a1,1,0,0,1,1,1Zm0-16v6a1,1,0,0,1-1,1H25a1,1,0,0,1-1-1V20a1,1,0,0,1,1-1h6A1,1,0,0,1,32,20Z"/><rect class="cls-1" x="26" y="41" width="4" height="4"/><rect class="cls-1" x="26" y="31" width="4" height="4"/><path class="cls-1" d="M25,1H11V15H25ZM21,9H19v2a1,1,0,0,1-2,0V9H15a1,1,0,0,1,0-2h2V5a1,1,0,0,1,2,0V7h2A1,1,0,0,1,21,9Z"/><rect class="cls-1" x="37" y="39" width="6" height="2"/><rect class="cls-1" x="37" y="47" width="6" height="2"/><rect class="cls-1" x="37" y="55" width="6" height="2"/><path class="cls-1" d="M37,37h7a1,1,0,0,1,1,1v4a1,1,0,0,1-1,1H37v2h7a1,1,0,0,1,1,1v4a1,1,0,0,1-1,1H37v2h7a1,1,0,0,1,1,1v4a1,1,0,0,1-1,1H37v4H49V34H37Z"/><rect class="cls-1" x="37" y="29" width="10" height="3"/><rect class="cls-1" x="4" y="6" width="5" height="3"/><rect class="cls-1" x="27" y="6" width="5" height="3"/><path class="cls-1" d="M38,15h2.06a9.55,9.55,0,0,1,0-2H38A1,1,0,0,0,38,15Z"/><path class="cls-1" d="M62,13H60a9.55,9.55,0,0,1,0,2H62A1,1,0,0,0,62,13Z"/><path class="cls-1" d="M51,4.05V2a1,1,0,0,0-2,0V4.05A9.55,9.55,0,0,1,51,4.05Z"/><path class="cls-1" d="M49,24V26a1,1,0,0,0,2,0V24A9.55,9.55,0,0,1,49,24Z"/><path class="cls-1" d="M58.68,21.28,57,19.62a8.94,8.94,0,0,0,1.14-9.37c-1.11,1.11-1.21,1.31-1.72,1.31a1,1,0,0,1-.71-1.71c1.55-1.55,1.93-2.1,2.94-3.11a2,2,0,1,0-1.49-1.93c0,.79.51.08-1.57,2.16a9,9,0,0,0-9.38-1.14l1,1a1,1,0,0,1-1.42,1.41c-1.53-1.53-2.06-1.89-3.1-2.93a2,2,0,0,0-.52-1.93,2,2,0,1,0-1.41,3.41c.78,0,.07-.51,2.16,1.58a9,9,0,0,0-1.14,9.38l1-1a1,1,0,0,1,1.42,1.41s-1,1.19-2.94,3.12a2,2,0,1,0,1.42,1.4L44.38,21a9,9,0,0,0,9.38,1.14l-1-1a1,1,0,0,1,1.42-1.41c1.53,1.53,2.87,2.7,3.1,2.93a2,2,0,1,0,1.42-1.4Zm-10.8-6.57a2,2,0,0,1-2.83-2.82,2.05,2.05,0,0,1,2.83,0h0A2,2,0,0,1,47.88,14.71ZM50.71,19a1,1,0,0,1-1.42-1.42A1,1,0,0,1,50.71,19Zm1.06-6a1.5,1.5,0,0,1,2.12-2.13A1.5,1.5,0,0,1,51.77,13Z"/></g></svg>