<svg xmlns="http://www.w3.org/2000/svg" viewBox="0 0 64 64"><defs><style>.cls-1{fill:#231f20;}</style></defs><title>Infected Crowd</title><g id="Infected_Crowd" data-name="Infected Crowd"><path class="cls-1" d="M15,37V34A5,5,0,0,0,5,34v3a5,5,0,0,0,10,0Z"/><path class="cls-1" d="M14,42H6a6,6,0,0,0-6,6V60a2,2,0,0,0,2.81,1.82c.29,0,.19.49.19-14.82a1,1,0,0,1,2,0V64H15V47a1,1,0,0,1,2,0c0,15.83-.09,14.69.18,14.82A2,2,0,0,0,20,60V48A6,6,0,0,0,14,42Z"/><path class="cls-1" d="M58,42H50a6,6,0,0,0-6,6V60a2,2,0,0,0,2.81,1.82c.29,0,.19.49.19-14.82a1,1,0,0,1,2,0V64H59V47a1,1,0,0,1,2,0c0,15.83-.09,14.69.18,14.82A2,2,0,0,0,64,60V48A6,6,0,0,0,58,42Z"/><path class="cls-1" d="M59,37V34a5,5,0,0,0-10,0v3a5,5,0,0,0,10,0Z"/><path class="cls-1" d="M36,42H28a6,6,0,0,0-6,6V60a2,2,0,0,0,2.81,1.82c.29,0,.19.49.19-14.82a1,1,0,0,1,2,0V64H37V47a1,1,0,0,1,2,0c0,15.83-.09,14.69.18,14.82A2,2,0,0,0,42,60V48A6,6,0,0,0,36,42Z"/><path class="cls-1" d="M37,37V34a5,5,0,0,0-10,0v3a5,5,0,0,0,10,0Z"/><path class="cls-1" d="M20,15h2.06a9.55,9.55,0,0,1,0-2H20A1,1,0,0,0,20,15Z"/><path class="cls-1" d="M42,15H44a1,1,0,0,0,0-2H42A9.55,9.55,0,0,1,42,15Z"/><path class="cls-1" d="M33,4.05V2a1,1,0,0,0-2,0V4.05A9.55,9.55,0,0,1,33,4.05Z"/><path class="cls-1" d="M33,26V24a9.55,9.55,0,0,1-2,0V26A1,1,0,0,0,33,26Z"/><path class="cls-1" d="M40.68,21.28,39,19.62a8.94,8.94,0,0,0,1.14-9.37c-1.11,1.11-1.21,1.31-1.72,1.31a1,1,0,0,1-.71-1.71c1.55-1.55,1.93-2.1,2.94-3.11a2,2,0,1,0-1.49-1.93c0,.79.51.08-1.57,2.16a9,9,0,0,0-9.38-1.14l1,1a1,1,0,0,1-1.42,1.41c-1.53-1.53-2.06-1.9-3.1-2.93a2,2,0,0,0-.52-1.93,2,2,0,1,0-1.41,3.41c.78,0,.07-.51,2.16,1.58a9,9,0,0,0-1.14,9.38l1-1a1,1,0,0,1,1.42,1.41s-1,1.19-2.94,3.12a2,2,0,1,0,1.42,1.4L26.38,21a9,9,0,0,0,9.38,1.14l-1-1a1,1,0,0,1,1.42-1.41c1.53,1.53,2.87,2.7,3.1,2.93a2,2,0,1,0,1.42-1.4Zm-10.8-6.57a2,2,0,0,1-2.83-2.82,2.05,2.05,0,0,1,2.83,0h0A2,2,0,0,1,29.88,14.71ZM32.71,19a1,1,0,0,1-1.42-1.42A1,1,0,0,1,32.71,19Zm1.06-6a1.5,1.5,0,0,1,2.12-2.13A1.5,1.5,0,0,1,33.77,13Z"/></g></svg>