<svg xmlns="http://www.w3.org/2000/svg" viewBox="0 0 64 64"><defs><style>.cls-1{fill:#231f20;}</style></defs><title>Lockdown Area</title><g id="Lockdown_Area" data-name="Lockdown Area"><polygon class="cls-1" points="5 29 5 38.77 9.89 29 5 29"/><path class="cls-1" d="M15.89,29H12c0,.33.41-.6-5.88,12H10C10,40.67,9.59,41.6,15.89,29Z"/><path class="cls-1" d="M18,41c0-.33-.41.6,5.89-12H18c0,.33.41-.6-5.88,12Z"/><path class="cls-1" d="M20.12,41H24c0-.33-.41.6,5.89-12H26C26,29.33,26.41,28.4,20.12,41Z"/><path class="cls-1" d="M37.89,29H32c0,.33.41-.6-5.88,12H32C32,40.67,31.59,41.6,37.89,29Z"/><path class="cls-1" d="M43.89,29H40c0,.33.41-.6-5.88,12H38C38,40.67,37.59,41.6,43.89,29Z"/><path class="cls-1" d="M46,41c0-.33-.41.6,5.89-12H46c0,.33.41-.6-5.88,12Z"/><path class="cls-1" d="M57.89,29H54c0,.33.41-.6-5.88,12H52C52,40.67,51.59,41.6,57.89,29Z"/><polygon class="cls-1" points="54.12 41 59 41 59 31.23 54.12 41"/><rect class="cls-1" x="10" y="43" width="4" height="20"/><rect class="cls-1" x="50" y="43" width="4" height="20"/><rect class="cls-1" x="16" y="48" width="32" height="4"/><path class="cls-1" d="M11,25.72V27h2V25.72a2,2,0,1,0-2,0Z"/><path class="cls-1" d="M51,25.72V27h2V25.72a2,2,0,1,0-2,0Z"/><path class="cls-1" d="M20,15h2.06a9.55,9.55,0,0,1,0-2H20A1,1,0,0,0,20,15Z"/><path class="cls-1" d="M42,15H44a1,1,0,0,0,0-2H42A9.55,9.55,0,0,1,42,15Z"/><path class="cls-1" d="M33,4.05V2a1,1,0,0,0-2,0V4.05A9.55,9.55,0,0,1,33,4.05Z"/><path class="cls-1" d="M33,26V24a9.55,9.55,0,0,1-2,0V26A1,1,0,0,0,33,26Z"/><path class="cls-1" d="M22.81,6.81c.78,0,.07-.51,2.16,1.58a9,9,0,0,0-1.14,9.38l1-1a1,1,0,0,1,1.42,1.41s-1,1.19-2.94,3.12a2,2,0,1,0,1.42,1.4L26.38,21a9,9,0,0,0,9.38,1.14l-1-1a1,1,0,0,1,1.42-1.41c1.53,1.53,2.87,2.7,3.1,2.93a2,2,0,1,0,1.42-1.4L39,19.62a8.94,8.94,0,0,0,1.14-9.37c-1.11,1.11-1.21,1.31-1.72,1.31a1,1,0,0,1-.71-1.71c1.55-1.55,1.93-2.1,2.94-3.11a2,2,0,1,0-1.49-1.93c0,.79.51.08-1.57,2.16a9,9,0,0,0-9.38-1.14l1,1a1,1,0,0,1-1.42,1.41c-1.53-1.53-2.06-1.89-3.1-2.93a2,2,0,0,0-.52-1.93,2,2,0,1,0-1.41,3.41Zm13.08,4A1.5,1.5,0,0,1,33.77,13,1.5,1.5,0,0,1,35.89,10.82Zm-4.6,6.72A1,1,0,0,1,32.71,19,1,1,0,0,1,31.29,17.54Zm-4.24-5.65a2.05,2.05,0,0,1,2.83,0h0a2,2,0,1,1-2.83,0Z"/></g></svg>