<svg xmlns="http://www.w3.org/2000/svg" viewBox="0 0 64 64"><defs><style>.cls-1{fill:#231f20;}</style></defs><title>Lung Infected</title><g id="Lung_Infected" data-name="Lung Infected"><path class="cls-1" d="M17.5,49a1.5,1.5,0,0,0,0,3A1.5,1.5,0,0,0,17.5,49Z"/><path class="cls-1" d="M14.7,35.7A3,3,0,1,0,12,40,3,3,0,0,0,14.7,35.7Z"/><path class="cls-1" d="M53.5,37a1.5,1.5,0,0,0,0-3A1.5,1.5,0,0,0,53.5,37Z"/><path class="cls-1" d="M50.28,15.11C45.8,10.94,39,13.3,39,18.89V21l4.5,2.6a1,1,0,0,1-.5,1.87c-.2,0,.42.33-8-4.54v-2.2a16.71,16.71,0,0,1-6,0V20.9l-7.86,4.54a1,1,0,0,1-.64-1.86L25,21V18.89c0-5.56-6.78-8-11.28-3.78A40.13,40.13,0,0,0,1,44.41V56.93A6.07,6.07,0,0,0,7.07,63c1.39,0,1,0,12.61-4.11A8,8,0,0,0,25,51.35v-21l-3.5,2a1,1,0,0,1-1-1.74L32,24.11c12.91,7.26,10.82,6.08,11.51,6.48a1,1,0,0,1-1,1.74l-3.5-2v21a8,8,0,0,0,5.32,7.54l10.79,3.83A6.08,6.08,0,0,0,63,56.93V44.41A40.13,40.13,0,0,0,50.28,15.11ZM15,22a2,2,0,1,1-2,2A2,2,0,0,1,15,22ZM8,54a2,2,0,1,1,2-2A2,2,0,0,1,8,54Zm5-11a1,1,0,0,1-2,0c0-2,.28-.48-1.76-1.83-.76.76-1,1.07-1.48,1.07a1,1,0,0,1-.71-1.7c1.42-1.42.53-.15,0-2.54H6a1,1,0,0,1,0-2H7.1c.47-2.31,1.32-1.17,0-2.54a1,1,0,0,1,1.41-1.41c1.42,1.42.16.53,2.54.05V31a1,1,0,0,1,2,0v1.1c2.31.47,1.17,1.32,2.54-.05A1,1,0,0,1,17,33.46c-1.42,1.42-.53.15-.05,2.54H18a1,1,0,0,1,0,2H16.9c-.47,2.31-1.32,1.17.05,2.54a1,1,0,0,1-.71,1.7c-.49,0-.59-.18-1.48-1.07C12.79,42.47,13,41.07,13,43Zm8,7.5A3.5,3.5,0,1,1,17.5,47,3.5,3.5,0,0,1,21,50.5Zm36-15A3.5,3.5,0,1,1,53.5,32,3.5,3.5,0,0,1,57,35.5ZM50,21a2,2,0,1,1-2,2A2,2,0,0,1,50,21ZM43,40a2,2,0,1,1,2,2A2,2,0,0,1,43,40ZM59,50c-2,0-.48-.28-1.83,1.76l.78.78A1,1,0,0,1,56.54,54c-1.42-1.42-.16-.53-2.54-.05V55a1,1,0,0,1-2,0V53.9c-2.31-.47-1.17-1.32-2.54.05a1,1,0,0,1-1.41-1.41l.78-.78c-1.3-2,.1-1.76-1.83-1.76a1,1,0,0,1,0-2c2,0,.48.28,1.83-1.76l-.78-.78a1,1,0,0,1,1.41-1.41l.78.78c2-1.3,1.76.1,1.76-1.83a1,1,0,0,1,2,0c0,2-.28.48,1.76,1.83l.78-.78A1,1,0,0,1,58,45.46l-.78.78c1.3,2-.1,1.76,1.83,1.76A1,1,0,0,1,59,50Z"/><path class="cls-1" d="M35,1.65V1H29v.65A13.22,13.22,0,0,0,35,1.65Z"/><path class="cls-1" d="M35,6.65V3.72a16.71,16.71,0,0,1-6,0V6.65A13.22,13.22,0,0,0,35,6.65Z"/><path class="cls-1" d="M35,11.65V8.72a16.71,16.71,0,0,1-6,0v2.94A13.22,13.22,0,0,0,35,11.65Z"/><path class="cls-1" d="M35,16.65V13.72a16.71,16.71,0,0,1-6,0v2.94A13.22,13.22,0,0,0,35,16.65Z"/><path class="cls-1" d="M54.3,46.3a3,3,0,1,0,0,5.4A3,3,0,0,0,54.3,46.3Z"/></g></svg>