<svg xmlns="http://www.w3.org/2000/svg" viewBox="0 0 64 64"><defs><style>.cls-1{fill:#231f20;}</style></defs><title>Male Patient</title><g id="Male_Patient" data-name="Male Patient"><path class="cls-1" d="M48,30.74C46.8,33.53,44.89,37,42.47,38A11,11,0,0,1,44,44.62C48.34,39.68,48,34.92,48,30.74Z"/><path class="cls-1" d="M42,44c0-4.16-1.21-8-10-8s-10,3.84-10,8c0,1.64,1.34,3.12,3.23,4.2A28.83,28.83,0,0,0,31.06,50a14.48,14.48,0,0,0,2.8-.1,29.76,29.76,0,0,0,4.91-1.67C40.66,47.12,42,45.64,42,44Zm-6,2H28a1,1,0,0,1,0-2h8A1,1,0,0,1,36,46Zm0-4H28a1,1,0,0,1,0-2h8A1,1,0,0,1,36,42Z"/><path class="cls-1" d="M16,30.82c0,4-.42,8.8,4.05,13.82A11,11,0,0,1,21.52,38C19,36.92,17.07,33.33,16,30.82Z"/><path class="cls-1" d="M47.11,27.55a8.61,8.61,0,0,1-2.06-1.82,9,9,0,0,1-2-5.05c-2.14.45-2.21.32-16.56.32A9.09,9.09,0,0,1,22,19.83a10.06,10.06,0,0,1-2.89,6.24A10.29,10.29,0,0,1,17,27.68c0,.61,3.14,8.66,6.09,8.66.4,0,1.78-2.34,9-2.34s8.65,2.34,9,2.34C44,36.34,47.06,27.65,47.11,27.55ZM24.5,31c-2,0-2-4,0-4S26.5,31,24.5,31Zm1.94-5.12a2.75,2.75,0,0,0-3.9,0,1,1,0,0,1-1.42,0c-1.57-1.57,3.57-4.57,6.73-1.42A1,1,0,0,1,26.44,25.88ZM39.5,31c-2,0-2-4,0-4S41.5,31,39.5,31Zm2-5.12a2.75,2.75,0,0,0-3.9,0,1,1,0,0,1-1.41,0c-1.57-1.57,3.57-4.57,6.73-1.42A1,1,0,0,1,41.46,25.88Z"/><path class="cls-1" d="M20,15a7.24,7.24,0,0,0,6.47,4H40A12,12,0,0,0,52,7a6,6,0,0,0-6-6H28a10,10,0,0,0-8,4,8,8,0,0,0-8,8V27a8.06,8.06,0,0,0,5.66-2.34C20.46,21.84,20,19,20,15Z"/><path class="cls-1" d="M45,20.09A7,7,0,0,0,52,27c0-11.71.07-11.52-.16-12.5A14.16,14.16,0,0,1,45,20.09Z"/><path class="cls-1" d="M50,35a4,4,0,0,0,3.46-6A13.31,13.31,0,0,1,50,28.77C50,35.7,49.9,35,50,35Z"/><path class="cls-1" d="M14,35c0-.66,0-.54,0-6.21a14.74,14.74,0,0,1-3.46.21A4,4,0,0,0,14,35Z"/><path class="cls-1" d="M21,55H17.54A12.32,12.32,0,0,0,6,63H27C23.43,61.51,21,58.48,21,55Z"/><path class="cls-1" d="M41,55H39c0,2.8-3.07,5-7,5s-7-2.2-7-5H23c0,3.86,4,7,9,7S41,58.86,41,55Z"/><path class="cls-1" d="M46.46,55H43c0,3.48-2.43,6.51-6,8H58A12.32,12.32,0,0,0,46.46,55Z"/><path class="cls-1" d="M27,51v4c0,1.63,2.29,3,5,3s5-1.37,5-3V51.1C33.32,52.25,31.48,52.41,27,51Z"/></g></svg>