<svg xmlns="http://www.w3.org/2000/svg" viewBox="0 0 64 64"><defs><style>.cls-1{fill:#231f20;}</style></defs><title>Medicine</title><g id="Medicine"><path class="cls-1" d="M37,27.26a4,4,0,0,0-1.94-3.43L27,19V15H11v4C.08,25.55,1,23.79,1,31H37Z"/><path class="cls-1" d="M31.06,55H1v4a4,4,0,0,0,4,4c30.51,0,28.34.07,29.16-.17A8.91,8.91,0,0,1,31.06,55Z"/><path class="cls-1" d="M19,37a6,6,0,1,0,6,6A6,6,0,0,0,19,37Zm3,7H20v2a1,1,0,0,1-2,0V44H16a1,1,0,0,1,0-2h2V40a1,1,0,0,1,2,0v2h2A1,1,0,0,1,22,44Z"/><path class="cls-1" d="M37,47.51V33H1V53H31.52A9,9,0,0,1,37,47.51ZM19,51a8,8,0,1,1,8-8A8,8,0,0,1,19,51Z"/><path class="cls-1" d="M29,1H9V13H29ZM14,10a1,1,0,0,1-2,0V4a1,1,0,0,1,2,0Zm4,0a1,1,0,0,1-2,0V4a1,1,0,0,1,2,0Zm4,0a1,1,0,0,1-2,0V4a1,1,0,0,1,2,0Zm4,0a1,1,0,0,1-2,0V4a1,1,0,0,1,2,0Z"/><path class="cls-1" d="M40,49a7,7,0,1,0,7,7A7,7,0,0,0,40,49Zm3.71,4.71C37.11,60.31,37.58,60,37,60a1,1,0,0,1-.71-1.71l6-6A1,1,0,0,1,43.71,53.71Z"/><path class="cls-1" d="M45.92,62.79c3.07,1.05,4.74-1.45,7.37-4.08l-4.46-4.46A9,9,0,0,1,45.92,62.79Z"/><path class="cls-1" d="M54.76,47c-2.21,0-3,1.2-6,4.29l6,6,3-3A4.25,4.25,0,0,0,54.76,47Z"/><path class="cls-1" d="M38,15h2.06a9.55,9.55,0,0,1,0-2H38A1,1,0,0,0,38,15Z"/><path class="cls-1" d="M62,13H60a9.55,9.55,0,0,1,0,2H62A1,1,0,0,0,62,13Z"/><path class="cls-1" d="M51,4.05V2a1,1,0,0,0-2,0V4.05A9.55,9.55,0,0,1,51,4.05Z"/><path class="cls-1" d="M51,26V24a9.55,9.55,0,0,1-2,0V26A1,1,0,0,0,51,26Z"/><path class="cls-1" d="M58.68,21.28,57,19.62a8.94,8.94,0,0,0,1.14-9.37c-1.11,1.11-1.21,1.31-1.72,1.31a1,1,0,0,1-.71-1.71c1.55-1.55,1.93-2.1,2.94-3.11a2,2,0,1,0-1.49-1.93c0,.79.51.08-1.57,2.16a9,9,0,0,0-9.38-1.14l1,1a1,1,0,0,1-1.42,1.41c-1.53-1.53-2.06-1.89-3.1-2.93a2,2,0,0,0-.52-1.93,2,2,0,1,0-1.41,3.41c.78,0,.07-.51,2.16,1.58a9,9,0,0,0-1.14,9.38l1-1a1,1,0,0,1,1.42,1.41s-1,1.19-2.94,3.12a2,2,0,1,0,1.42,1.4L44.38,21a9,9,0,0,0,9.38,1.14l-1-1a1,1,0,0,1,1.42-1.41c1.53,1.53,2.87,2.7,3.1,2.93a2,2,0,1,0,1.42-1.4Zm-10.8-6.57a2,2,0,0,1-2.83-2.82,2.05,2.05,0,0,1,2.83,0h0A2,2,0,0,1,47.88,14.71ZM50.71,19a1,1,0,0,1-1.42-1.42A1,1,0,0,1,50.71,19Zm1.06-6a1.5,1.5,0,0,1,2.12-2.13A1.5,1.5,0,0,1,51.77,13Z"/></g></svg>