<svg xmlns="http://www.w3.org/2000/svg" viewBox="0 0 64 64"><defs><style>.cls-1{fill:#231f20;}</style></defs><title>Microscope</title><g id="Microscope"><path class="cls-1" d="M43,57H29a4,4,0,0,1-4-4V45H16L9,57v6H47V61A4,4,0,0,0,43,57Z"/><path class="cls-1" d="M9.3,22.31h0A5,5,0,1,0,19,24C19,18.42,11.18,17.06,9.3,22.31ZM14,26a2,2,0,1,1,2-2A2,2,0,0,1,14,26Z"/><rect class="cls-1" x="27" y="47" width="18" height="4"/><path class="cls-1" d="M9.31,18.81a7,7,0,0,1,9.88,9.88l1.6,1.6,10-10L17.71,7.21l-10,10Z"/><path class="cls-1" d="M7.33,14.75l7.92-7.92a3.84,3.84,0,0,0-5,.39L7.72,9.78A3.84,3.84,0,0,0,7.33,14.75Z"/><rect class="cls-1" x="23.05" y="26.38" width="9.9" height="2.23" transform="translate(-11.24 27.85) rotate(-45)"/><rect class="cls-1" x="28.53" y="29.24" width="5.66" height="3.24" transform="translate(-12.63 31.21) rotate(-45)"/><path class="cls-1" d="M1.71,7.21l.5-.5,3,3,4.5-4.5-3-3,.5-.5A1,1,0,0,0,5.79.29L.29,5.79A1,1,0,0,0,1.71,7.21Z"/><path class="cls-1" d="M12.88,46.38a11,11,0,0,1-1.05-15.75A6.94,6.94,0,0,1,7,24.15,19,19,0,0,0,8.82,53.34C10.33,50.72,12.77,46.56,12.88,46.38Z"/><path class="cls-1" d="M39,14h2.06a9.55,9.55,0,0,1,0-2H39A1,1,0,0,0,39,14Z"/><path class="cls-1" d="M63,12H61a9.55,9.55,0,0,1,0,2H63A1,1,0,0,0,63,12Z"/><path class="cls-1" d="M52,3.05V1a1,1,0,0,0-2,0V3.05A9.55,9.55,0,0,1,52,3.05Z"/><path class="cls-1" d="M50,23V25a1,1,0,0,0,2,0V23A9.55,9.55,0,0,1,50,23Z"/><path class="cls-1" d="M59.68,20.28,58,18.62a8.94,8.94,0,0,0,1.14-9.37c-1.11,1.11-1.21,1.31-1.72,1.31a1,1,0,0,1-.71-1.71c1.55-1.55,1.93-2.1,2.94-3.11a2,2,0,1,0-1.49-1.93c0,.79.51.08-1.57,2.16a9,9,0,0,0-9.38-1.14l1,1a1,1,0,0,1-1.42,1.41c-1.53-1.53-2.06-1.89-3.1-2.93a2,2,0,0,0-.52-1.93,2,2,0,1,0-1.41,3.41c.78,0,.07-.51,2.16,1.58a9,9,0,0,0-1.14,9.38l1-1a1,1,0,0,1,1.42,1.41s-1,1.19-2.94,3.12a2,2,0,1,0,1.42,1.4L45.38,20a9,9,0,0,0,9.38,1.14l-1-1a1,1,0,0,1,1.42-1.41c1.53,1.53,2.87,2.7,3.1,2.93a2,2,0,1,0,1.42-1.4Zm-10.8-6.57a2,2,0,0,1-2.83-2.82,2.05,2.05,0,0,1,2.83,0h0A2,2,0,0,1,48.88,13.71ZM51.71,18a1,1,0,0,1-1.42-1.42A1,1,0,0,1,51.71,18Zm1.06-6a1.5,1.5,0,0,1,2.12-2.13A1.5,1.5,0,0,1,52.77,12Z"/></g></svg>