<svg xmlns="http://www.w3.org/2000/svg" viewBox="0 0 64 64"><defs><style>.cls-1{fill:#231f20;}</style></defs><title>Mouth Infected</title><g id="Mouth_Infected" data-name="Mouth Infected"><path class="cls-1" d="M32,12c3.83,0,.69-2.8,27.64-3C54.72,6.68,47.8,1,42.33,1,35.44,1,34.3,3,32,3S28.56,1,21.67,1C16.2,1,9.28,6.68,4.36,9,31.4,9.2,28.1,12,32,12Z"/><path class="cls-1" d="M8.24,11.06C6.52,11,4.65,11,2.61,11,6.19,13.3,10.25,15.92,14,18.82V12.74Z"/><path class="cls-1" d="M50,12.73v6.09c3-2.28,5.83-4.29,11.39-7.81C54.21,11,57,10.78,50,12.73Z"/><path class="cls-1" d="M47.86,33.05c.22,0,.14,2.14.14-21.72-13.18.72-12.11,2.28-15,2.62V38a1,1,0,0,1-2,0V14c-2.85-.34-1.93-1.91-15-2.62V35A16,16,0,0,0,33.13,51h0A16,16,0,0,1,47.86,33.05Z"/><path class="cls-1" d="M54.91,48A6,6,0,0,0,50,43.09a1,1,0,0,1-2,0A6,6,0,0,0,43.09,48a1,1,0,0,1,0,2A6,6,0,0,0,48,54.91a1,1,0,0,1,2,0A6,6,0,0,0,54.91,50,1,1,0,0,1,54.91,48ZM46.5,49a1.5,1.5,0,0,1,0-3A1.5,1.5,0,0,1,46.5,49ZM49,52a1,1,0,0,1,0-2A1,1,0,0,1,49,52Zm3-3a1,1,0,0,1,0-2A1,1,0,0,1,52,49Z"/><path class="cls-1" d="M50,35A14,14,0,1,0,63,49,14,14,0,0,0,50,35Zm8,15H56.94a8.13,8.13,0,0,1-1.62,3.9l1.39,1.39a1,1,0,0,1-1.42,1.42L53.9,55.32A8.13,8.13,0,0,1,50,56.94V58a1,1,0,0,1-2,0V56.94a8.13,8.13,0,0,1-3.9-1.62l-1.39,1.39a1,1,0,0,1-1.42-1.42l1.39-1.39A8.13,8.13,0,0,1,41.06,50H40a1,1,0,0,1,0-2h1.06a8.13,8.13,0,0,1,1.62-3.9l-1.39-1.39a1,1,0,0,1,1.42-1.42l1.39,1.39A8.13,8.13,0,0,1,48,41.06V40a1,1,0,0,1,2,0v1.06a8.13,8.13,0,0,1,3.9,1.62l1.39-1.39a1,1,0,0,1,1.42,1.42L55.32,44.1A8.13,8.13,0,0,1,56.94,48H58A1,1,0,0,1,58,50Z"/></g></svg>