<svg xmlns="http://www.w3.org/2000/svg" viewBox="0 0 64 64"><defs><style>.cls-1{fill:#231f20;}</style></defs><title>Mutation</title><g id="Mutation"><path class="cls-1" d="M18.79,30.16C6,24.68,5,14.62,5,1H1C1,15.17,2.22,27.41,17.21,33.84,30,39.32,31,49.38,31,63h4C35,48.83,33.78,36.59,18.79,30.16Z"/><path class="cls-1" d="M15.73,35.37a29.38,29.38,0,0,1-4.05-2.16C1.9,40.06,1,50.82,1,63H5C5,51.14,5.64,41.19,15.73,35.37Z"/><path class="cls-1" d="M20.27,28.63a29.38,29.38,0,0,1,4.05,2.16C34.1,23.94,35,13.18,35,1H31C31,12.77,30.44,22.76,20.27,28.63Z"/><path class="cls-1" d="M29,4c0-.66,0-1.32,0-2H15.87a4,4,0,0,1,0,2Z"/><path class="cls-1" d="M10.28,4c1.35,2.32,4.71.22,3.47-2a2,2,0,0,0-3.47,0H7c0,.68,0,1.34,0,2Z"/><path class="cls-1" d="M28.7,10H25.87a4,4,0,0,1,0,2h2.6C28.56,11.35,28.63,10.68,28.7,10Z"/><path class="cls-1" d="M24,11a2,2,0,0,0-3.72-1h-13c.06.68.13,1.35.22,2H20.28A2,2,0,0,0,24,11Z"/><path class="cls-1" d="M26.11,20A19.08,19.08,0,0,0,27,18H20.87a4,4,0,0,1,0,2Z"/><path class="cls-1" d="M15.28,18H9a15.7,15.7,0,0,0,.91,2h5.37c1.35,2.32,4.71.22,3.47-2A2,2,0,0,0,15.28,18Z"/><path class="cls-1" d="M27,46a15.7,15.7,0,0,0-.91-2H17.87a4,4,0,0,1,0,2Z"/><path class="cls-1" d="M12.28,44H9.89A19.08,19.08,0,0,0,9,46h3.3a2,2,0,1,0,0-2Z"/><path class="cls-1" d="M28.69,54c-.06-.68-.13-1.35-.22-2h-1.6a4,4,0,0,1,0,2Z"/><path class="cls-1" d="M24.75,54c1.24-2.18-2.12-4.29-3.47-2H7.53c-.09.65-.16,1.32-.23,2h14A2,2,0,0,0,24.75,54Z"/><path class="cls-1" d="M16.28,60H7c0,.66,0,1.32,0,2h9.28c1.35,2.32,4.71.22,3.47-2A2,2,0,0,0,16.28,60Z"/><path class="cls-1" d="M21.87,60a4,4,0,0,1,0,2H29c0-.68,0-1.34,0-2Z"/><path class="cls-1" d="M40.05,31H38a1,1,0,0,0,0,2h2.06A9.55,9.55,0,0,1,40.05,31Z"/><path class="cls-1" d="M62,31H60a11.13,11.13,0,0,1,0,2H62A1,1,0,0,0,62,31Z"/><path class="cls-1" d="M51,22V20a1,1,0,0,0-2,0V22A11.13,11.13,0,0,1,51,22Z"/><path class="cls-1" d="M49,41.94V44a1,1,0,0,0,2,0V41.94A9.55,9.55,0,0,1,49,41.94Z"/><path class="cls-1" d="M58.68,39.27,57,37.61a8.93,8.93,0,0,0,1.14-9.37c-1.12,1.12-1.22,1.31-1.72,1.31a1,1,0,0,1-.71-1.71c1.55-1.55,1.93-2.09,2.94-3.11a2,2,0,1,0-1.49-1.93c0,.8.51.08-1.57,2.16a9.07,9.07,0,0,0-9.38-1.14l1,1a1,1,0,0,1-1.42,1.41c-1.53-1.52-2.07-1.89-3.1-2.93a2,2,0,1,0-1.93,1.48c.78,0,.07-.51,2.16,1.58a9,9,0,0,0-1.14,9.38l1-1a1,1,0,0,1,1.42,1.41s-1,1.19-2.94,3.12a2,2,0,1,0,1.42,1.4L44.38,39a9,9,0,0,0,9.38,1.14l-1-1a1,1,0,0,1,1.42-1.41c1.53,1.53,2.86,2.7,3.1,2.93a2,2,0,1,0,1.42-1.4ZM47.88,32.7a2,2,0,0,1-2.83-2.82,2.05,2.05,0,0,1,2.83,0h0A2,2,0,0,1,47.88,32.7ZM50.71,37a1,1,0,0,1-1.42-1.42A1,1,0,0,1,50.71,37Zm1.06-6a1.5,1.5,0,0,1,2.12-2.13A1.5,1.5,0,0,1,51.77,30.94Z"/></g></svg>