<svg xmlns="http://www.w3.org/2000/svg" viewBox="0 0 64 64"><defs><style>.cls-1{fill:#231f20;}</style></defs><title>No Contact</title><g id="No_Contact" data-name="No Contact"><path class="cls-1" d="M44,13A12,12,0,1,0,32,25,12,12,0,0,0,44,13ZM36.06,6.11l-11,11C21,10,29,1.93,36.06,6.11ZM27.94,19.89l11-11C43.06,16,35,24.06,27.94,19.89Z"/><path class="cls-1" d="M56.42,33.28a7.88,7.88,0,0,1-6.83,2.14c-2.9-.45-4.44,1.09-5.12,1.09-8.61.16-8.15.07-8.43.35-.64.64.25,2.84,2.16,2.84,6.89.19,5.7-.07,6.93.88a6.8,6.8,0,0,0,8.23.07,1,1,0,0,1,1.2,1.6A8.79,8.79,0,0,1,44,42.19L33.67,52.47a1.11,1.11,0,0,0,.63,2c.64.06.29.22,7.66-7.15a1,1,0,0,1,1.42,1.41c-9.06,9.06-9,8.74-8.93,9.45a1.1,1.1,0,0,0,1.95.64c1.82-1.8.23-.22,8.54-8.53a1,1,0,0,1,1.41,1.41c-7.38,7.39-7.19,7-7.15,7.67a1.1,1.1,0,0,0,2,.63c7.64-7.64.13-.13,6.75-6.74a1,1,0,0,1,1.41,1.41C44.2,59.76,43.9,59.77,44,60.51a1.11,1.11,0,0,0,2,.64c11.33-11.33,12.69-12,13.74-15.85a8,8,0,0,1,2.64-4.09c1-1,.71,2.92.71-14.51Z"/><path class="cls-1" d="M19.43,41.57a1,1,0,0,1,.68-1.71l5.66-.16c2.32,0,3.07-3,1.71-3-8.72-.16-8.08-.11-8.37-.25a7.09,7.09,0,0,0-4.7-1,7.83,7.83,0,0,1-6.83-2.15L1,26.7c0,17.48-.3,13.5.71,14.51A7.87,7.87,0,0,1,4.35,45.3c1,3.72,2.13,4.24,13.74,15.85a1.11,1.11,0,0,0,2-.64c0-.79-.18-.68-5.37-5.88a1,1,0,0,1,1.41-1.41c6.54,6.52-.81-.82,6.75,6.74a1.1,1.1,0,0,0,2-.7c0-.63.14-.3-7.15-7.6a1,1,0,0,1,1.41-1.41l8.54,8.53a1.11,1.11,0,0,0,1.95-.64c.05-.71.13-.39-8.93-9.45A1,1,0,0,1,22,47.28c7.32,7.32,7,7.21,7.66,7.15a1.1,1.1,0,0,0,.63-2Z"/></g></svg>