<svg xmlns="http://www.w3.org/2000/svg" viewBox="0 0 64 64"><defs><style>.cls-1{fill:#231f20;}</style></defs><title>No Crowd</title><g id="No_Crowd" data-name="No Crowd"><path class="cls-1" d="M32,24A12,12,0,1,0,20,12,12,12,0,0,0,32,24Zm-4.06-5.11,11-10.95C43,15,35.06,23.08,27.94,18.89ZM36.06,5.11l-11,11C20.93,9,29,1,36.06,5.11Z"/><path class="cls-1" d="M15,37V34A5,5,0,0,0,5,34v3a5,5,0,0,0,10,0Z"/><path class="cls-1" d="M14,42H6a6,6,0,0,0-6,6V60a2,2,0,0,0,2.81,1.82c.29,0,.19.49.19-14.82a1,1,0,0,1,2,0V64H15V47a1,1,0,0,1,2,0c0,15.83-.09,14.69.18,14.82A2,2,0,0,0,20,60V48A6,6,0,0,0,14,42Z"/><path class="cls-1" d="M58,42H50a6,6,0,0,0-6,6V60a2,2,0,0,0,2.81,1.82c.29,0,.19.49.19-14.82a1,1,0,0,1,2,0V64H59V47a1,1,0,0,1,2,0c0,15.83-.09,14.69.18,14.82A2,2,0,0,0,64,60V48A6,6,0,0,0,58,42Z"/><path class="cls-1" d="M59,37V34a5,5,0,0,0-10,0v3a5,5,0,0,0,10,0Z"/><path class="cls-1" d="M36,42H28a6,6,0,0,0-6,6V60a2,2,0,0,0,2.81,1.82c.29,0,.19.49.19-14.82a1,1,0,0,1,2,0V64H37V47a1,1,0,0,1,2,0c0,15.83-.09,14.69.18,14.82A2,2,0,0,0,42,60V48A6,6,0,0,0,36,42Z"/><path class="cls-1" d="M37,37V34a5,5,0,0,0-10,0v3a5,5,0,0,0,10,0Z"/></g></svg>