<svg xmlns="http://www.w3.org/2000/svg" viewBox="0 0 64 64"><defs><style>.cls-1{fill:#231f20;}</style></defs><title>No Flight</title><g id="No_Flight" data-name="No Flight"><path class="cls-1" d="M26,22.8,7,34.56v3.11C25.16,32.29,22.2,33,24.63,33L26,31.63Z"/><path class="cls-1" d="M36,14.66a10.33,10.33,0,0,0-3-7.24,1.44,1.44,0,0,0-2,0c-3.93,3.93-3,7.08-3,22.21l8-8Z"/><path class="cls-1" d="M32,1A31,31,0,1,0,63,32,31,31,0,0,0,32,1ZM12.74,47.31a1,1,0,0,1-.8-.4,24.8,24.8,0,0,1-3.82-7.49c-1.86.55-2.18.77-2.72.38S5,39.39,5,34c0-.71.44-.83,2-1.8A25,25,0,0,1,28.48,7.27c.1,0,0-.13,1.1-1.27a3.51,3.51,0,0,1,4.84,0,12.43,12.43,0,0,1,1.07,1.25c1.95,0,7.35,1.65,11.42,4.69A1,1,0,0,1,47,13.45C11.05,49.42,13.38,47.31,12.74,47.31ZM58.6,39.8c-.53.38-.81.18-2.73-.39A24.9,24.9,0,0,1,44,53.92c0,3.23.12,3.45-.37,3.86a1,1,0,0,1-.85.2c-9.36-2.09-4.33-1.2-9.78-1v1a1,1,0,0,1-2,0V57a19.89,19.89,0,0,1-3.5-.39C20.8,58.07,21.19,58,21,58a1,1,0,0,1-1-1V53.92a23.26,23.26,0,0,1-2.91-1.86A1,1,0,0,1,17,50.55c36.09-36.09,33.7-33.9,34.35-33.86a1,1,0,0,1,.73.4A24.79,24.79,0,0,1,57,32c0,.28-.22.06,1.53,1.15.63.39.47.52.47,5.85A1,1,0,0,1,58.6,39.8Z"/><path class="cls-1" d="M36,34.37l-7.47,7.47c1.23,11.33.92,12.22,2.47,12.92V52a1,1,0,0,1,2,0v2.77c1.5-.71,1.29-2.13,1.85-7.24C36.19,35.21,36,37.81,36,34.37Z"/><path class="cls-1" d="M36.24,53.12a4.46,4.46,0,0,1-.32,1.28L42,55.75V53.53l-5.41-3.6Z"/><path class="cls-1" d="M43.91,26.46C37.14,33.23,38,32.11,38,33c4.24,0,.2-.87,19,4.66v-3.1C54.84,33.22,57.18,34.66,43.91,26.46Z"/><path class="cls-1" d="M27.41,49.93,22,53.54v2.21c5.49-1.23,5.16-1.17,5.26-1.17h0l.78-.17C27.75,53.65,27.78,53.36,27.41,49.93Z"/></g></svg>