<svg xmlns="http://www.w3.org/2000/svg" viewBox="0 0 64 64"><defs><style>.cls-1{fill:#231f20;}</style></defs><title>Paramedic</title><g id="Paramedic"><path class="cls-1" d="M1,63H31V55H12.54A12.32,12.32,0,0,0,1,63Z"/><path class="cls-1" d="M51.46,55H33v8H63A12.32,12.32,0,0,0,51.46,55Z"/><path class="cls-1" d="M34,33.07c-.27-.79-.52-2.07-2-2.07a1.77,1.77,0,0,0-1.68,1.22C29.83,33.67,29.39,32.75,34,33.07Z"/><path class="cls-1" d="M44,43a14.9,14.9,0,0,0,3-8,6.71,6.71,0,0,1-4.51,2A10.47,10.47,0,0,1,44,43Z"/><path class="cls-1" d="M39.54,36.8c-3.22-2.4-11.81-2.44-15.08,0C22.78,38.05,22,40,22,43c0,3.6,6.33,6.55,11.82,5.86,4-.58,8.18-3,8.18-5.86S41.22,38.05,39.54,36.8ZM36,46H28a1,1,0,0,1,0-2h8A1,1,0,0,1,36,46Zm0-4H28a1,1,0,0,1,0-2h8A1,1,0,0,1,36,42Z"/><path class="cls-1" d="M21.55,37A6.71,6.71,0,0,1,17,35a14.9,14.9,0,0,0,3,8A10.47,10.47,0,0,1,21.55,37Z"/><path class="cls-1" d="M42.16,21a6.77,6.77,0,0,1,4.75,1.94A4.83,4.83,0,0,0,42.16,19H21.84a4.83,4.83,0,0,0-4.75,3.94A6.77,6.77,0,0,1,21.84,21Z"/><path class="cls-1" d="M17,53H47a8,8,0,0,0,8-8V21A20,20,0,0,0,35,1H29A20,20,0,0,0,9,21V45A8,8,0,0,0,17,53ZM15,23.84A6.85,6.85,0,0,1,21.84,17H42.16A6.85,6.85,0,0,1,49,23.84V34a17,17,0,0,1-34,0Z"/><path class="cls-1" d="M21.84,35h1.7a11.59,11.59,0,0,1,4.29-1.65l.59-1.77a3.78,3.78,0,0,1,7.16,0l.59,1.77A11.57,11.57,0,0,1,40.46,35h1.7A4.84,4.84,0,0,0,47,30.16V27.84A4.84,4.84,0,0,0,42.16,23H21.84A4.84,4.84,0,0,0,17,27.84v2.32A4.84,4.84,0,0,0,21.84,35ZM39.5,32c-2,0-2-4,0-4S41.5,32,39.5,32Zm-3.35-6.54c3.18-3.17,8.28-.13,6.73,1.42a1,1,0,0,1-1.42,0,2.75,2.75,0,0,0-3.9,0A1,1,0,0,1,36.15,25.46ZM24.5,32c-2,0-2-4,0-4S26.5,32,24.5,32Zm-3.38-6.54c3.18-3.17,8.28-.14,6.73,1.42a1,1,0,0,1-1.41,0,2.75,2.75,0,0,0-3.9,0A1,1,0,0,1,21.12,25.46Z"/></g></svg>