<svg xmlns="http://www.w3.org/2000/svg" viewBox="0 0 64 64"><defs><style>.cls-1{fill:#231f20;}</style></defs><title>Protective Cloth</title><g id="Protective_Cloth" data-name="Protective Cloth"><path class="cls-1" d="M44,12h6a2,2,0,0,0,2-2V6A5,5,0,0,0,42,6v4A2,2,0,0,0,44,12Z"/><path class="cls-1" d="M63,36,56.68,18.61A7,7,0,0,0,50.1,14H48V32a1,1,0,0,1-2,0V14H43.9a7,7,0,0,0-6.58,4.61L31,36l4,2,5-12L39,63h5l3-24,3,24h5L54,26l5,12Z"/><path class="cls-1" d="M8,10h4l.66-1.32a1.5,1.5,0,0,1,2.68,0L16,10h4a2,2,0,0,0,2-2V3a2,2,0,0,0-2-2H8A2,2,0,0,0,6,3V8A2,2,0,0,0,8,10Z"/><path class="cls-1" d="M17.83,14.78C13.58,10.37,8,15,8,20c0,2.67,1.91,5,6,5C20.81,25,21.45,18.56,17.83,14.78Z"/><path class="cls-1" d="M20.57,15.12c.7-.5,2.32-1.54,2.91-.91.87.84.88,4.39-1.49,5.92a7,7,0,0,1-.46,2.43c5-1.74,5.38-7.72,3.36-9.78-1.57-1.53-3.73-.53-5.51.74A9,9,0,0,1,20.57,15.12Z"/><path class="cls-1" d="M2,16a6.46,6.46,0,0,0,4.47,6.56A7.14,7.14,0,0,1,6,20.13C3.3,18.38,3.72,13.93,5,14a5.2,5.2,0,0,1,2.44,1.12,9,9,0,0,1,1.19-1.6C4.36,10.49,2,12.58,2,16Z"/><rect class="cls-1" x="24" y="3" width="3" height="5"/><rect class="cls-1" x="1" y="3" width="3" height="5"/><path class="cls-1" d="M5,57a4,4,0,0,0-4,4v2H12V50H5Z"/><path class="cls-1" d="M23,57V50H16V63H27V61A4,4,0,0,0,23,57Z"/><path class="cls-1" d="M13,33.76l-.74,3c-.41-.35-.29-.57-.29-6.71a1,1,0,0,0-2,0v4H9V28a1,1,0,0,0-2,0v6H6V29a1,1,0,0,0-2,0v5H3V31a1,1,0,0,0-2,0c0,7.78-.54,9.84,2,11.57V45a1,1,0,0,0,1,1h6a1,1,0,0,0,1-1V42.58c2.74-1.71,3-4.49,4-8.34A1,1,0,0,0,13,33.76Z"/><path class="cls-1" d="M27,30.43V28a1,1,0,0,0-1-1H20a1,1,0,0,0-1,1v2.42c-2.67,1.66-2.92,4.14-4,8.34a1,1,0,0,0,1.94.48l.74-3c.38.33.29.27.29,6.71a1,1,0,0,0,2,0V39h1v6a1,1,0,0,0,2,0V39h1v5a1,1,0,0,0,2,0V39h1v3a1,1,0,0,0,2,0V34.24A4.58,4.58,0,0,0,27,30.43Z"/></g></svg>