<svg xmlns="http://www.w3.org/2000/svg" viewBox="0 0 64 64"><defs><style>.cls-1{fill:#231f20;}</style></defs><title>Report</title><g id="Report"><path class="cls-1" d="M25,10a1,1,0,0,0,1,1c2.57,0,3.06.12,3.36-.42A3,3,0,0,1,32,9H25Z"/><path class="cls-1" d="M34.64,10.58c.31.56.87.42,3.36.42a1,1,0,0,0,1-1V9H32A3,3,0,0,1,34.64,10.58Z"/><path class="cls-1" d="M15,57H49V8c-8.91,0-6.23-.2-8,.59V10a3,3,0,0,1-3,3c-2.09,0-4.14.36-5.12-1.47a1,1,0,0,0-1.76,0C30.14,13.35,28.17,13,26,13a3,3,0,0,1-3-3c0-2,.26-1.07-1-2H15Zm24-3H20a1,1,0,0,1,0-2H39A1,1,0,0,1,39,54Zm5-4H20a1,1,0,0,1,0-2H44A1,1,0,0,1,44,50Zm0-4H20a1,1,0,0,1,0-2H44A1,1,0,0,1,44,46ZM19.9,27.11H22a9.9,9.9,0,0,1,2.2-5.33c-1.24-1.24-.7-.86-1.44-.86a2,2,0,0,1-2-2,2,2,0,1,1,3.93.52l.93.93a9.93,9.93,0,0,1,5.33-2.2V16.11a1,1,0,0,1,2,0v2.06a9.89,9.89,0,0,1,5.33,2.2l.93-.93a2,2,0,1,1,1.93,1.48c-.74,0-.2-.38-1.44.86a10,10,0,0,1,2.19,5.33h2.07a1,1,0,0,1,0,2H41.85a9.89,9.89,0,0,1-2.2,5.33l.94.94a2,2,0,1,1-1.42,1.41l-.93-.93a10,10,0,0,1-5.33,2.2v2.06a1,1,0,0,1-2,0V38.06a10,10,0,0,1-5.33-2.2l-.93.93a2,2,0,1,1-1.42-1.41l.94-.93A9.75,9.75,0,0,1,22,29.11H19.9A1,1,0,0,1,19.9,27.11Z"/><path class="cls-1" d="M26.25,32.36a1,1,0,0,1,1.42,1.41l-.66.66a8,8,0,0,0,9.8,0l-.66-.66a1,1,0,0,1,1.42-1.41l.66.66a8,8,0,0,0,0-9.81c-.59.59-.83.95-1.37.95a1,1,0,0,1-.71-1.7l.66-.66a8,8,0,0,0-9.8,0l.66.66a1,1,0,0,1-.71,1.7c-.5,0-.65-.23-1.36-.94a7.93,7.93,0,0,0,0,9.79Zm7.43-7.43a1.5,1.5,0,0,1,2.12,2.12A1.5,1.5,0,0,1,33.68,24.93ZM31.2,31.65a1,1,0,0,1,1.42,1.41A1,1,0,0,1,31.2,31.65ZM27,26a2,2,0,1,1,1.42,3.42A2,2,0,0,1,27,26Z"/><path class="cls-1" d="M51,3H43.9a5.13,5.13,0,0,1-.31,3H50a1,1,0,0,1,1,1V58a1,1,0,0,1-1,1H14a1,1,0,0,1-1-1V7a1,1,0,0,1,1-1h6.41a5.13,5.13,0,0,1-.31-3H13A4,4,0,0,0,9,7V59a4,4,0,0,0,4,4H51a4,4,0,0,0,4-4V7A4,4,0,0,0,51,3Z"/><path class="cls-1" d="M23.2,6.4c1.1.81.32.6,15.8.6a3,3,0,0,0,0-6H25A3,3,0,0,0,23.2,6.4ZM38,3a1,1,0,0,1,0,2A1,1,0,0,1,38,3ZM26,3a1,1,0,0,1,0,2A1,1,0,0,1,26,3Z"/></g></svg>