<svg xmlns="http://www.w3.org/2000/svg" viewBox="0 0 64 64"><defs><style>.cls-1{fill:#231f20;}</style></defs><title>Searching</title><g id="Searching"><path class="cls-1" d="M62,57,46.5,41.5a3.54,3.54,0,0,0-5,5L57,62a3.54,3.54,0,1,0,5-5Z"/><path class="cls-1" d="M28.91,22A6,6,0,0,0,24,17.09a1,1,0,0,1-2,0A6,6,0,0,0,17.09,22a1,1,0,0,1,0,2A6,6,0,0,0,22,28.91a1,1,0,0,1,2,0A6,6,0,0,0,28.91,24,1,1,0,0,1,28.91,22ZM20,23a1,1,0,0,1,0-2A1,1,0,0,1,20,23Zm3,3a1,1,0,0,1,0-2A1,1,0,0,1,23,26Zm2.5-3a1.5,1.5,0,0,1,0-3A1.5,1.5,0,0,1,25.5,23Z"/><path class="cls-1" d="M23,7A16,16,0,1,0,39,23,16,16,0,0,0,23,7Zm9,17H30.94a8.13,8.13,0,0,1-1.62,3.9l1.39,1.39a1,1,0,0,1-1.42,1.42L27.9,29.32A8.13,8.13,0,0,1,24,30.94V32a1,1,0,0,1-2,0V30.94a8.13,8.13,0,0,1-3.9-1.62l-1.39,1.39a1,1,0,0,1-1.42-1.42l1.39-1.39A8.13,8.13,0,0,1,15.06,24H14a1,1,0,0,1,0-2h1.06a8.13,8.13,0,0,1,1.62-3.9l-1.39-1.39a1,1,0,0,1,1.42-1.42l1.39,1.39A8.13,8.13,0,0,1,22,15.06V14a1,1,0,0,1,2,0v1.06a8.13,8.13,0,0,1,3.9,1.62l1.39-1.39a1,1,0,0,1,1.42,1.42L29.32,18.1A8.13,8.13,0,0,1,30.94,22H32A1,1,0,0,1,32,24Z"/><path class="cls-1" d="M40,37C51.69,22.81,41.67,1,23,1A22,22,0,0,0,1,23C1,41.71,22.83,51.67,37,40l1.91,1.91a5.6,5.6,0,0,1,3-3ZM23,41A18,18,0,1,1,41,23,18,18,0,0,1,23,41Z"/></g></svg>