<svg xmlns="http://www.w3.org/2000/svg" viewBox="0 0 64 64"><defs><style>.cls-1{fill:#231f20;}</style></defs><title>Self Quarantine</title><g id="Self_Quarantine" data-name="Self Quarantine"><rect class="cls-1" x="9" y="58" width="46" height="5"/><path class="cls-1" d="M39,25V38a1,1,0,0,0,2,0V26a5,5,0,0,0-5-5H28a5,5,0,0,0-5,5V38a1,1,0,0,0,1,1c1.38,0,1-.7,1-14a1,1,0,0,1,2,0c0,39.4.42,26.72-1.77,31h4.82L31,38a1,1,0,0,1,2,0l1,18h4.82C36.56,51.57,37,64.84,37,25A1,1,0,0,1,39,25Z"/><path class="cls-1" d="M36,15V12a4,4,0,0,0-8,0v3a4,4,0,0,0,8,0Z"/><path class="cls-1" d="M12,56H23.12A4.21,4.21,0,0,1,25,53.4V40.82A3,3,0,0,1,21,38V26a7,7,0,0,1,6.56-7C25.68,17,26,15,26,12a6,6,0,0,1,12,0c0,2.88.32,5-1.56,7A7,7,0,0,1,43,26V38a3,3,0,0,1-4,2.82V53.4A4.09,4.09,0,0,1,40.88,56H52V21A19.94,19.94,0,0,0,46.14,6.86C33.65-5.63,12,3.13,12,21Z"/><path class="cls-1" d="M59.5,27A3.5,3.5,0,1,0,56,23.5,3.5,3.5,0,0,0,59.5,27Zm0-5a1.5,1.5,0,0,1,0,3A1.5,1.5,0,0,1,59.5,22Z"/><path class="cls-1" d="M58,46a3,3,0,1,0,3,3A3,3,0,0,0,58,46Zm0,4a1,1,0,0,1,0-2A1,1,0,0,1,58,50Z"/><path class="cls-1" d="M62,41a1,1,0,0,0,0,2A1,1,0,0,0,62,41Z"/><path class="cls-1" d="M55,34.5a1.5,1.5,0,0,0,3,0A1.5,1.5,0,0,0,55,34.5Z"/><path class="cls-1" d="M53,7a3,3,0,1,0-3-3A3,3,0,0,0,53,7Zm0-4a1,1,0,0,1,0,2A1,1,0,0,1,53,3Z"/><circle class="cls-1" cx="60" cy="11" r="2"/><path class="cls-1" d="M5.5,45A3.5,3.5,0,1,0,9,48.5,3.5,3.5,0,0,0,5.5,45Zm0,5a1.5,1.5,0,0,1,0-3A1.5,1.5,0,0,1,5.5,50Z"/><path class="cls-1" d="M5,26a3,3,0,1,0,3,3A3,3,0,0,0,5,26Zm0,4a1,1,0,0,1,0-2A1,1,0,0,1,5,30Z"/><path class="cls-1" d="M7,20a1,1,0,0,0,0-2A1,1,0,0,0,7,20Z"/><path class="cls-1" d="M8.5,39a1.5,1.5,0,0,0,0-3A1.5,1.5,0,0,0,8.5,39Z"/><path class="cls-1" d="M9,7A3,3,0,1,0,6,4,3,3,0,0,0,9,7ZM9,3A1,1,0,0,1,9,5,1,1,0,0,1,9,3Z"/><circle class="cls-1" cx="3" cy="11" r="2"/></g></svg>