<svg xmlns="http://www.w3.org/2000/svg" viewBox="0 0 64 64"><defs><style>.cls-1{fill:#231f20;}</style></defs><title>Social Distance 6ft</title><g id="Social_Distance_6ft" data-name="Social Distance 6ft"><path class="cls-1" d="M31,30v2a1,1,0,0,0,2,0V30A1,1,0,0,0,31,30Z"/><path class="cls-1" d="M31,24v2a1,1,0,0,0,2,0V24A1,1,0,0,0,31,24Z"/><path class="cls-1" d="M31,36v2a1,1,0,0,0,2,0V36A1,1,0,0,0,31,36Z"/><path class="cls-1" d="M31,42v2a1,1,0,0,0,2,0V42A1,1,0,0,0,31,42Z"/><path class="cls-1" d="M31,48v2a1,1,0,0,0,2,0V48A1,1,0,0,0,31,48Z"/><path class="cls-1" d="M31,54v2a1,1,0,0,0,2,0V54A1,1,0,0,0,31,54Z"/><path class="cls-1" d="M31,60v2a1,1,0,0,0,2,0V60A1,1,0,0,0,31,60Z"/><path class="cls-1" d="M43,14a3,3,0,0,0-5-2.22A3,3,0,0,0,33,14v3a1,1,0,0,0,2,0V14a1,1,0,0,1,2,0v3a1,1,0,0,0,2,0V14a1,1,0,0,1,2,0v3a1,1,0,0,0,2,0Z"/><path class="cls-1" d="M30,16H26.27c.94-1.57,4.73-1.06,4.73-4.61A3.39,3.39,0,0,0,27.61,8H27c-3,0-3.92,4-2,4a1,1,0,0,0,1-1,1,1,0,0,1,1-1h.61A1.39,1.39,0,0,1,29,11.39c0,1.06-.74,1.23-2.51,1.94C23.84,14.39,23.22,18,25,18h5A1,1,0,0,0,30,16Z"/><path class="cls-1" d="M10.29,4.71C13.41,7.82,13.42,8,14,8a1,1,0,0,0,.71-1.71L13.41,5H50.59l-1.3,1.29a1,1,0,0,0,1.42,1.42c4.38-4.39,4.42-3,0-7.42a1,1,0,0,0-1.42,1.42L50.59,3H13.41l1.3-1.29A1,1,0,0,0,13.29.29C10,3.57,10.18,3.36,10.08,3.62A1,1,0,0,0,10.29,4.71Z"/><path class="cls-1" d="M16,21V18A5,5,0,0,0,6,18v3a5,5,0,0,0,10,0Z"/><path class="cls-1" d="M15,26H7a6,6,0,0,0-6,6V44a2,2,0,0,0,2.81,1.82c.29,0,.19.49.19-14.82a1,1,0,0,1,2,0V60a3.25,3.25,0,0,0-2,3h6l1-19,1,19h6a3.25,3.25,0,0,0-2-3V31a1,1,0,0,1,2,0c0,14.88-.1,14.82.19,14.82A2,2,0,0,0,21,44V32A6,6,0,0,0,15,26Z"/><path class="cls-1" d="M57,26H49a6,6,0,0,0-6,6V44a2,2,0,0,0,2.81,1.82c.29,0,.19.49.19-14.82a1,1,0,0,1,2,0V60a3.25,3.25,0,0,0-2,3h6l1-19,1,19h6a3.25,3.25,0,0,0-2-3V31a1,1,0,0,1,2,0c0,14.88-.1,14.82.19,14.82A2,2,0,0,0,63,44V32A6,6,0,0,0,57,26Z"/><path class="cls-1" d="M58,21V18a5,5,0,0,0-10,0v3a5,5,0,0,0,10,0Z"/></g></svg>