<svg xmlns="http://www.w3.org/2000/svg" viewBox="0 0 64 64"><defs><style>.cls-1{fill:#231f20;}</style></defs><title>Sore Troath</title><g id="Sore_Troath" data-name="Sore Troath"><path class="cls-1" d="M28.42,52a3.94,3.94,0,0,0-2.88-2.88,1,1,0,0,1-2,0A4,4,0,0,0,20.68,52a1,1,0,0,1,0,2,4,4,0,0,0,2.88,2.88,1,1,0,0,1,2,0A3.94,3.94,0,0,0,28.42,54,1,1,0,0,1,28.42,52Z"/><path class="cls-1" d="M55.06,34.31l-3.58-5a2.67,2.67,0,0,1-.21-2.75c.37-.77.28-1.1.28-4.06,0-19-23.18-28.7-36.74-15.21-4.26,4.25-6.36,9.52-6.36,16.18a30.75,30.75,0,0,0,2.44,12.15c3.39,8.14,2.33,13.26,1.66,27.38h23V55c5.88,1.68,6.63,2,7.86,2a6.15,6.15,0,0,0,6.14-6.14V48a1.73,1.73,0,0,0,.33-2H45c-1.44,0-1.61,1-2.41,1a1,1,0,0,1-.71-1.71c1.69-1.69,3.23-1.29,9-1.29a1.85,1.85,0,0,0-.29-2V39l2.88-.58A2.63,2.63,0,0,0,55.06,34.31ZM31.55,54H30.46a5.82,5.82,0,0,1-1,2.47l.77.77a1,1,0,0,1-1.42,1.42L28,57.89a6,6,0,0,1-2.47,1V60a1,1,0,0,1-2,0V58.91a5.83,5.83,0,0,1-2.46-1l-.78.77a1,1,0,0,1-1.42-1.42l.77-.77a5.82,5.82,0,0,1-1-2.47H17.55a1,1,0,0,1,0-2h1.09a5.82,5.82,0,0,1,1-2.47l-.77-.77a1,1,0,0,1,1.42-1.42l.78.78a5.72,5.72,0,0,1,2.46-1V46a1,1,0,0,1,2,0v1.09a5.7,5.7,0,0,1,2.47,1l.77-.78a1,1,0,0,1,1.42,1.42l-.77.77a5.82,5.82,0,0,1,1,2.47h1.09A1,1,0,0,1,31.55,54Z"/></g></svg>