<svg xmlns="http://www.w3.org/2000/svg" viewBox="0 0 64 64"><defs><style>.cls-1{fill:#231f20;}</style></defs><title>Stay at Home</title><g id="Stay_at_Home" data-name="Stay at Home"><path class="cls-1" d="M32,1,1,23v5.77C33.42,5.76,31.51,7,32,7S30.63,5.79,63,28.77V23Z"/><rect class="cls-1" x="1" y="58" width="62" height="5"/><path class="cls-1" d="M39,55.82A3,3,0,0,0,41,53V43a5,5,0,0,0-5-5H28a5,5,0,0,0-5,5V53a3,3,0,0,0,2,2.82V42a1,1,0,0,1,2,0V56H37V42a1,1,0,0,1,2,0Z"/><path class="cls-1" d="M36,32V29a4,4,0,0,0-8,0v3a4,4,0,0,0,8,0Z"/><path class="cls-1" d="M42,56H56V26.26l-24-17-24,17V56H22c-1.3-1.71-1-2.25-1-13a7,7,0,0,1,6.56-7C25.68,34,26,32,26,29a6,6,0,0,1,12,0c0,2.88.32,5-1.56,7A7,7,0,0,1,43,43C43,53.59,43.32,54.25,42,56Z"/></g></svg>