<svg id="Themperature" xmlns="http://www.w3.org/2000/svg" viewBox="0 0 64 64"><defs><style>.cls-1{fill:#231f20;}</style></defs><title>Themperature</title><path class="cls-1" d="M33.6,49.34C32.74,49,33,51.05,33,18a1,1,0,0,0-2,0c0,33,.26,31-.6,31.34a4,4,0,1,0,3.2,0Z"/><path class="cls-1" d="M38,45V7A6,6,0,0,0,26,7V45a10,10,0,1,0,12,0ZM30.72,58.87A6,6,0,0,1,29,47.81V18a3,3,0,0,1,6,0V47.81C40.9,51.21,37.34,60.29,30.72,58.87Z"/><path class="cls-1" d="M19.16,31.77A5,5,0,0,0,19.9,30H22a1,1,0,0,0,0-2c-3.26,0-1.42.36-2.84-1.77a16.49,16.49,0,0,0,1.5-1.47,1,1,0,0,0-1.42-1.42c-1.79,1.79-1.34,1.34-1.47,1.5A5,5,0,0,0,16,24.1V22a1,1,0,0,0-2,0c0,3.26.36,1.42-1.77,2.84a14,14,0,0,0-1.47-1.5,1,1,0,0,0-1.42,1.42c1.8,1.79,1.34,1.34,1.5,1.47A5,5,0,0,0,10.1,28H8a1,1,0,0,0,0,2c3.26,0,1.42-.36,2.84,1.77a16.49,16.49,0,0,0-1.5,1.47,1,1,0,0,0,1.42,1.42c1.79-1.79,1.34-1.34,1.47-1.5A5,5,0,0,0,14,33.9V36a1,1,0,0,0,2,0c0-3.26-.36-1.42,1.77-2.84a14,14,0,0,0,1.47,1.5,1,1,0,0,0,1.42-1.42C18.86,31.45,19.32,31.9,19.16,31.77Z"/><path class="cls-1" d="M13,54c-2.59,0-1.89,0-2.13,0a4,4,0,0,0-.56-1.27l1.47-1.46a1,1,0,0,0-1.42-1.42L8.8,51.45A4,4,0,0,0,8,51.13c0-.24,0,.45,0-2.13a1,1,0,0,0-2,0c0,2.58,0,1.89,0,2.13a4.09,4.09,0,0,0-1,.44L3.29,49.88A1,1,0,0,0,1.88,51.3L3.56,53A4.22,4.22,0,0,0,3.13,54,9.78,9.78,0,0,0,1,54a1,1,0,0,0,0,2c2.59,0,1.89,0,2.13,0a4,4,0,0,0,.32.83L1.88,58.37a1,1,0,0,0,.7,1.71c.55,0,.66-.25,2.18-1.77A4,4,0,0,0,6,58.87c0,.24,0-.45,0,2.13a1,1,0,0,0,2,0c0-2.59,0-1.89,0-2.13a4.22,4.22,0,0,0,1-.43c1.53,1.53,1.54,1.64,2.05,1.64a1,1,0,0,0,.71-1.71L10.43,57A4.09,4.09,0,0,0,10.87,56,9.78,9.78,0,0,0,13,56,1,1,0,0,0,13,54Z"/><path class="cls-1" d="M57,54a3,3,0,1,0,3,3A3,3,0,0,0,57,54Zm0,4a1,1,0,0,1,0-2A1,1,0,0,1,57,58Z"/><path class="cls-1" d="M19,14a3,3,0,1,0-3-3A3,3,0,0,0,19,14Zm0-4a1,1,0,0,1,0,2A1,1,0,0,1,19,10Z"/><path class="cls-1" d="M59.5,8A3.5,3.5,0,1,0,56,4.5,3.5,3.5,0,0,0,59.5,8Zm0-5a1.5,1.5,0,0,1,0,3A1.5,1.5,0,0,1,59.5,3Z"/><circle class="cls-1" cx="4" cy="4" r="2"/><circle class="cls-1" cx="46" cy="39" r="2"/><path class="cls-1" d="M14.5,42a1.5,1.5,0,0,0,0,3A1.5,1.5,0,0,0,14.5,42Z"/><path class="cls-1" d="M62,24H59a1,1,0,0,1,0-2h.32a7.14,7.14,0,0,0-.73-1.2c.2-.2-.71.74,2.12-2.09a1,1,0,0,0-1.42-1.42,21.41,21.41,0,0,0-2.08,2.11A6.93,6.93,0,0,0,54,18.08V16a1,1,0,0,0-2,0v3a1,1,0,0,1-2,0v-.32a6.89,6.89,0,0,0-1.2.73c-.2-.2.74.71-2.09-2.12a1,1,0,0,0-1.42,1.42,21.41,21.41,0,0,0,2.11,2.08A6.94,6.94,0,0,0,46.08,24H47a1,1,0,0,1,0,2H44a1,1,0,0,0,0,2h2.69a6.47,6.47,0,0,0,.72,1.2c-.2.2.71-.74-2.12,2.09A1,1,0,0,0,46,33c.64,0,.79-.4,2.8-2.41A6.78,6.78,0,0,0,52,31.92V34a1,1,0,0,0,2,0V31a1,1,0,0,1,2,0v.32a6.89,6.89,0,0,0,1.2-.73s0,.05,0,.07l2,2.05a1,1,0,0,0,1.42-1.42,21.41,21.41,0,0,0-2.11-2.08A6.89,6.89,0,0,0,59.92,26H62A1,1,0,0,0,62,24ZM50.5,25a1.5,1.5,0,0,1,0-3A1.5,1.5,0,0,1,50.5,25ZM53,28a1,1,0,0,1,0-2A1,1,0,0,1,53,28Zm3-3a1,1,0,0,1,0-2A1,1,0,0,1,56,25Z"/></svg>