<svg xmlns="http://www.w3.org/2000/svg" viewBox="0 0 64 64"><defs><style>.cls-1{fill:#231f20;}</style></defs><title>Virus Transmission</title><g id="Virus_Transmission" data-name="Virus Transmission"><path class="cls-1" d="M40.71,20.29a1,1,0,0,0-1.42,1.42L40.59,23H21a1,1,0,0,0,0,2H40.59l-1.3,1.29a1,1,0,0,0,1.42,1.42C45.09,23.32,45.13,24.72,40.71,20.29Z"/><path class="cls-1" d="M23,14h2.69a6.36,6.36,0,0,0,.72,1.2c-.18.15.28-.3-2.12,2.09a1,1,0,0,0,1.42,1.42c2.56-2.57,2-2,2.09-2.12A6.67,6.67,0,0,0,31,17.92V20a1,1,0,0,0,2,0V17a1,1,0,0,1,2,0v.32a6.72,6.72,0,0,0,1.2-.73,23.44,23.44,0,0,0,2.09,2.12,1,1,0,0,0,1.42-1.42c-2.57-2.57-2-2-2.11-2.08A6.93,6.93,0,0,0,38.92,12H41a1,1,0,0,0,0-2H38a1,1,0,0,1,0-2h.32a6.72,6.72,0,0,0-.73-1.2,23.44,23.44,0,0,0,2.12-2.09,1,1,0,0,0-1.42-1.42c-2.57,2.57-2,2-2.08,2.11A6.88,6.88,0,0,0,33,4.08V2a1,1,0,0,0-2,0V5a1,1,0,0,1-2,0V4.68a6.82,6.82,0,0,0-1.2.73c-.15-.18.3.28-2.09-2.12a1,1,0,0,0-1.42,1.42c2.57,2.57,2,2,2.11,2.08A7.07,7.07,0,0,0,25.08,10H26a1,1,0,0,1,0,2H23A1,1,0,0,0,23,14ZM35,9a1,1,0,0,1,0,2A1,1,0,0,1,35,9Zm-3,3a1,1,0,0,1,0,2A1,1,0,0,1,32,12ZM29.5,8a1.5,1.5,0,0,1,0,3A1.5,1.5,0,0,1,29.5,8Z"/><path class="cls-1" d="M16,21V18A5,5,0,0,0,6,18v3a5,5,0,0,0,10,0Z"/><path class="cls-1" d="M15,26H7a6,6,0,0,0-6,6V44a2,2,0,0,0,2.81,1.82c.29,0,.19.49.19-14.82a1,1,0,0,1,2,0V60a3.25,3.25,0,0,0-2,3h6l1-19,1,19h6a3.25,3.25,0,0,0-2-3V31a1,1,0,0,1,2,0c0,14.88-.1,14.82.19,14.82A2,2,0,0,0,21,44V32A6,6,0,0,0,15,26Z"/><path class="cls-1" d="M57,26H49a6,6,0,0,0-6,6V44a2,2,0,0,0,2.81,1.82c.29,0,.19.49.19-14.82a1,1,0,0,1,2,0V60a3.25,3.25,0,0,0-2,3h6l1-19,1,19h6a3.25,3.25,0,0,0-2-3V31a1,1,0,0,1,2,0c0,14.88-.1,14.82.19,14.82A2,2,0,0,0,63,44V32A6,6,0,0,0,57,26Z"/><path class="cls-1" d="M58,21V18a5,5,0,0,0-10,0v3a5,5,0,0,0,10,0Z"/></g></svg>