<svg xmlns="http://www.w3.org/2000/svg" viewBox="0 0 64 64"><defs><style>.cls-1{fill:#231f20;}</style></defs><title>Work From home</title><g id="Work_From_home" data-name="Work From home"><path class="cls-1" d="M32,1,1,23v5.77C33.42,5.76,31.51,7,32,7S30.63,5.79,63,28.77V23Z"/><rect class="cls-1" x="1" y="58" width="62" height="5"/><path class="cls-1" d="M27,56H48a1,1,0,0,0,0-2H27A1,1,0,0,0,27,56Z"/><path class="cls-1" d="M40,44a1,1,0,0,0,0,2A1,1,0,0,0,40,44Z"/><path class="cls-1" d="M51,40.06A1.79,1.79,0,0,0,49.21,38H32.39a1.79,1.79,0,0,0-1.77,1.52C28.92,50.58,29,50,29,50.21A1.79,1.79,0,0,0,30.79,52H47.61a1.79,1.79,0,0,0,1.77-1.52ZM40,48a3,3,0,1,1,3-3A3,3,0,0,1,40,48Z"/><path class="cls-1" d="M26,35V32a4,4,0,0,0-8,0v3a4,4,0,0,0,8,0Z"/><path class="cls-1" d="M27,52c1,0,0,.15,0-1.79,0-.45-.05,0,1-6.54-4.07-4.93-13.06-2.78-13.9,4.4L13.12,56H24.18A3,3,0,0,1,27,52Z"/><path class="cls-1" d="M56,56V26.26l-24-17-24,17V56h3.11l1-8.17a10,10,0,0,1,6.21-8.12C15.63,37.63,16,35,16,32a6,6,0,0,1,12,0c0,3.09.38,5.62-2.3,7.72a9.59,9.59,0,0,1,2.63,1.55l.32-2.06A3.76,3.76,0,0,1,32.39,36H49.21A3.79,3.79,0,0,1,53,39.79c0,.44.11-.43-1.65,11A3.76,3.76,0,0,1,50.21,53a3,3,0,0,1,.61,3Z"/></g></svg>